<svg xmlns="http://www.w3.org/2000/svg" xmlns:xlink="http://www.w3.org/1999/xlink" width="2560" height="400" viewBox="0 0 1920 300"><g data-name="P"><clipPath id="a"><path transform="matrix(1 0 0 -1 0 300)" d="M0 0h1920v300H0z"/></clipPath><g clip-path="url(#a)"><path stroke-width="3" fill="none" stroke="#5e5e5e" d="M15.806 13.367h1888.389v273.266H15.805V13.367zm0 0"/></g><clipPath id="b"><path transform="matrix(1 0 0 -1 0 300)" d="M7.354 14.96h1905.291v269.673H7.355z"/></clipPath><g clip-path="url(#b)"><symbol id="c"><path d="M.41.083V0H0v.758h.099V.083h.31z"/></symbol><symbol id="d"><path d="M.466.052A.481.481 0 0 0 .26 0a.242.242 0 0 0-.225.141.318.318 0 0 0-.002.29.255.255 0 0 0 .093.107.24.24 0 0 0 .133.038.194.194 0 0 0 .156-.07C.454.462.474.39.474.294v-.02H.098C.098.236.105.201.12.17A.17.17 0 0 1 .184.1.166.166 0 0 1 .27.076a.41.41 0 0 1 .195.059V.052m-.363.29h.272v.012c0 .045-.01.08-.033.107A.108.108 0 0 1 .255.5.13.13 0 0 1 .159.46.229.229 0 0 1 .103.341z"/></symbol><symbol id="e"><path d="M.384.138a.293.293 0 0 0-.1-.103A.212.212 0 0 0 .177 0a.164.164 0 0 0-.123.06C.018.097 0 .157 0 .237c0 .063.012.12.036.17.024.049.056.088.097.117a.25.25 0 0 0 .15.043.84.84 0 0 0 .101-.007h.092V.175c0-.065.006-.119.02-.16H.401a.85.85 0 0 0-.017.123m0 .108v.233a.355.355 0 0 1-.09.013.178.178 0 0 1-.14-.065A.263.263 0 0 1 .1.25c0-.054.01-.094.03-.122C.149.1.173.087.199.087.227.087.259.1.292.13a.407.407 0 0 1 .092.116z"/></symbol><symbol id="f"><path d="M0 0v.545h.09V.426c.03.045.062.079.098.1a.23.23 0 0 0 .123.035.335.335 0 0 0 .098-.016V.35H.322v.124a.229.229 0 0 1-.036.004.156.156 0 0 1-.1-.04.438.438 0 0 1-.095-.12V0H0z"/></symbol><symbol id="g"><path d="M0 0v.545h.09V.426a.308.308 0 0 0 .095.099.202.202 0 0 0 .11.036.157.157 0 0 0 .088-.026.135.135 0 0 0 .055-.067.533.533 0 0 0 .017-.163V0H.364v.316a.427.427 0 0 1-.008.103.08.08 0 0 1-.028.042.069.069 0 0 1-.044.016C.252.477.218.462.181.432a.365.365 0 0 1-.09-.114V0H0z"/></symbol><symbol id="h"><path d="M0 0z"/></symbol><symbol id="i"><path d="M.09.43c.029.046.062.08.1.104a.212.212 0 0 0 .108.034C.343.568.384.548.42.51.457.47.476.41.476.33A.38.38 0 0 0 .439.16.307.307 0 0 0 .342.044.252.252 0 0 0 .192 0a.853.853 0 0 0-.101.008H0v.788h.09V.43m0-.108V.089A.366.366 0 0 1 .183.076c.055 0 .1.022.138.065a.26.26 0 0 1 .057.177c0 .054-.01.095-.03.122C.325.468.301.481.276.481.247.481.216.467.182.438A.419.419 0 0 1 .09.323z"/></symbol><symbol id="j"><path d="M.258 0A.235.235 0 0 0 .07.082.306.306 0 0 0 0 .288C0 .371.023.44.07.494.117.55.18.576.258.576S.398.549.445.494a.304.304 0 0 0 .07-.206.306.306 0 0 0-.07-.206A.235.235 0 0 0 .258 0m0 .076c.048 0 .087.019.116.056.028.038.043.09.043.156a.251.251 0 0 1-.043.155A.138.138 0 0 1 .258.5.138.138 0 0 1 .142.443.251.251 0 0 1 .099.288C.099.222.113.17.142.132A.138.138 0 0 1 .258.076z"/></symbol><symbol id="k"><path d="M.455.56V.016H.364v.12A.327.327 0 0 0 .266.034.2.2 0 0 0 .16 0 .16.16 0 0 0 .07.025a.137.137 0 0 0-.055.068A.552.552 0 0 0 0 .256V.56h.09V.245C.09.192.094.158.099.14A.084.084 0 0 1 .126.1.07.07 0 0 1 .17.083c.032 0 .066.015.102.045.037.03.068.069.092.115V.56h.09z"/></symbol><symbol id="l"><path d="M.485.037A.49.49 0 0 0 .392.005.304.304 0 0 0 .336 0a.245.245 0 0 0-.104.022.155.155 0 0 0-.072.065.283.283 0 0 0-.024.133v.22H0v.075h.136v.22h.091v-.22H.47V.44H.227V.221A.2.2 0 0 1 .243.128a.097.097 0 0 1 .041-.04.142.142 0 0 1 .062-.012.28.28 0 0 1 .139.041v-.08z"/></symbol><symbol id="m"><path d="M.09.635c.029.045.062.08.1.103a.212.212 0 0 0 .108.034C.343.772.384.752.42.713.457.674.476.614.476.534a.38.38 0 0 0-.037-.17.307.307 0 0 0-.097-.117.252.252 0 0 0-.15-.043.853.853 0 0 0-.101.008V0H0v.757h.09V.635m0-.108V.293A.366.366 0 0 1 .183.28c.055 0 .1.022.138.065a.26.26 0 0 1 .057.177c0 .054-.01.095-.03.123-.021.027-.045.04-.07.04C.247.686.216.672.182.644A.419.419 0 0 1 .09.527z"/></symbol><symbol id="n"><path d="M0 .044V.14A.368.368 0 0 1 .116.09.471.471 0 0 1 .219.076c.046 0 .08.007.1.022.02.015.03.033.03.055a.054.054 0 0 1-.015.038.22.22 0 0 1-.07.038L.233.242.17.267A.323.323 0 0 0 .042.34a.125.125 0 0 0-.027.081c0 .045.017.082.052.111.035.03.091.044.169.044A.532.532 0 0 0 .4.55V.468A.502.502 0 0 1 .232.5a.17.17 0 0 1-.09-.02C.121.465.11.45.11.43.11.41.12.393.138.381A.51.51 0 0 1 .23.342L.291.319A.312.312 0 0 0 .409.252a.126.126 0 0 0 .034-.09A.146.146 0 0 0 .39.045C.353.015.295 0 .215 0A.579.579 0 0 0 0 .044z"/></symbol><symbol id="o"><path d="M.455.03A.545.545 0 0 0 .28 0a.27.27 0 0 0-.245.14A.301.301 0 0 0 0 .288C0 .37.027.439.08.494.136.548.2.576.277.576A.56.56 0 0 0 .455.544V.457A.418.418 0 0 1 .285.5.187.187 0 0 1 .19.475.16.16 0 0 1 .123.398.245.245 0 0 1 .145.15C.175.106.224.083.29.083c.02 0 .039.002.058.004.02.003.055.014.107.031V.031z"/></symbol><symbol id="p"><path d="M.384.334a.293.293 0 0 0-.1-.103.212.212 0 0 0-.107-.034.164.164 0 0 0-.123.059C.018.296 0 .355 0 .436c0 .062.012.119.036.168.024.05.056.089.097.118a.25.25 0 0 0 .15.043.84.84 0 0 0 .101-.008h.092V0H.384v.334m0 .108v.234a.355.355 0 0 1-.09.013.178.178 0 0 1-.14-.065A.263.263 0 0 1 .1.447c0-.054.01-.095.03-.122.02-.028.044-.041.07-.041.028 0 .06.014.093.043a.407.407 0 0 1 .092.115z"/></symbol><symbol id="q"><path d="M.151 0v.47H0v.075h.242v-.47h.152V0H.151M.136.742c0 .02.007.036.021.046.014.01.027.015.04.015a.07.07 0 0 0 .04-.015C.25.778.257.763.257.742c0-.02-.006-.035-.02-.045a.07.07 0 0 0-.04-.015.069.069 0 0 0-.04.015c-.014.01-.02.025-.02.045z"/></symbol><symbol id="r"><path d="M.163 0v.712H0v.076h.254V.076h.17V0h-.26z"/></symbol><symbol id="s"><path d="M.089 0 0 .545h.084L.136.213.15.136l.013.077.087.332h.082L.43.213.447.136l.011.077.052.332h.07L.492 0H.407L.302.351.286.428H.283L.268.352.178 0h-.09z"/></symbol><symbol id="t"><path d="M0 0v.788h.09V.426a.308.308 0 0 0 .095.099.202.202 0 0 0 .11.036C.326.56.355.553.38.537A.13.13 0 0 0 .434.479.197.197 0 0 0 .45.424C.453.405.455.365.455.304V0H.364v.316a.427.427 0 0 1-.008.103.08.08 0 0 1-.028.042.069.069 0 0 1-.044.016C.252.477.218.462.181.432a.365.365 0 0 1-.09-.114V0H0z"/></symbol><symbol id="u"><path d="M.33.198A.314.314 0 0 1 .39.119.176.176 0 0 1 .46.086a.393.393 0 0 1 .096-.01h.008V0H.542a.354.354 0 0 0-.138.02.26.26 0 0 0-.08.06.397.397 0 0 0-.07.11.246.246 0 0 0-.142.057.318.318 0 0 0-.082.145.712.712 0 0 0-.03.21c0 .11.022.203.066.278.044.075.11.112.2.112A.218.218 0 0 0 .461.884.546.546 0 0 0 .53.59.768.768 0 0 0 .512.422.377.377 0 0 0 .451.28.219.219 0 0 0 .33.198M.265.917C.218.917.178.889.146.835A.495.495 0 0 1 .099.591C.099.48.114.4.146.346c.032-.054.072-.08.12-.08.047 0 .086.026.118.08A.494.494 0 0 1 .432.59a.49.49 0 0 1-.048.244C.352.89.313.917.265.917z"/></symbol><symbol id="v"><path d="M0 0v.076h.167v.606H0v.076h.432V.682H.265V.076h.167V0H0z"/></symbol><symbol id="w"><path d="M.474.032A.441.441 0 0 0 .32 0a.3.3 0 0 0-.28.189A.523.523 0 0 0 0 .402C0 .48.014.55.041.613a.297.297 0 0 0 .28.19c.045 0 .096-.01.153-.031v-.09a.31.31 0 0 1-.157.046.166.166 0 0 1-.107-.04A.278.278 0 0 1 .132.57a.462.462 0 0 1-.03-.168c0-.062.01-.118.03-.17a.28.28 0 0 1 .08-.118.165.165 0 0 1 .105-.038C.37.076.421.09.474.12v-.09z"/></symbol><symbol id="x"><path d="M0 0v.758h.099V.386L.38.758h.105L.213.398.523 0H.399L.1.386V0H0z"/></symbol><symbol id="y"><path d="M.41.083V0H0v.758h.401V.682H.1V.424H.37V.35H.1V.083h.31z"/></symbol><symbol id="z"><path d="M0 0v.545h.08V.42c.025.053.048.09.07.11.021.02.043.03.065.03C.242.56.263.55.28.53A.138.138 0 0 0 .303.44V.412c.011.033.024.06.039.08a.23.23 0 0 0 .047.05.09.09 0 0 0 .056.019C.47.56.49.55.505.53.522.51.53.47.53.412V0H.45v.373c0 .03 0 .051-.002.062a.047.047 0 0 1-.012.026.027.027 0 0 1-.019.009C.4.47.382.457.362.43A.486.486 0 0 1 .303.303V0H.227v.372C.227.42.222.45.213.457.203.465.195.47.188.47.17.47.152.455.134.426A.592.592 0 0 1 .08.315V0H0z"/></symbol><symbol id="A"><path d="M.088 0 0 .758h.09L.142.296.148.22h.003l.01.076.08.462h.09l.09-.48.01-.073h.002l.005.073.058.48h.077L.48 0H.388L.29.514.28.59H.277L.268.514.18 0H.088z"/></symbol><symbol id="B"><path d="M0 0v.788h.09V.293l.263.252h.121L.212.293.481 0H.356L.091.293V0H0z"/></symbol><symbol id="C"><path d="M.458 0H0v.083c0 .022.004.045.013.07a.295.295 0 0 0 .05.082c.025.031.051.06.08.089l.05.052.07.075c.034.04.057.07.069.09.01.02.017.041.017.062a.085.085 0 0 1-.04.075.152.152 0 0 1-.087.027.435.435 0 0 1-.123-.021.9.9 0 0 1-.084-.036V.73A.595.595 0 0 0 .24.78C.28.78.316.774.35.76A.14.14 0 0 0 .422.702.165.165 0 0 0 .447.615C.447.58.437.545.416.51A.717.717 0 0 0 .299.372L.243.316.196.271A.561.561 0 0 1 .125.184a.198.198 0 0 1-.03-.1h.363V0z"/></symbol><symbol id="D"><path d="M.265.803A.219.219 0 0 0 .462.694.547.547 0 0 0 .53.402.55.55 0 0 0 .462.108.219.219 0 0 0 .265 0a.22.22 0 0 0-.197.108A.55.55 0 0 0 0 .402c0 .123.023.22.068.292a.22.22 0 0 0 .197.11M.117.24.38.65a.145.145 0 0 1-.054.061.121.121 0 0 1-.06.017C.211.728.17.698.141.637A.54.54 0 0 1 .1.407c0-.02 0-.044.002-.068a.602.602 0 0 1 .016-.1M.412.56.152.147A.16.16 0 0 1 .2.093.11.11 0 0 1 .261.076c.062 0 .106.034.132.103a.651.651 0 0 1 .02.381z"/></symbol><symbol id="E"><path d="M0 .037v.095A.444.444 0 0 1 .194.076c.05 0 .091.015.124.045s.05.07.05.118a.146.146 0 0 1-.055.117C.277.386.216.402.13.402H.08v.076h.07c.063 0 .109.014.137.042C.315.549.33.58.33.615a.104.104 0 0 1-.035.08C.272.717.236.728.188.728A.397.397 0 0 1 .015.682V.77a.49.49 0 0 0 .17.034C.277.803.341.785.375.75A.173.173 0 0 0 .428.625.183.183 0 0 0 .4.527a.234.234 0 0 0-.102-.08.278.278 0 0 0 .1-.049.184.184 0 0 0 .05-.066.206.206 0 0 0 .018-.087.224.224 0 0 0-.08-.176A.296.296 0 0 0 .184 0 .413.413 0 0 0 0 .037z"/></symbol><symbol id="F"><path d="M.028.239.006.78h.121L.104.239H.028M.07 0a.068.068 0 0 0-.05.021.067.067 0 0 0-.02.05.069.069 0 0 0 .07.07A.067.067 0 0 0 .12.12.065.065 0 0 0 .14.07.067.067 0 0 0 .12.02.068.068 0 0 0 .07 0z"/></symbol><use xlink:href="#c" transform="matrix(37 0 0 -37 142.423 114.139)" fill="#5e5e5e"/><use xlink:href="#d" transform="matrix(37 0 0 -37 163.019 114.717)" fill="#5e5e5e"/><use xlink:href="#e" transform="matrix(37 0 0 -37 184.716 114.7)" fill="#5e5e5e"/><use xlink:href="#f" transform="matrix(37 0 0 -37 209.594 114.139)" fill="#5e5e5e"/><use xlink:href="#g" transform="matrix(37 0 0 -37 230.081 114.139)" fill="#5e5e5e"/><use xlink:href="#h" transform="matrix(37 0 0 -37 249.485 114.139)" fill="#5e5e5e"/><use xlink:href="#e" transform="matrix(37 0 0 -37 273.531 114.7)" fill="#5e5e5e"/><use xlink:href="#i" transform="matrix(37 0 0 -37 296.44 114.428)" fill="#5e5e5e"/><use xlink:href="#j" transform="matrix(37 0 0 -37 317.668 114.7)" fill="#5e5e5e"/><use xlink:href="#k" transform="matrix(37 0 0 -37 340.883 114.7)" fill="#5e5e5e"/><use xlink:href="#l" transform="matrix(37 0 0 -37 362.238 114.7)" fill="#5e5e5e"/><use xlink:href="#h" transform="matrix(37 0 0 -37 382.707 114.139)" fill="#5e5e5e"/><use xlink:href="#j" transform="matrix(37 0 0 -37 406.482 114.7)" fill="#5e5e5e"/><use xlink:href="#m" transform="matrix(37 0 0 -37 429.662 121.98)" fill="#5e5e5e"/><use xlink:href="#d" transform="matrix(37 0 0 -37 451.667 114.717)" fill="#5e5e5e"/><use xlink:href="#g" transform="matrix(37 0 0 -37 474.322 114.139)" fill="#5e5e5e"/><use xlink:href="#h" transform="matrix(37 0 0 -37 493.726 114.139)" fill="#5e5e5e"/><use xlink:href="#n" transform="matrix(37 0 0 -37 518.964 114.7)" fill="#5e5e5e"/><use xlink:href="#j" transform="matrix(37 0 0 -37 539.705 114.7)" fill="#5e5e5e"/><use xlink:href="#k" transform="matrix(37 0 0 -37 562.92 114.7)" fill="#5e5e5e"/><use xlink:href="#f" transform="matrix(37 0 0 -37 587.057 114.139)" fill="#5e5e5e"/><use xlink:href="#o" transform="matrix(37 0 0 -37 607.707 114.7)" fill="#5e5e5e"/><use xlink:href="#d" transform="matrix(37 0 0 -37 629.296 114.717)" fill="#5e5e5e"/><use xlink:href="#h" transform="matrix(37 0 0 -37 649.152 114.139)" fill="#5e5e5e"/><use xlink:href="#p" transform="matrix(37 0 0 -37 673.415 121.98)" fill="#5e5e5e"/><use xlink:href="#k" transform="matrix(37 0 0 -37 696.142 114.7)" fill="#5e5e5e"/><use xlink:href="#i" transform="matrix(37 0 0 -37 718.31 114.428)" fill="#5e5e5e"/><use xlink:href="#q" transform="matrix(37 0 0 -37 740.82 114.139)" fill="#5e5e5e"/><use xlink:href="#l" transform="matrix(37 0 0 -37 761.904 114.7)" fill="#5e5e5e"/><use xlink:href="#h" transform="matrix(37 0 0 -37 782.374 114.139)" fill="#5e5e5e"/><use xlink:href="#o" transform="matrix(37 0 0 -37 807.54 114.7)" fill="#5e5e5e"/><use xlink:href="#j" transform="matrix(37 0 0 -37 828.353 114.7)" fill="#5e5e5e"/><use xlink:href="#g" transform="matrix(37 0 0 -37 851.785 114.139)" fill="#5e5e5e"/><use xlink:href="#l" transform="matrix(37 0 0 -37 872.923 114.7)" fill="#5e5e5e"/><use xlink:href="#f" transform="matrix(37 0 0 -37 897.909 114.139)" fill="#5e5e5e"/><use xlink:href="#j" transform="matrix(37 0 0 -37 917.167 114.7)" fill="#5e5e5e"/><use xlink:href="#r" transform="matrix(37 0 0 -37 939.985 114.139)" fill="#5e5e5e"/><use xlink:href="#h" transform="matrix(37 0 0 -37 960.003 114.139)" fill="#5e5e5e"/><use xlink:href="#s" transform="matrix(37 0 0 -37 982.568 114.139)" fill="#5e5e5e"/><use xlink:href="#q" transform="matrix(37 0 0 -37 1007.265 114.139)" fill="#5e5e5e"/><use xlink:href="#l" transform="matrix(37 0 0 -37 1028.348 114.7)" fill="#5e5e5e"/><use xlink:href="#t" transform="matrix(37 0 0 -37 1051.618 114.139)" fill="#5e5e5e"/><use xlink:href="#h" transform="matrix(37 0 0 -37 1071.021 114.139)" fill="#5e5e5e"/><use xlink:href="#u" transform="matrix(37 0 0 -37 1094.508 121.98)" fill="#5e5e5e"/><use xlink:href="#v" transform="matrix(37 0 0 -37 1118.536 114.139)" fill="#5e5e5e"/><use xlink:href="#w" transform="matrix(37 0 0 -37 1139.764 114.988)" fill="#5e5e5e"/><use xlink:href="#x" transform="matrix(37 0 0 -37 1162.672 114.139)" fill="#5e5e5e"/><use xlink:href="#h" transform="matrix(37 0 0 -37 1182.04 114.139)" fill="#5e5e5e"/><use xlink:href="#e" transform="matrix(37 0 0 -37 1206.086 114.7)" fill="#5e5e5e"/><use xlink:href="#l" transform="matrix(37 0 0 -37 1228.181 114.7)" fill="#5e5e5e"/><use xlink:href="#h" transform="matrix(37 0 0 -37 1248.65 114.139)" fill="#5e5e5e"/><use xlink:href="#v" transform="matrix(37 0 0 -37 1273.962 114.139)" fill="#5e5e5e"/><use xlink:href="#y" transform="matrix(37 0 0 -37 1296.726 114.139)" fill="#5e5e5e"/><use xlink:href="#y" transform="matrix(37 0 0 -37 1318.93 114.139)" fill="#5e5e5e"/><use xlink:href="#y" transform="matrix(37 0 0 -37 1341.133 114.139)" fill="#5e5e5e"/><use xlink:href="#h" transform="matrix(37 0 0 -37 1359.67 114.139)" fill="#5e5e5e"/><use xlink:href="#u" transform="matrix(37 0 0 -37 1383.156 121.98)" fill="#5e5e5e"/><use xlink:href="#k" transform="matrix(37 0 0 -37 1406.66 114.7)" fill="#5e5e5e"/><use xlink:href="#e" transform="matrix(37 0 0 -37 1428.123 114.7)" fill="#5e5e5e"/><use xlink:href="#g" transform="matrix(37 0 0 -37 1451.285 114.139)" fill="#5e5e5e"/><use xlink:href="#l" transform="matrix(37 0 0 -37 1472.423 114.7)" fill="#5e5e5e"/><use xlink:href="#k" transform="matrix(37 0 0 -37 1495.476 114.7)" fill="#5e5e5e"/><use xlink:href="#z" transform="matrix(37 0 0 -37 1516.378 114.139)" fill="#5e5e5e"/><use xlink:href="#h" transform="matrix(37 0 0 -37 1537.3 114.139)" fill="#5e5e5e"/><use xlink:href="#A" transform="matrix(37 0 0 -37 1560.009 114.139)" fill="#5e5e5e"/><use xlink:href="#d" transform="matrix(37 0 0 -37 1584.056 114.717)" fill="#5e5e5e"/><use xlink:href="#d" transform="matrix(37 0 0 -37 1606.26 114.717)" fill="#5e5e5e"/><use xlink:href="#B" transform="matrix(37 0 0 -37 1629.818 114.139)" fill="#5e5e5e"/><use xlink:href="#h" transform="matrix(37 0 0 -37 1648.318 114.139)" fill="#5e5e5e"/><use xlink:href="#C" transform="matrix(37 0 0 -37 1673.214 114.139)" fill="#5e5e5e"/><use xlink:href="#D" transform="matrix(37 0 0 -37 1694.008 114.988)" fill="#5e5e5e"/><use xlink:href="#C" transform="matrix(37 0 0 -37 1717.621 114.139)" fill="#5e5e5e"/><use xlink:href="#E" transform="matrix(37 0 0 -37 1739.753 114.988)" fill="#5e5e5e"/><use xlink:href="#F" transform="matrix(37 0 0 -37 1767.846 114.988)" fill="#5e5e5e"/></g><g data-name="P"><symbol id="G"><path d="M0 0v.061a.122.122 0 0 1 .053.026.12.12 0 0 1 .03.044c.007.018.01.04.01.065-.03 0-.052.008-.066.025a.084.084 0 0 0-.022.055c0 .023.008.042.024.057a.077.077 0 0 0 .056.023.09.09 0 0 0 .07-.035.145.145 0 0 0 .03-.097.226.226 0 0 0-.023-.101.246.246 0 0 0-.064-.081A.188.188 0 0 0 0 0z"/></symbol><symbol id="H"><path d="M.237 0 0 .545h.1L.287.114l.19.431h.091L.33 0H.237z"/></symbol><symbol id="I"><path d="M.121 0v.424H0V.5h.121v.025c0 .072.008.126.025.16A.205.205 0 0 0 .22.77C.255.792.3.803.356.803A.651.651 0 0 0 .485.79V.704a.406.406 0 0 1-.126.023.174.174 0 0 1-.076-.016A.115.115 0 0 1 .23.658.291.291 0 0 1 .212.535V.5h.216V.424H.212V0h-.09z"/></symbol><symbol id="J"><path d="M0 0v.06a.118.118 0 0 1 .053.027.118.118 0 0 1 .03.044.163.163 0 0 1 .01.064c-.03 0-.052.009-.066.026a.085.085 0 0 0-.022.055c0 .022.008.041.024.057a.077.077 0 0 0 .056.023.09.09 0 0 0 .07-.036.145.145 0 0 0 .03-.096A.245.245 0 0 0 .099.04.185.185 0 0 0 0 0z"/></symbol><symbol id="K"><path d="M.384.138a.293.293 0 0 0-.1-.103A.212.212 0 0 0 .177 0a.164.164 0 0 0-.123.06C.018.097 0 .157 0 .237c0 .063.012.12.036.17.024.049.056.088.097.117a.25.25 0 0 0 .15.043.84.84 0 0 0 .101-.007v.242h.092V.015H.384v.123m0 .108v.233a.355.355 0 0 1-.09.013.178.178 0 0 1-.14-.065A.263.263 0 0 1 .1.25c0-.054.01-.094.03-.122C.149.1.173.087.199.087.227.087.259.1.292.13a.407.407 0 0 1 .092.116z"/></symbol><symbol id="L"><path d="M.105 0H0l.214.286-.2.26H.13L.272.361l.139.183h.103l-.19-.25L.55 0H.433L.267.217.105 0z"/></symbol><symbol id="M"><path d="M.432 0a.419.419 0 0 0-.228.077A.535.535 0 0 0 0 .493a.535.535 0 0 0 .204.415.422.422 0 0 0 .228.077V.909a.319.319 0 0 1-.176-.07A.409.409 0 0 1 .14.69.467.467 0 0 1 .099.492c0-.07.014-.135.042-.197a.409.409 0 0 1 .115-.15.324.324 0 0 1 .176-.07V0z"/></symbol><symbol id="N"><path d="M0 .205v.068h.096l.053.2H0v.069h.167l.057.216h.07L.239.542h.138l.06.216h.07L.449.542H.53V.474h-.1L.375.273H.53V.205H.357L.3 0H.23l.057.205H.149L.096 0H.023l.055.205H0m.167.068h.137l.055.2H.22l-.052-.2z"/></symbol><symbol id="O"><path d="M0 .985a.422.422 0 0 0 .376-.26.53.53 0 0 0 .056-.233A.53.53 0 0 0 .376.26.419.419 0 0 0 0 0v.076c.068.006.126.03.175.069.05.039.088.09.116.15a.463.463 0 0 1 .042.197C.333.562.32.628.291.69a.406.406 0 0 1-.116.15A.316.316 0 0 1 0 .91v.076z"/></symbol><symbol id="P"><path d="M.08 0a.077.077 0 0 0-.057.023A.077.077 0 0 0 0 .08c0 .022.008.04.023.056A.078.078 0 0 0 .08.159C.1.16.12.151.135.136A.075.075 0 0 0 .16.08.077.077 0 0 0 .136.023.077.077 0 0 0 .08 0z"/></symbol><use xlink:href="#A" transform="matrix(37 0 0 -37 39.056 163.139)" fill="#5e5e5e"/><use xlink:href="#d" transform="matrix(37 0 0 -37 63.102 163.717)" fill="#5e5e5e"/><use xlink:href="#G" transform="matrix(37 0 0 -37 90.618 146.608)" fill="#5e5e5e"/><use xlink:href="#r" transform="matrix(37 0 0 -37 107.347 163.139)" fill="#5e5e5e"/><use xlink:href="#r" transform="matrix(37 0 0 -37 129.55 163.139)" fill="#5e5e5e"/><use xlink:href="#h" transform="matrix(37 0 0 -37 149.569 163.139)" fill="#5e5e5e"/><use xlink:href="#o" transform="matrix(37 0 0 -37 174.735 163.7)" fill="#5e5e5e"/><use xlink:href="#j" transform="matrix(37 0 0 -37 195.548 163.7)" fill="#5e5e5e"/><use xlink:href="#H" transform="matrix(37 0 0 -37 216.776 163.139)" fill="#5e5e5e"/><use xlink:href="#d" transform="matrix(37 0 0 -37 240.732 163.717)" fill="#5e5e5e"/><use xlink:href="#f" transform="matrix(37 0 0 -37 265.104 163.139)" fill="#5e5e5e"/><use xlink:href="#h" transform="matrix(37 0 0 -37 282.79 163.139)" fill="#5e5e5e"/><use xlink:href="#I" transform="matrix(37 0 0 -37 308.012 163.139)" fill="#5e5e5e"/><use xlink:href="#q" transform="matrix(37 0 0 -37 330.053 163.139)" fill="#5e5e5e"/><use xlink:href="#f" transform="matrix(37 0 0 -37 353.918 163.139)" fill="#5e5e5e"/><use xlink:href="#z" transform="matrix(37 0 0 -37 372.888 163.139)" fill="#5e5e5e"/><use xlink:href="#s" transform="matrix(37 0 0 -37 394.17 163.139)" fill="#5e5e5e"/><use xlink:href="#e" transform="matrix(37 0 0 -37 417.856 163.7)" fill="#5e5e5e"/><use xlink:href="#f" transform="matrix(37 0 0 -37 442.733 163.139)" fill="#5e5e5e"/><use xlink:href="#d" transform="matrix(37 0 0 -37 462.77 163.717)" fill="#5e5e5e"/><use xlink:href="#J" transform="matrix(37 0 0 -37 490.284 170.98)" fill="#5e5e5e"/><use xlink:href="#h" transform="matrix(37 0 0 -37 504.828 163.139)" fill="#5e5e5e"/><use xlink:href="#n" transform="matrix(37 0 0 -37 530.067 163.7)" fill="#5e5e5e"/><use xlink:href="#j" transform="matrix(37 0 0 -37 550.807 163.7)" fill="#5e5e5e"/><use xlink:href="#I" transform="matrix(37 0 0 -37 574.456 163.139)" fill="#5e5e5e"/><use xlink:href="#l" transform="matrix(37 0 0 -37 595.377 163.7)" fill="#5e5e5e"/><use xlink:href="#s" transform="matrix(37 0 0 -37 616.208 163.139)" fill="#5e5e5e"/><use xlink:href="#e" transform="matrix(37 0 0 -37 639.893 163.7)" fill="#5e5e5e"/><use xlink:href="#f" transform="matrix(37 0 0 -37 664.77 163.139)" fill="#5e5e5e"/><use xlink:href="#d" transform="matrix(37 0 0 -37 684.806 163.717)" fill="#5e5e5e"/><use xlink:href="#h" transform="matrix(37 0 0 -37 704.661 163.139)" fill="#5e5e5e"/><use xlink:href="#e" transform="matrix(37 0 0 -37 728.707 163.7)" fill="#5e5e5e"/><use xlink:href="#g" transform="matrix(37 0 0 -37 751.869 163.139)" fill="#5e5e5e"/><use xlink:href="#K" transform="matrix(37 0 0 -37 773.332 163.7)" fill="#5e5e5e"/><use xlink:href="#h" transform="matrix(37 0 0 -37 793.476 163.139)" fill="#5e5e5e"/><use xlink:href="#d" transform="matrix(37 0 0 -37 818.028 163.717)" fill="#5e5e5e"/><use xlink:href="#L" transform="matrix(37 0 0 -37 838.895 163.139)" fill="#5e5e5e"/><use xlink:href="#m" transform="matrix(37 0 0 -37 862.634 170.98)" fill="#5e5e5e"/><use xlink:href="#d" transform="matrix(37 0 0 -37 884.639 163.717)" fill="#5e5e5e"/><use xlink:href="#f" transform="matrix(37 0 0 -37 909.01 163.139)" fill="#5e5e5e"/><use xlink:href="#q" transform="matrix(37 0 0 -37 929.552 163.139)" fill="#5e5e5e"/><use xlink:href="#z" transform="matrix(37 0 0 -37 950.184 163.139)" fill="#5e5e5e"/><use xlink:href="#d" transform="matrix(37 0 0 -37 973.454 163.717)" fill="#5e5e5e"/><use xlink:href="#g" transform="matrix(37 0 0 -37 996.109 163.139)" fill="#5e5e5e"/><use xlink:href="#l" transform="matrix(37 0 0 -37 1017.247 163.7)" fill="#5e5e5e"/><use xlink:href="#h" transform="matrix(37 0 0 -37 1037.716 163.139)" fill="#5e5e5e"/><use xlink:href="#q" transform="matrix(37 0 0 -37 1062.774 163.139)" fill="#5e5e5e"/><use xlink:href="#g" transform="matrix(37 0 0 -37 1084.924 163.139)" fill="#5e5e5e"/><use xlink:href="#h" transform="matrix(37 0 0 -37 1104.327 163.139)" fill="#5e5e5e"/><use xlink:href="#j" transform="matrix(37 0 0 -37 1128.103 163.7)" fill="#5e5e5e"/><use xlink:href="#k" transform="matrix(37 0 0 -37 1151.318 163.7)" fill="#5e5e5e"/><use xlink:href="#f" transform="matrix(37 0 0 -37 1175.455 163.139)" fill="#5e5e5e"/><use xlink:href="#h" transform="matrix(37 0 0 -37 1193.142 163.139)" fill="#5e5e5e"/><use xlink:href="#q" transform="matrix(37 0 0 -37 1218.2 163.139)" fill="#5e5e5e"/><use xlink:href="#g" transform="matrix(37 0 0 -37 1240.35 163.139)" fill="#5e5e5e"/><use xlink:href="#l" transform="matrix(37 0 0 -37 1261.488 163.7)" fill="#5e5e5e"/><use xlink:href="#d" transform="matrix(37 0 0 -37 1284.306 163.717)" fill="#5e5e5e"/><use xlink:href="#f" transform="matrix(37 0 0 -37 1308.677 163.139)" fill="#5e5e5e"/><use xlink:href="#e" transform="matrix(37 0 0 -37 1328.207 163.7)" fill="#5e5e5e"/><use xlink:href="#o" transform="matrix(37 0 0 -37 1351.531 163.7)" fill="#5e5e5e"/><use xlink:href="#l" transform="matrix(37 0 0 -37 1372.506 163.7)" fill="#5e5e5e"/><use xlink:href="#q" transform="matrix(37 0 0 -37 1395.83 163.139)" fill="#5e5e5e"/><use xlink:href="#H" transform="matrix(37 0 0 -37 1415.776 163.139)" fill="#5e5e5e"/><use xlink:href="#d" transform="matrix(37 0 0 -37 1439.732 163.717)" fill="#5e5e5e"/><use xlink:href="#h" transform="matrix(37 0 0 -37 1459.587 163.139)" fill="#5e5e5e"/><use xlink:href="#l" transform="matrix(37 0 0 -37 1483.525 163.7)" fill="#5e5e5e"/><use xlink:href="#k" transform="matrix(37 0 0 -37 1506.578 163.7)" fill="#5e5e5e"/><use xlink:href="#l" transform="matrix(37 0 0 -37 1527.932 163.7)" fill="#5e5e5e"/><use xlink:href="#j" transform="matrix(37 0 0 -37 1549.974 163.7)" fill="#5e5e5e"/><use xlink:href="#f" transform="matrix(37 0 0 -37 1575.122 163.139)" fill="#5e5e5e"/><use xlink:href="#q" transform="matrix(37 0 0 -37 1595.664 163.139)" fill="#5e5e5e"/><use xlink:href="#e" transform="matrix(37 0 0 -37 1616.856 163.7)" fill="#5e5e5e"/><use xlink:href="#r" transform="matrix(37 0 0 -37 1639.403 163.139)" fill="#5e5e5e"/><use xlink:href="#h" transform="matrix(37 0 0 -37 1659.42 163.139)" fill="#5e5e5e"/><use xlink:href="#M" transform="matrix(37 0 0 -37 1685.02 169.86)" fill="#5e5e5e"/><use xlink:href="#N" transform="matrix(37 0 0 -37 1705.11 163.139)" fill="#5e5e5e"/><use xlink:href="#l" transform="matrix(37 0 0 -37 1727.766 163.7)" fill="#5e5e5e"/><use xlink:href="#k" transform="matrix(37 0 0 -37 1750.819 163.7)" fill="#5e5e5e"/><use xlink:href="#l" transform="matrix(37 0 0 -37 1772.174 163.7)" fill="#5e5e5e"/><use xlink:href="#D" transform="matrix(37 0 0 -37 1793.926 163.988)" fill="#5e5e5e"/><use xlink:href="#E" transform="matrix(37 0 0 -37 1817.466 163.988)" fill="#5e5e5e"/><use xlink:href="#O" transform="matrix(37 0 0 -37 1839.887 169.86)" fill="#5e5e5e"/><use xlink:href="#P" transform="matrix(37 0 0 -37 1867.402 163.988)" fill="#5e5e5e"/></g><g data-name="P"><symbol id="Q"><path d="M.095 0H0l.233.758h.1L.568 0H.464L.413.167H.146L.095 0m.074.242h.222L.299.53.278.606.258.53.17.242z"/></symbol><symbol id="R"><path d="M.384.35a.293.293 0 0 0-.1-.103.212.212 0 0 0-.107-.035.164.164 0 0 0-.123.059C.018.311 0 .371 0 .451 0 .512.012.57.036.618.06.67.092.71.133.737a.25.25 0 0 0 .15.043.84.84 0 0 0 .101-.008h.092V.387A1.98 1.98 0 0 0 .472.219.424.424 0 0 0 .46.157.188.188 0 0 0 .37.042.318.318 0 0 0 .204 0a.446.446 0 0 0-.201.05v.093A.414.414 0 0 1 .206.076C.234.076.26.08.285.089a.147.147 0 0 1 .06.038.131.131 0 0 1 .031.058c.006.022.008.051.008.087V.35m0 .108V.69a.355.355 0 0 1-.09.013.178.178 0 0 1-.14-.065A.263.263 0 0 1 .1.462c0-.054.01-.094.03-.122.02-.028.044-.041.07-.041.028 0 .06.014.093.043a.407.407 0 0 1 .092.116z"/></symbol><use xlink:href="#Q" transform="matrix(37 0 0 -37 305.59 212.139)" fill="#5e5e5e"/><use xlink:href="#r" transform="matrix(37 0 0 -37 329.383 212.139)" fill="#5e5e5e"/><use xlink:href="#r" transform="matrix(37 0 0 -37 351.587 212.139)" fill="#5e5e5e"/><use xlink:href="#h" transform="matrix(37 0 0 -37 371.604 212.139)" fill="#5e5e5e"/><use xlink:href="#d" transform="matrix(37 0 0 -37 396.157 212.717)" fill="#5e5e5e"/><use xlink:href="#L" transform="matrix(37 0 0 -37 417.024 212.139)" fill="#5e5e5e"/><use xlink:href="#m" transform="matrix(37 0 0 -37 440.763 219.98)" fill="#5e5e5e"/><use xlink:href="#d" transform="matrix(37 0 0 -37 462.768 212.717)" fill="#5e5e5e"/><use xlink:href="#f" transform="matrix(37 0 0 -37 487.14 212.139)" fill="#5e5e5e"/><use xlink:href="#q" transform="matrix(37 0 0 -37 507.681 212.139)" fill="#5e5e5e"/><use xlink:href="#d" transform="matrix(37 0 0 -37 529.38 212.717)" fill="#5e5e5e"/><use xlink:href="#g" transform="matrix(37 0 0 -37 552.034 212.139)" fill="#5e5e5e"/><use xlink:href="#o" transform="matrix(37 0 0 -37 574.4 212.7)" fill="#5e5e5e"/><use xlink:href="#d" transform="matrix(37 0 0 -37 595.99 212.717)" fill="#5e5e5e"/><use xlink:href="#h" transform="matrix(37 0 0 -37 615.845 212.139)" fill="#5e5e5e"/><use xlink:href="#r" transform="matrix(37 0 0 -37 640.235 212.139)" fill="#5e5e5e"/><use xlink:href="#d" transform="matrix(37 0 0 -37 662.601 212.717)" fill="#5e5e5e"/><use xlink:href="#H" transform="matrix(37 0 0 -37 683.053 212.139)" fill="#5e5e5e"/><use xlink:href="#d" transform="matrix(37 0 0 -37 707.009 212.717)" fill="#5e5e5e"/><use xlink:href="#r" transform="matrix(37 0 0 -37 729.05 212.139)" fill="#5e5e5e"/><use xlink:href="#n" transform="matrix(37 0 0 -37 752.103 212.7)" fill="#5e5e5e"/><use xlink:href="#h" transform="matrix(37 0 0 -37 771.271 212.139)" fill="#5e5e5e"/><use xlink:href="#s" transform="matrix(37 0 0 -37 793.836 212.139)" fill="#5e5e5e"/><use xlink:href="#d" transform="matrix(37 0 0 -37 818.027 212.717)" fill="#5e5e5e"/><use xlink:href="#r" transform="matrix(37 0 0 -37 840.068 212.139)" fill="#5e5e5e"/><use xlink:href="#o" transform="matrix(37 0 0 -37 863.049 212.7)" fill="#5e5e5e"/><use xlink:href="#j" transform="matrix(37 0 0 -37 883.861 212.7)" fill="#5e5e5e"/><use xlink:href="#z" transform="matrix(37 0 0 -37 905.776 212.139)" fill="#5e5e5e"/><use xlink:href="#d" transform="matrix(37 0 0 -37 929.046 212.717)" fill="#5e5e5e"/><use xlink:href="#J" transform="matrix(37 0 0 -37 956.56 219.98)" fill="#5e5e5e"/><use xlink:href="#h" transform="matrix(37 0 0 -37 971.104 212.139)" fill="#5e5e5e"/><use xlink:href="#q" transform="matrix(37 0 0 -37 996.163 212.139)" fill="#5e5e5e"/><use xlink:href="#g" transform="matrix(37 0 0 -37 1018.312 212.139)" fill="#5e5e5e"/><use xlink:href="#o" transform="matrix(37 0 0 -37 1040.678 212.7)" fill="#5e5e5e"/><use xlink:href="#r" transform="matrix(37 0 0 -37 1062.105 212.139)" fill="#5e5e5e"/><use xlink:href="#k" transform="matrix(37 0 0 -37 1084.706 212.7)" fill="#5e5e5e"/><use xlink:href="#K" transform="matrix(37 0 0 -37 1106.386 212.7)" fill="#5e5e5e"/><use xlink:href="#q" transform="matrix(37 0 0 -37 1129.384 212.139)" fill="#5e5e5e"/><use xlink:href="#g" transform="matrix(37 0 0 -37 1151.534 212.139)" fill="#5e5e5e"/><use xlink:href="#R" transform="matrix(37 0 0 -37 1172.997 220.54)" fill="#5e5e5e"/><use xlink:href="#h" transform="matrix(37 0 0 -37 1193.141 212.139)" fill="#5e5e5e"/><use xlink:href="#i" transform="matrix(37 0 0 -37 1217.892 212.428)" fill="#5e5e5e"/><use xlink:href="#d" transform="matrix(37 0 0 -37 1239.897 212.717)" fill="#5e5e5e"/><use xlink:href="#R" transform="matrix(37 0 0 -37 1261.812 220.54)" fill="#5e5e5e"/><use xlink:href="#q" transform="matrix(37 0 0 -37 1284.81 212.139)" fill="#5e5e5e"/><use xlink:href="#g" transform="matrix(37 0 0 -37 1306.96 212.139)" fill="#5e5e5e"/><use xlink:href="#g" transform="matrix(37 0 0 -37 1329.163 212.139)" fill="#5e5e5e"/><use xlink:href="#d" transform="matrix(37 0 0 -37 1350.915 212.717)" fill="#5e5e5e"/><use xlink:href="#f" transform="matrix(37 0 0 -37 1375.287 212.139)" fill="#5e5e5e"/><use xlink:href="#h" transform="matrix(37 0 0 -37 1392.974 212.139)" fill="#5e5e5e"/><use xlink:href="#n" transform="matrix(37 0 0 -37 1418.213 212.7)" fill="#5e5e5e"/><use xlink:href="#l" transform="matrix(37 0 0 -37 1439.116 212.7)" fill="#5e5e5e"/><use xlink:href="#k" transform="matrix(37 0 0 -37 1462.169 212.7)" fill="#5e5e5e"/><use xlink:href="#K" transform="matrix(37 0 0 -37 1483.849 212.7)" fill="#5e5e5e"/><use xlink:href="#d" transform="matrix(37 0 0 -37 1506.342 212.717)" fill="#5e5e5e"/><use xlink:href="#g" transform="matrix(37 0 0 -37 1528.997 212.139)" fill="#5e5e5e"/><use xlink:href="#l" transform="matrix(37 0 0 -37 1550.135 212.7)" fill="#5e5e5e"/><use xlink:href="#n" transform="matrix(37 0 0 -37 1573.64 212.7)" fill="#5e5e5e"/><use xlink:href="#P" transform="matrix(37 0 0 -37 1600.956 212.988)" fill="#5e5e5e"/></g></g></svg>