<?xml version="1.0" encoding="UTF-8"?>
<svg xmlns="http://www.w3.org/2000/svg" xmlns:xlink="http://www.w3.org/1999/xlink" width="569.164" height="117.441" viewBox="0 0 569.164 117.441">
<defs>
<g>
<g id="glyph-0-0">
<path d="M 3.28125 -3.96875 C 3.734375 -3.96875 3.796875 -3.84375 3.796875 -3.4375 L 3.796875 -0.75 C 3.796875 -0.3125 3.6875 -0.3125 3.03125 -0.3125 L 3.03125 0 C 3.359375 -0.015625 3.875 -0.03125 4.125 -0.03125 C 4.375 -0.03125 4.859375 -0.015625 5.234375 0 L 5.234375 -0.3125 C 4.5625 -0.3125 4.453125 -0.3125 4.453125 -0.75 L 4.453125 -4.390625 L 3.203125 -4.3125 C 3.046875 -4.296875 3.03125 -4.28125 3.03125 -4.28125 C 3 -4.28125 2.984375 -4.28125 2.84375 -4.28125 L 1.671875 -4.28125 L 1.671875 -5.390625 C 1.671875 -6.375 2.53125 -6.78125 3.140625 -6.78125 C 3.4375 -6.78125 3.796875 -6.671875 4 -6.453125 C 3.59375 -6.421875 3.53125 -6.15625 3.53125 -6 C 3.53125 -5.671875 3.796875 -5.53125 3.984375 -5.53125 C 4.203125 -5.53125 4.4375 -5.6875 4.4375 -6 C 4.4375 -6.578125 3.890625 -7 3.15625 -7 C 2.234375 -7 1.046875 -6.484375 1.046875 -5.40625 L 1.046875 -4.28125 L 0.265625 -4.28125 L 0.265625 -3.96875 L 1.046875 -3.96875 L 1.046875 -0.75 C 1.046875 -0.3125 0.9375 -0.3125 0.28125 -0.3125 L 0.28125 0 C 0.609375 -0.015625 1.125 -0.03125 1.375 -0.03125 C 1.625 -0.03125 2.109375 -0.015625 2.484375 0 L 2.484375 -0.3125 C 1.8125 -0.3125 1.703125 -0.3125 1.703125 -0.75 L 1.703125 -3.96875 Z M 3.28125 -3.96875 "/>
</g>
<g id="glyph-0-1">
<path d="M 1.734375 -4.28125 L 1.734375 -5.421875 C 1.734375 -6.296875 2.21875 -6.78125 2.65625 -6.78125 C 2.671875 -6.78125 2.828125 -6.78125 2.96875 -6.703125 C 2.859375 -6.671875 2.671875 -6.53125 2.671875 -6.296875 C 2.671875 -6.0625 2.84375 -5.859375 3.109375 -5.859375 C 3.390625 -5.859375 3.546875 -6.0625 3.546875 -6.296875 C 3.546875 -6.671875 3.171875 -7 2.65625 -7 C 1.953125 -7 1.109375 -6.46875 1.109375 -5.421875 L 1.109375 -4.28125 L 0.328125 -4.28125 L 0.328125 -3.96875 L 1.109375 -3.96875 L 1.109375 -0.75 C 1.109375 -0.3125 1 -0.3125 0.34375 -0.3125 L 0.34375 0 C 0.71875 -0.015625 1.1875 -0.03125 1.46875 -0.03125 C 1.859375 -0.03125 2.328125 -0.03125 2.734375 0 L 2.734375 -0.3125 L 2.515625 -0.3125 C 1.78125 -0.3125 1.765625 -0.421875 1.765625 -0.78125 L 1.765625 -3.96875 L 2.890625 -3.96875 L 2.890625 -4.28125 Z M 1.734375 -4.28125 "/>
</g>
<g id="glyph-0-2">
<path d="M 4.671875 -2.125 C 4.671875 -3.390625 3.6875 -4.4375 2.484375 -4.4375 C 1.234375 -4.4375 0.28125 -3.359375 0.28125 -2.125 C 0.28125 -0.84375 1.3125 0.109375 2.46875 0.109375 C 3.671875 0.109375 4.671875 -0.859375 4.671875 -2.125 Z M 2.484375 -0.140625 C 2.046875 -0.140625 1.625 -0.34375 1.34375 -0.796875 C 1.09375 -1.234375 1.09375 -1.84375 1.09375 -2.203125 C 1.09375 -2.59375 1.09375 -3.125 1.34375 -3.5625 C 1.609375 -4.015625 2.078125 -4.234375 2.46875 -4.234375 C 2.90625 -4.234375 3.328125 -4.015625 3.59375 -3.578125 C 3.84375 -3.15625 3.84375 -2.578125 3.84375 -2.203125 C 3.84375 -1.84375 3.84375 -1.3125 3.625 -0.875 C 3.40625 -0.421875 2.96875 -0.140625 2.484375 -0.140625 Z M 2.484375 -0.140625 "/>
</g>
<g id="glyph-0-3">
<path d="M 2.0625 -1.921875 C 2.28125 -1.890625 3.09375 -1.71875 3.09375 -1.015625 C 3.09375 -0.5 2.75 -0.109375 1.96875 -0.109375 C 1.140625 -0.109375 0.78125 -0.671875 0.59375 -1.515625 C 0.5625 -1.640625 0.5625 -1.6875 0.453125 -1.6875 C 0.328125 -1.6875 0.328125 -1.625 0.328125 -1.4375 L 0.328125 -0.125 C 0.328125 0.046875 0.328125 0.109375 0.4375 0.109375 C 0.484375 0.109375 0.5 0.09375 0.6875 -0.09375 C 0.703125 -0.109375 0.703125 -0.125 0.890625 -0.3125 C 1.3125 0.09375 1.765625 0.109375 1.96875 0.109375 C 3.109375 0.109375 3.578125 -0.5625 3.578125 -1.265625 C 3.578125 -1.796875 3.28125 -2.09375 3.15625 -2.21875 C 2.828125 -2.53125 2.4375 -2.609375 2.03125 -2.6875 C 1.46875 -2.796875 0.796875 -2.921875 0.796875 -3.5 C 0.796875 -3.84375 1.0625 -4.25 1.921875 -4.25 C 3 -4.25 3.0625 -3.359375 3.078125 -3.0625 C 3.078125 -2.96875 3.171875 -2.96875 3.1875 -2.96875 C 3.328125 -2.96875 3.328125 -3.015625 3.328125 -3.203125 L 3.328125 -4.203125 C 3.328125 -4.375 3.328125 -4.4375 3.21875 -4.4375 C 3.171875 -4.4375 3.140625 -4.4375 3.015625 -4.328125 C 2.984375 -4.28125 2.890625 -4.203125 2.84375 -4.171875 C 2.46875 -4.4375 2.0625 -4.4375 1.921875 -4.4375 C 0.703125 -4.4375 0.328125 -3.78125 0.328125 -3.21875 C 0.328125 -2.875 0.484375 -2.59375 0.75 -2.375 C 1.078125 -2.125 1.34375 -2.0625 2.0625 -1.921875 Z M 2.0625 -1.921875 "/>
</g>
<g id="glyph-0-4">
<path d="M 4.125 -3.328125 C 4.375 -3.953125 4.875 -3.96875 5.046875 -3.96875 L 5.046875 -4.28125 C 4.8125 -4.25 4.53125 -4.25 4.296875 -4.25 C 4.125 -4.25 3.65625 -4.265625 3.4375 -4.28125 L 3.4375 -3.96875 C 3.734375 -3.953125 3.90625 -3.796875 3.90625 -3.546875 C 3.90625 -3.4375 3.890625 -3.421875 3.84375 -3.296875 L 2.84375 -0.859375 L 1.734375 -3.53125 C 1.703125 -3.625 1.671875 -3.671875 1.671875 -3.703125 C 1.671875 -3.96875 2.046875 -3.96875 2.234375 -3.96875 L 2.234375 -4.28125 C 1.96875 -4.265625 1.3125 -4.25 1.15625 -4.25 C 0.890625 -4.25 0.484375 -4.25 0.1875 -4.28125 L 0.1875 -3.96875 C 0.671875 -3.96875 0.859375 -3.96875 0.984375 -3.625 L 2.484375 0 C 2.4375 0.125 2.296875 0.453125 2.234375 0.578125 C 2.015625 1.125 1.734375 1.8125 1.09375 1.8125 C 1.046875 1.8125 0.828125 1.8125 0.640625 1.640625 C 0.9375 1.59375 1.015625 1.375 1.015625 1.21875 C 1.015625 0.96875 0.828125 0.796875 0.609375 0.796875 C 0.40625 0.796875 0.1875 0.9375 0.1875 1.234375 C 0.1875 1.671875 0.609375 2.03125 1.09375 2.03125 C 1.71875 2.03125 2.140625 1.46875 2.375 0.90625 Z M 4.125 -3.328125 "/>
</g>
<g id="glyph-0-5">
<path d="M 1.09375 -3.40625 L 1.09375 -0.75 C 1.09375 -0.3125 0.984375 -0.3125 0.3125 -0.3125 L 0.3125 0 C 0.671875 -0.015625 1.171875 -0.03125 1.4375 -0.03125 C 1.703125 -0.03125 2.21875 -0.015625 2.546875 0 L 2.546875 -0.3125 C 1.890625 -0.3125 1.78125 -0.3125 1.78125 -0.75 L 1.78125 -2.578125 C 1.78125 -3.609375 2.484375 -4.171875 3.109375 -4.171875 C 3.734375 -4.171875 3.84375 -3.625 3.84375 -3.0625 L 3.84375 -0.75 C 3.84375 -0.3125 3.734375 -0.3125 3.078125 -0.3125 L 3.078125 0 C 3.421875 -0.015625 3.921875 -0.03125 4.203125 -0.03125 C 4.453125 -0.03125 4.96875 -0.015625 5.3125 0 L 5.3125 -0.3125 C 4.796875 -0.3125 4.546875 -0.3125 4.53125 -0.609375 L 4.53125 -2.5 C 4.53125 -3.359375 4.53125 -3.65625 4.234375 -4.015625 C 4.09375 -4.1875 3.765625 -4.390625 3.1875 -4.390625 C 2.453125 -4.390625 2 -3.953125 1.71875 -3.34375 L 1.71875 -4.390625 L 0.3125 -4.28125 L 0.3125 -3.96875 C 1.015625 -3.96875 1.09375 -3.90625 1.09375 -3.40625 Z M 1.09375 -3.40625 "/>
</g>
<g id="glyph-0-6">
<path d="M 1.15625 -2.15625 C 1.15625 -3.78125 1.96875 -4.203125 2.5 -4.203125 C 2.59375 -4.203125 3.21875 -4.1875 3.5625 -3.828125 C 3.15625 -3.796875 3.09375 -3.5 3.09375 -3.375 C 3.09375 -3.109375 3.28125 -2.921875 3.546875 -2.921875 C 3.8125 -2.921875 4.015625 -3.078125 4.015625 -3.390625 C 4.015625 -4.0625 3.25 -4.4375 2.484375 -4.4375 C 1.25 -4.4375 0.34375 -3.375 0.34375 -2.140625 C 0.34375 -0.875 1.3125 0.109375 2.46875 0.109375 C 3.796875 0.109375 4.125 -1.078125 4.125 -1.1875 C 4.125 -1.28125 4.015625 -1.28125 3.984375 -1.28125 C 3.90625 -1.28125 3.875 -1.234375 3.859375 -1.1875 C 3.578125 -0.265625 2.921875 -0.140625 2.5625 -0.140625 C 2.03125 -0.140625 1.15625 -0.5625 1.15625 -2.15625 Z M 1.15625 -2.15625 "/>
</g>
<g id="glyph-0-7">
<path d="M 3.765625 -0.546875 L 3.765625 0.109375 L 5.234375 0 L 5.234375 -0.3125 C 4.53125 -0.3125 4.453125 -0.375 4.453125 -0.859375 L 4.453125 -6.890625 L 3.03125 -6.78125 L 3.03125 -6.46875 C 3.71875 -6.46875 3.796875 -6.40625 3.796875 -5.90625 L 3.796875 -3.765625 C 3.515625 -4.125 3.078125 -4.390625 2.546875 -4.390625 C 1.375 -4.390625 0.34375 -3.40625 0.34375 -2.140625 C 0.34375 -0.875 1.3125 0.109375 2.4375 0.109375 C 3.078125 0.109375 3.515625 -0.234375 3.765625 -0.546875 Z M 3.765625 -3.203125 L 3.765625 -1.171875 C 3.765625 -0.984375 3.765625 -0.96875 3.65625 -0.796875 C 3.359375 -0.328125 2.921875 -0.109375 2.484375 -0.109375 C 2.046875 -0.109375 1.6875 -0.359375 1.453125 -0.75 C 1.1875 -1.15625 1.15625 -1.71875 1.15625 -2.125 C 1.15625 -2.484375 1.1875 -3.078125 1.46875 -3.53125 C 1.671875 -3.84375 2.046875 -4.171875 2.59375 -4.171875 C 2.9375 -4.171875 3.359375 -4.015625 3.65625 -3.578125 C 3.765625 -3.40625 3.765625 -3.390625 3.765625 -3.203125 Z M 3.765625 -3.203125 "/>
</g>
<g id="glyph-0-8">
<path d="M 6.140625 -3.328125 C 6.3125 -3.828125 6.625 -3.953125 6.96875 -3.96875 L 6.96875 -4.28125 C 6.75 -4.25 6.46875 -4.25 6.25 -4.25 C 5.96875 -4.25 5.515625 -4.265625 5.328125 -4.28125 L 5.328125 -3.96875 C 5.6875 -3.953125 5.90625 -3.78125 5.90625 -3.5 C 5.90625 -3.4375 5.90625 -3.40625 5.859375 -3.28125 L 4.953125 -0.75 L 3.96875 -3.515625 C 3.921875 -3.625 3.921875 -3.65625 3.921875 -3.703125 C 3.921875 -3.96875 4.3125 -3.96875 4.5 -3.96875 L 4.5 -4.28125 C 4.21875 -4.265625 3.703125 -4.25 3.46875 -4.25 C 3.171875 -4.25 2.890625 -4.25 2.59375 -4.28125 L 2.59375 -3.96875 C 2.953125 -3.96875 3.109375 -3.953125 3.21875 -3.8125 C 3.265625 -3.765625 3.375 -3.46875 3.4375 -3.28125 L 2.59375 -0.875 L 1.640625 -3.515625 C 1.59375 -3.640625 1.59375 -3.65625 1.59375 -3.703125 C 1.59375 -3.96875 1.984375 -3.96875 2.1875 -3.96875 L 2.1875 -4.28125 C 1.890625 -4.265625 1.328125 -4.25 1.09375 -4.25 C 1.0625 -4.25 0.53125 -4.25 0.171875 -4.28125 L 0.171875 -3.96875 C 0.671875 -3.96875 0.796875 -3.9375 0.90625 -3.625 L 2.15625 -0.109375 C 2.21875 0.03125 2.25 0.109375 2.375 0.109375 C 2.5 0.109375 2.515625 0.046875 2.5625 -0.09375 L 3.578125 -2.890625 L 4.578125 -0.078125 C 4.625 0.03125 4.65625 0.109375 4.78125 0.109375 C 4.90625 0.109375 4.9375 0.015625 4.984375 -0.078125 Z M 6.140625 -3.328125 "/>
</g>
<g id="glyph-0-9">
<path d="M 4.125 -3.296875 C 4.21875 -3.53125 4.390625 -3.953125 5.046875 -3.96875 L 5.046875 -4.28125 C 4.8125 -4.25 4.53125 -4.25 4.296875 -4.25 C 4.0625 -4.25 3.609375 -4.265625 3.4375 -4.28125 L 3.4375 -3.96875 C 3.796875 -3.953125 3.90625 -3.734375 3.90625 -3.546875 C 3.90625 -3.453125 3.890625 -3.40625 3.84375 -3.296875 L 2.84375 -0.78125 L 1.71875 -3.546875 C 1.671875 -3.671875 1.671875 -3.6875 1.671875 -3.703125 C 1.671875 -3.96875 2.046875 -3.96875 2.234375 -3.96875 L 2.234375 -4.28125 C 1.9375 -4.265625 1.375 -4.25 1.15625 -4.25 C 0.890625 -4.25 0.484375 -4.25 0.1875 -4.28125 L 0.1875 -3.96875 C 0.8125 -3.96875 0.859375 -3.90625 0.984375 -3.609375 L 2.40625 -0.078125 C 2.46875 0.0625 2.484375 0.109375 2.625 0.109375 C 2.75 0.109375 2.78125 0.015625 2.828125 -0.078125 Z M 4.125 -3.296875 "/>
</g>
<g id="glyph-0-10">
<path d="M 1.109375 -2.5 C 1.171875 -3.984375 2 -4.234375 2.34375 -4.234375 C 3.359375 -4.234375 3.46875 -2.890625 3.46875 -2.5 Z M 1.09375 -2.296875 L 3.875 -2.296875 C 4.09375 -2.296875 4.125 -2.296875 4.125 -2.5 C 4.125 -3.484375 3.578125 -4.4375 2.34375 -4.4375 C 1.1875 -4.4375 0.28125 -3.421875 0.28125 -2.1875 C 0.28125 -0.859375 1.3125 0.109375 2.453125 0.109375 C 3.671875 0.109375 4.125 -0.984375 4.125 -1.1875 C 4.125 -1.28125 4.03125 -1.296875 3.984375 -1.296875 C 3.90625 -1.296875 3.875 -1.234375 3.859375 -1.15625 C 3.515625 -0.140625 2.625 -0.140625 2.515625 -0.140625 C 2.03125 -0.140625 1.625 -0.4375 1.40625 -0.796875 C 1.09375 -1.28125 1.09375 -1.9375 1.09375 -2.296875 Z M 1.09375 -2.296875 "/>
</g>
<g id="glyph-0-11">
<path d="M 1.65625 -3.296875 L 1.65625 -4.390625 L 0.28125 -4.28125 L 0.28125 -3.96875 C 0.96875 -3.96875 1.046875 -3.90625 1.046875 -3.40625 L 1.046875 -0.75 C 1.046875 -0.3125 0.9375 -0.3125 0.28125 -0.3125 L 0.28125 0 C 0.671875 -0.015625 1.125 -0.03125 1.40625 -0.03125 C 1.8125 -0.03125 2.265625 -0.03125 2.671875 0 L 2.671875 -0.3125 L 2.453125 -0.3125 C 1.71875 -0.3125 1.703125 -0.421875 1.703125 -0.78125 L 1.703125 -2.296875 C 1.703125 -3.28125 2.125 -4.171875 2.875 -4.171875 C 2.953125 -4.171875 2.96875 -4.171875 2.984375 -4.15625 C 2.953125 -4.140625 2.765625 -4.03125 2.765625 -3.765625 C 2.765625 -3.5 2.96875 -3.34375 3.1875 -3.34375 C 3.359375 -3.34375 3.609375 -3.46875 3.609375 -3.78125 C 3.609375 -4.09375 3.296875 -4.390625 2.875 -4.390625 C 2.15625 -4.390625 1.796875 -3.71875 1.65625 -3.296875 Z M 1.65625 -3.296875 "/>
</g>
<g id="glyph-0-12">
<path d="M 1.75 -4.390625 L 0.359375 -4.28125 L 0.359375 -3.96875 C 1.015625 -3.96875 1.09375 -3.90625 1.09375 -3.421875 L 1.09375 -0.75 C 1.09375 -0.3125 0.984375 -0.3125 0.328125 -0.3125 L 0.328125 0 C 0.640625 -0.015625 1.1875 -0.03125 1.421875 -0.03125 C 1.765625 -0.03125 2.109375 -0.015625 2.453125 0 L 2.453125 -0.3125 C 1.796875 -0.3125 1.75 -0.359375 1.75 -0.75 Z M 1.796875 -6.109375 C 1.796875 -6.421875 1.546875 -6.640625 1.265625 -6.640625 C 0.96875 -6.640625 0.75 -6.375 0.75 -6.109375 C 0.75 -5.84375 0.96875 -5.59375 1.265625 -5.59375 C 1.546875 -5.59375 1.796875 -5.796875 1.796875 -6.109375 Z M 1.796875 -6.109375 "/>
</g>
<g id="glyph-0-13">
<path d="M 3.28125 2.375 C 3.28125 2.34375 3.28125 2.328125 3.109375 2.15625 C 1.875 0.90625 1.5625 -0.96875 1.5625 -2.484375 C 1.5625 -4.203125 1.9375 -5.9375 3.15625 -7.171875 C 3.28125 -7.296875 3.28125 -7.3125 3.28125 -7.34375 C 3.28125 -7.40625 3.25 -7.4375 3.1875 -7.4375 C 3.078125 -7.4375 2.1875 -6.765625 1.609375 -5.5 C 1.09375 -4.421875 0.984375 -3.3125 0.984375 -2.484375 C 0.984375 -1.703125 1.09375 -0.5 1.640625 0.609375 C 2.234375 1.828125 3.078125 2.484375 3.1875 2.484375 C 3.25 2.484375 3.28125 2.453125 3.28125 2.375 Z M 3.28125 2.375 "/>
</g>
<g id="glyph-0-14">
<path d="M 0.34375 -6.78125 L 0.34375 -6.46875 L 0.578125 -6.46875 C 1.34375 -6.46875 1.375 -6.359375 1.375 -6 L 1.375 -0.78125 C 1.375 -0.421875 1.34375 -0.3125 0.578125 -0.3125 L 0.34375 -0.3125 L 0.34375 0 L 3.984375 0 C 5.640625 0 7.015625 -1.46875 7.015625 -3.328125 C 7.015625 -5.21875 5.671875 -6.78125 3.984375 -6.78125 Z M 2.703125 -0.3125 C 2.25 -0.3125 2.21875 -0.375 2.21875 -0.703125 L 2.21875 -6.078125 C 2.21875 -6.40625 2.25 -6.46875 2.703125 -6.46875 L 3.703125 -6.46875 C 4.3125 -6.46875 5 -6.25 5.5 -5.546875 C 5.9375 -4.953125 6.015625 -4.109375 6.015625 -3.328125 C 6.015625 -2.234375 5.828125 -1.640625 5.484375 -1.15625 C 5.28125 -0.890625 4.71875 -0.3125 3.703125 -0.3125 Z M 2.703125 -0.3125 "/>
</g>
<g id="glyph-0-15">
<path d="M 3.46875 -3.84375 L 2.1875 -4.15625 C 1.578125 -4.3125 1.1875 -4.84375 1.1875 -5.421875 C 1.1875 -6.109375 1.71875 -6.71875 2.5 -6.71875 C 4.15625 -6.71875 4.375 -5.09375 4.4375 -4.640625 C 4.4375 -4.578125 4.4375 -4.53125 4.546875 -4.53125 C 4.6875 -4.53125 4.6875 -4.578125 4.6875 -4.765625 L 4.6875 -6.75 C 4.6875 -6.921875 4.6875 -7 4.578125 -7 C 4.5 -7 4.5 -6.984375 4.421875 -6.859375 L 4.078125 -6.296875 C 3.78125 -6.59375 3.375 -7 2.484375 -7 C 1.390625 -7 0.5625 -6.125 0.5625 -5.0625 C 0.5625 -4.25 1.078125 -3.515625 1.859375 -3.25 C 1.96875 -3.21875 2.46875 -3.09375 3.171875 -2.921875 C 3.4375 -2.859375 3.734375 -2.78125 4.015625 -2.421875 C 4.21875 -2.15625 4.3125 -1.828125 4.3125 -1.515625 C 4.3125 -0.796875 3.8125 -0.09375 2.984375 -0.09375 C 2.703125 -0.09375 1.9375 -0.140625 1.421875 -0.625 C 0.84375 -1.15625 0.8125 -1.796875 0.796875 -2.15625 C 0.796875 -2.25 0.71875 -2.25 0.6875 -2.25 C 0.5625 -2.25 0.5625 -2.1875 0.5625 -2 L 0.5625 -0.015625 C 0.5625 0.15625 0.5625 0.21875 0.671875 0.21875 C 0.734375 0.21875 0.75 0.203125 0.8125 0.09375 C 0.8125 0.078125 0.84375 0.046875 1.171875 -0.46875 C 1.484375 -0.140625 2.109375 0.21875 3 0.21875 C 4.15625 0.21875 4.953125 -0.75 4.953125 -1.84375 C 4.953125 -2.84375 4.296875 -3.65625 3.46875 -3.84375 Z M 3.46875 -3.84375 "/>
</g>
<g id="glyph-0-16">
<path d="M 1.09375 -3.40625 L 1.09375 -0.75 C 1.09375 -0.3125 0.984375 -0.3125 0.3125 -0.3125 L 0.3125 0 C 0.671875 -0.015625 1.171875 -0.03125 1.4375 -0.03125 C 1.703125 -0.03125 2.21875 -0.015625 2.546875 0 L 2.546875 -0.3125 C 1.890625 -0.3125 1.78125 -0.3125 1.78125 -0.75 L 1.78125 -2.578125 C 1.78125 -3.609375 2.484375 -4.171875 3.109375 -4.171875 C 3.734375 -4.171875 3.84375 -3.625 3.84375 -3.0625 L 3.84375 -0.75 C 3.84375 -0.3125 3.734375 -0.3125 3.078125 -0.3125 L 3.078125 0 C 3.421875 -0.015625 3.921875 -0.03125 4.203125 -0.03125 C 4.453125 -0.03125 4.96875 -0.015625 5.3125 0 L 5.3125 -0.3125 C 4.640625 -0.3125 4.53125 -0.3125 4.53125 -0.75 L 4.53125 -2.578125 C 4.53125 -3.609375 5.234375 -4.171875 5.875 -4.171875 C 6.5 -4.171875 6.609375 -3.625 6.609375 -3.0625 L 6.609375 -0.75 C 6.609375 -0.3125 6.5 -0.3125 5.828125 -0.3125 L 5.828125 0 C 6.1875 -0.015625 6.6875 -0.03125 6.953125 -0.03125 C 7.21875 -0.03125 7.734375 -0.015625 8.0625 0 L 8.0625 -0.3125 C 7.546875 -0.3125 7.296875 -0.3125 7.296875 -0.609375 L 7.296875 -2.5 C 7.296875 -3.359375 7.296875 -3.65625 6.984375 -4.015625 C 6.84375 -4.1875 6.515625 -4.390625 5.9375 -4.390625 C 5.109375 -4.390625 4.671875 -3.796875 4.5 -3.40625 C 4.359375 -4.28125 3.625 -4.390625 3.1875 -4.390625 C 2.453125 -4.390625 2 -3.953125 1.71875 -3.34375 L 1.71875 -4.390625 L 0.3125 -4.28125 L 0.3125 -3.96875 C 1.015625 -3.96875 1.09375 -3.90625 1.09375 -3.40625 Z M 1.09375 -3.40625 "/>
</g>
<g id="glyph-0-17">
<path d="M 2.84375 -2.328125 C 3.140625 -2.703125 3.515625 -3.1875 3.765625 -3.453125 C 4.0625 -3.8125 4.46875 -3.953125 4.9375 -3.96875 L 4.9375 -4.28125 C 4.6875 -4.25 4.390625 -4.25 4.125 -4.25 C 3.828125 -4.25 3.296875 -4.265625 3.171875 -4.28125 L 3.171875 -3.96875 C 3.390625 -3.953125 3.46875 -3.8125 3.46875 -3.65625 C 3.46875 -3.5 3.359375 -3.375 3.3125 -3.3125 L 2.703125 -2.546875 L 1.921875 -3.546875 C 1.828125 -3.640625 1.828125 -3.65625 1.828125 -3.71875 C 1.828125 -3.875 1.984375 -3.953125 2.1875 -3.96875 L 2.1875 -4.28125 C 1.921875 -4.265625 1.265625 -4.25 1.109375 -4.25 C 0.90625 -4.25 0.4375 -4.25 0.171875 -4.28125 L 0.171875 -3.96875 C 0.859375 -3.96875 0.875 -3.953125 1.34375 -3.359375 L 2.328125 -2.078125 L 1.390625 -0.90625 C 0.90625 -0.328125 0.328125 -0.3125 0.125 -0.3125 L 0.125 0 C 0.375 -0.015625 0.6875 -0.03125 0.9375 -0.03125 C 1.234375 -0.03125 1.640625 -0.015625 1.890625 0 L 1.890625 -0.3125 C 1.671875 -0.34375 1.59375 -0.46875 1.59375 -0.609375 C 1.59375 -0.828125 1.890625 -1.15625 2.484375 -1.875 L 3.25 -0.890625 C 3.328125 -0.78125 3.453125 -0.609375 3.453125 -0.5625 C 3.453125 -0.46875 3.359375 -0.3125 3.09375 -0.3125 L 3.09375 0 C 3.390625 -0.015625 3.953125 -0.03125 4.171875 -0.03125 C 4.4375 -0.03125 4.828125 -0.015625 5.125 0 L 5.125 -0.3125 C 4.578125 -0.3125 4.40625 -0.328125 4.171875 -0.609375 Z M 2.84375 -2.328125 "/>
</g>
<g id="glyph-0-18">
<path d="M 1.625 -4.53125 C 1.15625 -4.828125 1.125 -5.171875 1.125 -5.34375 C 1.125 -5.9375 1.765625 -6.359375 2.46875 -6.359375 C 3.1875 -6.359375 3.828125 -5.84375 3.828125 -5.125 C 3.828125 -4.5625 3.4375 -4.09375 2.84375 -3.734375 Z M 3.0625 -3.59375 C 3.78125 -3.953125 4.265625 -4.46875 4.265625 -5.125 C 4.265625 -6.046875 3.390625 -6.609375 2.484375 -6.609375 C 1.484375 -6.609375 0.6875 -5.875 0.6875 -4.953125 C 0.6875 -4.765625 0.703125 -4.328125 1.125 -3.859375 C 1.234375 -3.734375 1.59375 -3.5 1.84375 -3.328125 C 1.265625 -3.03125 0.421875 -2.484375 0.421875 -1.5 C 0.421875 -0.453125 1.421875 0.21875 2.46875 0.21875 C 3.59375 0.21875 4.53125 -0.609375 4.53125 -1.671875 C 4.53125 -2.03125 4.421875 -2.46875 4.046875 -2.890625 C 3.859375 -3.09375 3.703125 -3.1875 3.0625 -3.59375 Z M 2.078125 -3.171875 L 3.296875 -2.40625 C 3.578125 -2.21875 4.03125 -1.921875 4.03125 -1.3125 C 4.03125 -0.578125 3.296875 -0.0625 2.484375 -0.0625 C 1.625 -0.0625 0.90625 -0.671875 0.90625 -1.5 C 0.90625 -2.078125 1.234375 -2.703125 2.078125 -3.171875 Z M 2.078125 -3.171875 "/>
</g>
<g id="glyph-0-19">
<path d="M 2.875 -2.484375 C 2.875 -3.25 2.765625 -4.453125 2.21875 -5.578125 C 1.625 -6.796875 0.765625 -7.4375 0.671875 -7.4375 C 0.609375 -7.4375 0.5625 -7.40625 0.5625 -7.34375 C 0.5625 -7.3125 0.5625 -7.296875 0.75 -7.109375 C 1.71875 -6.125 2.296875 -4.546875 2.296875 -2.484375 C 2.296875 -0.78125 1.921875 0.96875 0.6875 2.21875 C 0.5625 2.328125 0.5625 2.34375 0.5625 2.375 C 0.5625 2.4375 0.609375 2.484375 0.671875 2.484375 C 0.765625 2.484375 1.65625 1.8125 2.25 0.546875 C 2.75 -0.546875 2.875 -1.640625 2.875 -2.484375 Z M 2.875 -2.484375 "/>
</g>
<g id="glyph-0-20">
<path d="M 4.5625 -3.171875 C 4.5625 -3.96875 4.515625 -4.765625 4.171875 -5.5 C 3.703125 -6.453125 2.890625 -6.609375 2.484375 -6.609375 C 1.890625 -6.609375 1.15625 -6.34375 0.75 -5.421875 C 0.4375 -4.75 0.390625 -3.96875 0.390625 -3.171875 C 0.390625 -2.4375 0.421875 -1.53125 0.828125 -0.78125 C 1.265625 0.015625 1.984375 0.21875 2.46875 0.21875 C 3 0.21875 3.765625 0.015625 4.203125 -0.9375 C 4.515625 -1.625 4.5625 -2.390625 4.5625 -3.171875 Z M 2.46875 0 C 2.078125 0 1.5 -0.25 1.3125 -1.203125 C 1.203125 -1.796875 1.203125 -2.703125 1.203125 -3.296875 C 1.203125 -3.921875 1.203125 -4.578125 1.296875 -5.125 C 1.484375 -6.296875 2.21875 -6.390625 2.46875 -6.390625 C 2.796875 -6.390625 3.453125 -6.21875 3.640625 -5.234375 C 3.734375 -4.671875 3.734375 -3.921875 3.734375 -3.296875 C 3.734375 -2.546875 3.734375 -1.875 3.625 -1.234375 C 3.484375 -0.296875 2.921875 0 2.46875 0 Z M 2.46875 0 "/>
</g>
<g id="glyph-0-21">
<path d="M 3.953125 -6.90625 C 3.90625 -7.03125 3.875 -7.109375 3.71875 -7.109375 C 3.5625 -7.109375 3.53125 -7.046875 3.484375 -6.90625 L 1.421875 -0.96875 C 1.25 -0.46875 0.859375 -0.3125 0.3125 -0.3125 L 0.3125 0 C 0.546875 -0.015625 0.96875 -0.03125 1.328125 -0.03125 C 1.640625 -0.03125 2.15625 -0.015625 2.46875 0 L 2.46875 -0.3125 C 1.96875 -0.3125 1.71875 -0.5625 1.71875 -0.8125 C 1.71875 -0.84375 1.734375 -0.9375 1.75 -0.96875 L 2.203125 -2.265625 L 4.65625 -2.265625 L 5.171875 -0.75 C 5.1875 -0.703125 5.203125 -0.640625 5.203125 -0.609375 C 5.203125 -0.3125 4.65625 -0.3125 4.390625 -0.3125 L 4.390625 0 C 4.75 -0.03125 5.4375 -0.03125 5.8125 -0.03125 C 6.234375 -0.03125 6.703125 -0.015625 7.109375 0 L 7.109375 -0.3125 L 6.9375 -0.3125 C 6.34375 -0.3125 6.203125 -0.375 6.09375 -0.703125 Z M 3.421875 -5.796875 L 4.546875 -2.5625 L 2.3125 -2.5625 Z M 3.421875 -5.796875 "/>
</g>
<g id="glyph-0-22">
<path d="M 3.984375 -3.828125 L 5.34375 -5.828125 C 5.5625 -6.140625 5.90625 -6.453125 6.78125 -6.46875 L 6.78125 -6.78125 C 6.40625 -6.765625 5.9375 -6.75 5.6875 -6.75 C 5.28125 -6.75 4.8125 -6.75 4.421875 -6.78125 L 4.421875 -6.46875 C 4.8125 -6.453125 5.03125 -6.234375 5.03125 -6.015625 C 5.03125 -5.90625 5.015625 -5.890625 4.9375 -5.78125 L 3.8125 -4.109375 L 2.53125 -6.015625 C 2.515625 -6.046875 2.453125 -6.125 2.453125 -6.171875 C 2.453125 -6.296875 2.671875 -6.453125 3.109375 -6.46875 L 3.109375 -6.78125 C 2.765625 -6.75 2.03125 -6.75 1.65625 -6.75 C 1.34375 -6.75 0.734375 -6.75 0.359375 -6.78125 L 0.359375 -6.46875 L 0.5625 -6.46875 C 1.09375 -6.46875 1.296875 -6.40625 1.484375 -6.125 L 3.296875 -3.359375 L 1.671875 -0.96875 C 1.53125 -0.765625 1.234375 -0.3125 0.234375 -0.3125 L 0.234375 0 C 0.59375 -0.015625 1.015625 -0.03125 1.34375 -0.03125 C 1.703125 -0.03125 2.25 -0.03125 2.609375 0 L 2.609375 -0.3125 C 2.15625 -0.3125 1.984375 -0.578125 1.984375 -0.765625 C 1.984375 -0.859375 2.015625 -0.890625 2.078125 -1 L 3.5 -3.078125 L 5.0625 -0.71875 C 5.078125 -0.671875 5.109375 -0.640625 5.109375 -0.609375 C 5.109375 -0.484375 4.890625 -0.3125 4.46875 -0.3125 L 4.46875 0 C 4.8125 -0.03125 5.53125 -0.03125 5.90625 -0.03125 C 6.328125 -0.03125 6.78125 -0.015625 7.203125 0 L 7.203125 -0.3125 L 7.015625 -0.3125 C 6.5 -0.3125 6.296875 -0.359375 6.078125 -0.671875 Z M 3.984375 -3.828125 "/>
</g>
<g id="glyph-0-23">
<path d="M 2.234375 -6 C 2.234375 -6.359375 2.265625 -6.46875 3.046875 -6.46875 L 3.296875 -6.46875 L 3.296875 -6.78125 C 2.953125 -6.75 2.171875 -6.75 1.796875 -6.75 C 1.40625 -6.75 0.625 -6.75 0.28125 -6.78125 L 0.28125 -6.46875 L 0.53125 -6.46875 C 1.3125 -6.46875 1.34375 -6.359375 1.34375 -6 L 1.34375 -0.78125 C 1.34375 -0.421875 1.3125 -0.3125 0.53125 -0.3125 L 0.28125 -0.3125 L 0.28125 0 C 0.625 -0.03125 1.40625 -0.03125 1.78125 -0.03125 C 2.171875 -0.03125 2.953125 -0.03125 3.296875 0 L 3.296875 -0.3125 L 3.046875 -0.3125 C 2.265625 -0.3125 2.234375 -0.421875 2.234375 -0.78125 Z M 2.234375 -6 "/>
</g>
<g id="glyph-0-24">
<path d="M 2.203125 -1.703125 C 1.34375 -1.703125 1.34375 -2.703125 1.34375 -2.921875 C 1.34375 -3.1875 1.34375 -3.515625 1.5 -3.765625 C 1.578125 -3.875 1.8125 -4.15625 2.203125 -4.15625 C 3.0625 -4.15625 3.0625 -3.171875 3.0625 -2.9375 C 3.0625 -2.671875 3.0625 -2.34375 2.90625 -2.109375 C 2.828125 -1.984375 2.59375 -1.703125 2.203125 -1.703125 Z M 1.046875 -1.3125 C 1.046875 -1.359375 1.046875 -1.59375 1.21875 -1.78125 C 1.609375 -1.515625 2.015625 -1.484375 2.203125 -1.484375 C 3.125 -1.484375 3.8125 -2.15625 3.8125 -2.921875 C 3.8125 -3.296875 3.65625 -3.65625 3.40625 -3.890625 C 3.765625 -4.234375 4.125 -4.28125 4.296875 -4.28125 C 4.3125 -4.28125 4.359375 -4.28125 4.390625 -4.265625 C 4.28125 -4.234375 4.234375 -4.125 4.234375 -4 C 4.234375 -3.828125 4.359375 -3.703125 4.53125 -3.703125 C 4.625 -3.703125 4.8125 -3.78125 4.8125 -4.015625 C 4.8125 -4.171875 4.6875 -4.5 4.3125 -4.5 C 4.109375 -4.5 3.671875 -4.4375 3.25 -4.03125 C 2.84375 -4.359375 2.421875 -4.390625 2.203125 -4.390625 C 1.28125 -4.390625 0.59375 -3.703125 0.59375 -2.9375 C 0.59375 -2.5 0.8125 -2.125 1.0625 -1.921875 C 0.9375 -1.765625 0.75 -1.4375 0.75 -1.09375 C 0.75 -0.78125 0.890625 -0.40625 1.1875 -0.203125 C 0.59375 -0.046875 0.28125 0.390625 0.28125 0.78125 C 0.28125 1.5 1.265625 2.046875 2.46875 2.046875 C 3.640625 2.046875 4.671875 1.53125 4.671875 0.765625 C 4.671875 0.421875 4.53125 -0.09375 4.03125 -0.359375 C 3.5 -0.640625 2.921875 -0.640625 2.328125 -0.640625 C 2.078125 -0.640625 1.640625 -0.640625 1.578125 -0.65625 C 1.265625 -0.6875 1.046875 -1 1.046875 -1.3125 Z M 2.484375 1.8125 C 1.484375 1.8125 0.796875 1.3125 0.796875 0.78125 C 0.796875 0.328125 1.171875 -0.046875 1.609375 -0.0625 L 2.1875 -0.0625 C 3.046875 -0.0625 4.15625 -0.0625 4.15625 0.78125 C 4.15625 1.3125 3.453125 1.8125 2.484375 1.8125 Z M 2.484375 1.8125 "/>
</g>
<g id="glyph-0-25">
<path d="M 2.015625 -0.015625 C 2.015625 -0.640625 1.78125 -1.046875 1.375 -1.046875 C 1.03125 -1.046875 0.859375 -0.78125 0.859375 -0.53125 C 0.859375 -0.265625 1.015625 0 1.375 0 C 1.53125 0 1.65625 -0.0625 1.75 -0.140625 L 1.78125 -0.15625 C 1.78125 -0.15625 1.796875 -0.15625 1.796875 -0.015625 C 1.796875 0.625 1.515625 1.234375 1.078125 1.703125 C 1.015625 1.75 1.015625 1.765625 1.015625 1.8125 C 1.015625 1.875 1.0625 1.921875 1.109375 1.921875 C 1.234375 1.921875 2.015625 1.125 2.015625 -0.015625 Z M 2.015625 -0.015625 "/>
</g>
<g id="glyph-0-26">
<path d="M 1.71875 -3.96875 L 3.140625 -3.96875 L 3.140625 -4.28125 L 1.71875 -4.28125 L 1.71875 -6.109375 L 1.46875 -6.109375 C 1.453125 -5.28125 1.15625 -4.234375 0.1875 -4.1875 L 0.1875 -3.96875 L 1.03125 -3.96875 L 1.03125 -1.234375 C 1.03125 -0.015625 1.953125 0.109375 2.3125 0.109375 C 3.015625 0.109375 3.296875 -0.59375 3.296875 -1.234375 L 3.296875 -1.796875 L 3.046875 -1.796875 L 3.046875 -1.25 C 3.046875 -0.515625 2.75 -0.140625 2.375 -0.140625 C 1.71875 -0.140625 1.71875 -1.046875 1.71875 -1.203125 Z M 1.71875 -3.96875 "/>
</g>
<g id="glyph-0-27">
<path d="M 2.25 -3.140625 L 3.921875 -3.140625 C 5.125 -3.140625 6.1875 -3.9375 6.1875 -4.9375 C 6.1875 -5.90625 5.203125 -6.78125 3.84375 -6.78125 L 0.34375 -6.78125 L 0.34375 -6.46875 L 0.578125 -6.46875 C 1.34375 -6.46875 1.375 -6.359375 1.375 -6 L 1.375 -0.78125 C 1.375 -0.421875 1.34375 -0.3125 0.578125 -0.3125 L 0.34375 -0.3125 L 0.34375 0 C 0.6875 -0.03125 1.421875 -0.03125 1.8125 -0.03125 C 2.1875 -0.03125 2.921875 -0.03125 3.28125 0 L 3.28125 -0.3125 L 3.03125 -0.3125 C 2.265625 -0.3125 2.25 -0.421875 2.25 -0.78125 Z M 2.21875 -3.390625 L 2.21875 -6.078125 C 2.21875 -6.40625 2.25 -6.46875 2.703125 -6.46875 L 3.59375 -6.46875 C 5.171875 -6.46875 5.171875 -5.421875 5.171875 -4.9375 C 5.171875 -4.46875 5.171875 -3.390625 3.59375 -3.390625 Z M 2.21875 -3.390625 "/>
</g>
<g id="glyph-0-28">
<path d="M 2.921875 -6.34375 C 2.921875 -6.59375 2.921875 -6.609375 2.6875 -6.609375 C 2.078125 -5.96875 1.203125 -5.96875 0.890625 -5.96875 L 0.890625 -5.671875 C 1.078125 -5.671875 1.671875 -5.671875 2.1875 -5.921875 L 2.1875 -0.78125 C 2.1875 -0.421875 2.15625 -0.3125 1.265625 -0.3125 L 0.9375 -0.3125 L 0.9375 0 C 1.296875 -0.03125 2.15625 -0.03125 2.546875 -0.03125 C 2.953125 -0.03125 3.8125 -0.03125 4.15625 0 L 4.15625 -0.3125 L 3.84375 -0.3125 C 2.953125 -0.3125 2.921875 -0.421875 2.921875 -0.78125 Z M 2.921875 -6.34375 "/>
</g>
<g id="glyph-0-29">
<path d="M 0.5625 -3.390625 C 0.5625 -1.34375 2.15625 0.21875 4.015625 0.21875 C 5.625 0.21875 6.59375 -1.15625 6.59375 -2.3125 C 6.59375 -2.40625 6.59375 -2.484375 6.46875 -2.484375 C 6.359375 -2.484375 6.359375 -2.421875 6.34375 -2.328125 C 6.265625 -0.90625 5.203125 -0.09375 4.125 -0.09375 C 3.515625 -0.09375 1.578125 -0.421875 1.578125 -3.390625 C 1.578125 -6.34375 3.515625 -6.6875 4.125 -6.6875 C 5.203125 -6.6875 6.078125 -5.78125 6.28125 -4.328125 C 6.296875 -4.203125 6.296875 -4.171875 6.4375 -4.171875 C 6.59375 -4.171875 6.59375 -4.203125 6.59375 -4.40625 L 6.59375 -6.75 C 6.59375 -6.921875 6.59375 -7 6.484375 -7 C 6.453125 -7 6.40625 -7 6.328125 -6.875 L 5.828125 -6.140625 C 5.46875 -6.5 4.953125 -7 4.015625 -7 C 2.15625 -7 0.5625 -5.421875 0.5625 -3.390625 Z M 0.5625 -3.390625 "/>
</g>
<g id="glyph-0-30">
<path d="M 3.296875 -0.75 C 3.34375 -0.359375 3.609375 0.0625 4.078125 0.0625 C 4.28125 0.0625 4.890625 -0.078125 4.890625 -0.890625 L 4.890625 -1.4375 L 4.640625 -1.4375 L 4.640625 -0.890625 C 4.640625 -0.3125 4.390625 -0.25 4.28125 -0.25 C 3.953125 -0.25 3.921875 -0.6875 3.921875 -0.75 L 3.921875 -2.734375 C 3.921875 -3.140625 3.921875 -3.53125 3.5625 -3.90625 C 3.171875 -4.28125 2.671875 -4.4375 2.203125 -4.4375 C 1.390625 -4.4375 0.703125 -3.984375 0.703125 -3.328125 C 0.703125 -3.03125 0.90625 -2.859375 1.15625 -2.859375 C 1.4375 -2.859375 1.625 -3.0625 1.625 -3.3125 C 1.625 -3.4375 1.5625 -3.765625 1.109375 -3.765625 C 1.375 -4.125 1.859375 -4.234375 2.1875 -4.234375 C 2.671875 -4.234375 3.234375 -3.84375 3.234375 -2.953125 L 3.234375 -2.59375 C 2.734375 -2.5625 2.03125 -2.53125 1.40625 -2.234375 C 0.671875 -1.890625 0.421875 -1.375 0.421875 -0.9375 C 0.421875 -0.140625 1.375 0.109375 2 0.109375 C 2.65625 0.109375 3.109375 -0.28125 3.296875 -0.75 Z M 3.234375 -2.375 L 3.234375 -1.390625 C 3.234375 -0.453125 2.515625 -0.109375 2.078125 -0.109375 C 1.59375 -0.109375 1.1875 -0.453125 1.1875 -0.953125 C 1.1875 -1.5 1.59375 -2.328125 3.234375 -2.375 Z M 3.234375 -2.375 "/>
</g>
<g id="glyph-0-31">
<path d="M 1.703125 -3.734375 L 1.703125 -4.390625 L 0.28125 -4.28125 L 0.28125 -3.96875 C 0.984375 -3.96875 1.046875 -3.90625 1.046875 -3.46875 L 1.046875 1.171875 C 1.046875 1.625 0.9375 1.625 0.28125 1.625 L 0.28125 1.921875 C 0.609375 1.921875 1.125 1.890625 1.390625 1.890625 C 1.65625 1.890625 2.15625 1.921875 2.515625 1.921875 L 2.515625 1.625 C 1.84375 1.625 1.734375 1.625 1.734375 1.171875 L 1.734375 -0.578125 C 1.78125 -0.421875 2.203125 0.109375 2.953125 0.109375 C 4.140625 0.109375 5.171875 -0.859375 5.171875 -2.140625 C 5.171875 -3.40625 4.203125 -4.390625 3.09375 -4.390625 C 2.328125 -4.390625 1.90625 -3.953125 1.703125 -3.734375 Z M 1.734375 -1.125 L 1.734375 -3.34375 C 2.03125 -3.84375 2.515625 -4.140625 3.015625 -4.140625 C 3.734375 -4.140625 4.34375 -3.265625 4.34375 -2.140625 C 4.34375 -0.9375 3.65625 -0.109375 2.921875 -0.109375 C 2.515625 -0.109375 2.140625 -0.3125 1.875 -0.71875 C 1.734375 -0.921875 1.734375 -0.9375 1.734375 -1.125 Z M 1.734375 -1.125 "/>
</g>
<g id="glyph-0-32">
<path d="M 4.34375 -7.0625 C 4.390625 -7.1875 4.390625 -7.21875 4.390625 -7.25 C 4.390625 -7.359375 4.3125 -7.4375 4.203125 -7.4375 C 4.0625 -7.4375 4.015625 -7.34375 3.984375 -7.25 L 0.609375 2.109375 C 0.5625 2.234375 0.5625 2.265625 0.5625 2.28125 C 0.5625 2.390625 0.640625 2.484375 0.75 2.484375 C 0.890625 2.484375 0.9375 2.375 0.96875 2.28125 Z M 4.34375 -7.0625 "/>
</g>
<g id="glyph-0-33">
<path d="M 1.75 -6.890625 L 0.328125 -6.78125 L 0.328125 -6.46875 C 1.015625 -6.46875 1.09375 -6.40625 1.09375 -5.90625 L 1.09375 -0.75 C 1.09375 -0.3125 0.984375 -0.3125 0.328125 -0.3125 L 0.328125 0 C 0.65625 -0.015625 1.1875 -0.03125 1.421875 -0.03125 C 1.671875 -0.03125 2.15625 -0.015625 2.53125 0 L 2.53125 -0.3125 C 1.859375 -0.3125 1.75 -0.3125 1.75 -0.75 Z M 1.75 -6.890625 "/>
</g>
<g id="glyph-0-34">
<path d="M 1.046875 -0.75 C 1.046875 -0.3125 0.9375 -0.3125 0.28125 -0.3125 L 0.28125 0 C 0.609375 -0.015625 1.078125 -0.03125 1.359375 -0.03125 C 1.65625 -0.03125 2.046875 -0.015625 2.453125 0 L 2.453125 -0.3125 C 1.78125 -0.3125 1.671875 -0.3125 1.671875 -0.75 L 1.671875 -1.78125 L 2.3125 -2.328125 C 3.078125 -1.265625 3.5 -0.71875 3.5 -0.53125 C 3.5 -0.34375 3.328125 -0.3125 3.140625 -0.3125 L 3.140625 0 C 3.40625 -0.015625 4 -0.03125 4.203125 -0.03125 C 4.5 -0.03125 4.78125 -0.015625 5.0625 0 L 5.0625 -0.3125 C 4.703125 -0.3125 4.484375 -0.3125 4.109375 -0.828125 L 2.84375 -2.609375 C 2.84375 -2.625 2.78125 -2.6875 2.78125 -2.71875 C 2.78125 -2.765625 3.5 -3.359375 3.59375 -3.4375 C 4.21875 -3.9375 4.640625 -3.953125 4.84375 -3.96875 L 4.84375 -4.28125 C 4.546875 -4.25 4.421875 -4.25 4.140625 -4.25 C 3.796875 -4.25 3.171875 -4.265625 3.03125 -4.28125 L 3.03125 -3.96875 C 3.21875 -3.953125 3.328125 -3.84375 3.328125 -3.71875 C 3.328125 -3.515625 3.1875 -3.40625 3.109375 -3.328125 L 1.703125 -2.125 L 1.703125 -6.890625 L 0.28125 -6.78125 L 0.28125 -6.46875 C 0.96875 -6.46875 1.046875 -6.40625 1.046875 -5.90625 Z M 1.046875 -0.75 "/>
</g>
<g id="glyph-0-35">
<path d="M 2.390625 -6.5625 C 2.296875 -6.78125 2.265625 -6.78125 2.046875 -6.78125 L 0.359375 -6.78125 L 0.359375 -6.46875 L 0.609375 -6.46875 C 1.375 -6.46875 1.390625 -6.359375 1.390625 -6 L 1.390625 -1.046875 C 1.390625 -0.78125 1.390625 -0.3125 0.359375 -0.3125 L 0.359375 0 C 0.71875 -0.015625 1.203125 -0.03125 1.53125 -0.03125 C 1.859375 -0.03125 2.34375 -0.015625 2.6875 0 L 2.6875 -0.3125 C 1.671875 -0.3125 1.671875 -0.78125 1.671875 -1.046875 L 1.671875 -6.390625 L 4.0625 -0.21875 C 4.125 -0.09375 4.171875 0 4.265625 0 C 4.375 0 4.40625 -0.078125 4.4375 -0.1875 L 6.890625 -6.46875 L 6.890625 -0.78125 C 6.890625 -0.421875 6.875 -0.3125 6.109375 -0.3125 L 5.875 -0.3125 L 5.875 0 C 6.234375 -0.03125 6.921875 -0.03125 7.296875 -0.03125 C 7.6875 -0.03125 8.359375 -0.03125 8.71875 0 L 8.71875 -0.3125 L 8.484375 -0.3125 C 7.71875 -0.3125 7.703125 -0.421875 7.703125 -0.78125 L 7.703125 -6 C 7.703125 -6.359375 7.71875 -6.46875 8.484375 -6.46875 L 8.71875 -6.46875 L 8.71875 -6.78125 L 7.046875 -6.78125 C 6.78125 -6.78125 6.78125 -6.765625 6.71875 -6.59375 L 4.546875 -1 Z M 2.390625 -6.5625 "/>
</g>
<g id="glyph-0-36">
<path d="M 2.734375 -1.859375 L 2.734375 -2.4375 L 0.109375 -2.4375 L 0.109375 -1.859375 Z M 2.734375 -1.859375 "/>
</g>
<g id="glyph-0-37">
<path d="M 1.703125 -3.734375 L 1.703125 -6.890625 L 0.28125 -6.78125 L 0.28125 -6.46875 C 0.96875 -6.46875 1.046875 -6.40625 1.046875 -5.90625 L 1.046875 0 L 1.296875 0 C 1.3125 -0.015625 1.390625 -0.15625 1.65625 -0.609375 C 1.8125 -0.390625 2.21875 0.109375 2.953125 0.109375 C 4.140625 0.109375 5.171875 -0.859375 5.171875 -2.140625 C 5.171875 -3.40625 4.203125 -4.390625 3.0625 -4.390625 C 2.296875 -4.390625 1.859375 -3.921875 1.703125 -3.734375 Z M 1.734375 -1.125 L 1.734375 -3.171875 C 1.734375 -3.359375 1.734375 -3.375 1.84375 -3.53125 C 2.234375 -4.09375 2.78125 -4.171875 3.015625 -4.171875 C 3.46875 -4.171875 3.8125 -3.90625 4.0625 -3.53125 C 4.3125 -3.125 4.34375 -2.5625 4.34375 -2.15625 C 4.34375 -1.78125 4.328125 -1.1875 4.03125 -0.75 C 3.828125 -0.4375 3.453125 -0.109375 2.921875 -0.109375 C 2.46875 -0.109375 2.109375 -0.34375 1.875 -0.71875 C 1.734375 -0.921875 1.734375 -0.953125 1.734375 -1.125 Z M 1.734375 -1.125 "/>
</g>
<g id="glyph-0-38">
<path d="M 3.875 -0.78125 L 3.875 0.109375 L 5.3125 0 L 5.3125 -0.3125 C 4.609375 -0.3125 4.53125 -0.375 4.53125 -0.859375 L 4.53125 -4.390625 L 3.078125 -4.28125 L 3.078125 -3.96875 C 3.765625 -3.96875 3.84375 -3.90625 3.84375 -3.40625 L 3.84375 -1.640625 C 3.84375 -0.78125 3.375 -0.109375 2.65625 -0.109375 C 1.8125 -0.109375 1.78125 -0.578125 1.78125 -1.09375 L 1.78125 -4.390625 L 0.3125 -4.28125 L 0.3125 -3.96875 C 1.09375 -3.96875 1.09375 -3.9375 1.09375 -3.0625 L 1.09375 -1.5625 C 1.09375 -0.796875 1.09375 0.109375 2.59375 0.109375 C 3.15625 0.109375 3.59375 -0.171875 3.875 -0.78125 Z M 3.875 -0.78125 "/>
</g>
<g id="glyph-0-39">
<path d="M 4.4375 -3.96875 L 5.59375 -3.96875 L 5.59375 -4.28125 L 4.421875 -4.28125 L 4.421875 -5.421875 C 4.421875 -6.3125 4.890625 -6.78125 5.34375 -6.78125 C 5.375 -6.78125 5.515625 -6.78125 5.671875 -6.703125 C 5.546875 -6.671875 5.375 -6.53125 5.375 -6.296875 C 5.375 -6.0625 5.53125 -5.859375 5.796875 -5.859375 C 6.078125 -5.859375 6.234375 -6.0625 6.234375 -6.296875 C 6.234375 -6.65625 5.890625 -7 5.328125 -7 C 4.75 -7 4.3125 -6.625 4.25 -6.578125 C 3.96875 -6.9375 3.40625 -7 3.140625 -7 C 2.203125 -7 1.046875 -6.484375 1.046875 -5.40625 L 1.046875 -4.28125 L 0.265625 -4.28125 L 0.265625 -3.96875 L 1.046875 -3.96875 L 1.046875 -0.75 C 1.046875 -0.3125 0.9375 -0.3125 0.28125 -0.3125 L 0.28125 0 C 0.609375 -0.015625 1.125 -0.03125 1.375 -0.03125 C 1.625 -0.03125 2.109375 -0.015625 2.484375 0 L 2.484375 -0.3125 C 1.8125 -0.3125 1.703125 -0.3125 1.703125 -0.75 L 1.703125 -3.96875 L 3.796875 -3.96875 L 3.796875 -0.75 C 3.796875 -0.3125 3.6875 -0.3125 3.015625 -0.3125 L 3.015625 0 C 3.40625 -0.015625 3.875 -0.03125 4.140625 -0.03125 C 4.546875 -0.03125 5.015625 -0.03125 5.40625 0 L 5.40625 -0.3125 L 5.203125 -0.3125 C 4.46875 -0.3125 4.4375 -0.421875 4.4375 -0.78125 Z M 1.671875 -4.28125 L 1.671875 -5.390625 C 1.671875 -6.359375 2.484375 -6.78125 3.140625 -6.78125 C 3.625 -6.78125 3.90625 -6.59375 3.90625 -6.59375 L 3.90625 -6.578125 C 3.734375 -6.5625 3.546875 -6.421875 3.546875 -6.15625 C 3.546875 -6.09375 3.546875 -5.84375 3.8125 -5.75 C 3.796875 -5.625 3.796875 -5.53125 3.796875 -5.421875 L 3.796875 -4.28125 Z M 1.671875 -4.28125 "/>
</g>
<g id="glyph-1-0">
<path d="M 3.859375 -2.765625 L 1.875 -4.734375 C 1.75 -4.859375 1.734375 -4.875 1.65625 -4.875 C 1.5625 -4.875 1.453125 -4.78125 1.453125 -4.671875 C 1.453125 -4.609375 1.484375 -4.578125 1.59375 -4.46875 L 3.578125 -2.484375 L 1.59375 -0.484375 C 1.484375 -0.375 1.453125 -0.359375 1.453125 -0.28125 C 1.453125 -0.171875 1.5625 -0.09375 1.65625 -0.09375 C 1.734375 -0.09375 1.75 -0.109375 1.875 -0.234375 L 3.84375 -2.203125 L 5.90625 -0.15625 C 5.921875 -0.140625 6 -0.09375 6.046875 -0.09375 C 6.171875 -0.09375 6.25 -0.171875 6.25 -0.28125 C 6.25 -0.3125 6.25 -0.34375 6.21875 -0.390625 C 6.21875 -0.421875 4.640625 -1.96875 4.140625 -2.484375 L 5.953125 -4.296875 C 6 -4.359375 6.15625 -4.484375 6.203125 -4.546875 C 6.21875 -4.5625 6.25 -4.609375 6.25 -4.671875 C 6.25 -4.78125 6.171875 -4.875 6.046875 -4.875 C 5.96875 -4.875 5.9375 -4.828125 5.828125 -4.71875 Z M 3.859375 -2.765625 "/>
</g>
<g id="glyph-1-1">
<path d="M 2.671875 -6.53125 C 2.671875 -6.703125 2.671875 -6.890625 2.484375 -6.890625 C 2.28125 -6.890625 2.28125 -6.703125 2.28125 -6.53125 L 2.28125 0.546875 C 2.046875 0.171875 1.765625 -0.109375 1.515625 -0.296875 C 0.90625 -0.75 0.3125 -0.859375 0.28125 -0.859375 C 0.171875 -0.859375 0.171875 -0.75 0.171875 -0.671875 C 0.171875 -0.5 0.171875 -0.5 0.390625 -0.421875 C 1.078125 -0.234375 1.453125 0.125 1.6875 0.359375 C 2.1875 0.90625 2.3125 1.515625 2.375 1.8125 C 2.375 1.859375 2.40625 1.921875 2.484375 1.921875 C 2.5625 1.921875 2.578125 1.84375 2.59375 1.75 C 2.8125 0.640625 3.53125 -0.140625 4.625 -0.453125 C 4.765625 -0.5 4.796875 -0.5 4.796875 -0.671875 C 4.796875 -0.75 4.796875 -0.859375 4.671875 -0.859375 C 4.640625 -0.859375 4.0625 -0.75 3.5 -0.34375 C 3.171875 -0.09375 2.890625 0.203125 2.671875 0.546875 Z M 2.671875 -6.53125 "/>
</g>
<g id="glyph-2-0">
<path d="M 1.421875 -2.734375 L 2.296875 -2.734375 L 2.296875 -2.984375 L 1.40625 -2.984375 L 1.40625 -3.765625 C 1.40625 -4.390625 1.78125 -4.6875 2.078125 -4.6875 C 2.140625 -4.6875 2.203125 -4.671875 2.28125 -4.65625 C 2.171875 -4.59375 2.125 -4.484375 2.125 -4.375 C 2.125 -4.1875 2.25 -4.0625 2.4375 -4.0625 C 2.625 -4.0625 2.765625 -4.1875 2.765625 -4.375 C 2.765625 -4.671875 2.46875 -4.890625 2.078125 -4.890625 C 1.53125 -4.890625 0.90625 -4.5 0.90625 -3.765625 L 0.90625 -2.984375 L 0.3125 -2.984375 L 0.3125 -2.734375 L 0.90625 -2.734375 L 0.90625 -0.546875 C 0.90625 -0.25 0.84375 -0.25 0.390625 -0.25 L 0.390625 0 C 0.421875 0 0.890625 -0.03125 1.171875 -0.03125 C 1.484375 -0.03125 1.78125 -0.015625 2.078125 0 L 2.078125 -0.25 L 1.9375 -0.25 C 1.421875 -0.25 1.421875 -0.328125 1.421875 -0.5625 Z M 1.421875 -2.734375 "/>
</g>
<g id="glyph-2-1">
<path d="M 1.375 -1.578125 C 1.375 -2.171875 1.65625 -2.859375 2.3125 -2.859375 C 2.25 -2.8125 2.1875 -2.71875 2.1875 -2.609375 C 2.1875 -2.390625 2.375 -2.296875 2.5 -2.296875 C 2.671875 -2.296875 2.828125 -2.40625 2.828125 -2.609375 C 2.828125 -2.84375 2.609375 -3.0625 2.28125 -3.0625 C 1.921875 -3.0625 1.546875 -2.84375 1.34375 -2.3125 L 1.328125 -2.3125 L 1.328125 -3.0625 L 0.34375 -2.984375 L 0.34375 -2.734375 C 0.8125 -2.734375 0.859375 -2.6875 0.859375 -2.34375 L 0.859375 -0.546875 C 0.859375 -0.25 0.796875 -0.25 0.34375 -0.25 L 0.34375 0 C 0.375 0 0.84375 -0.03125 1.125 -0.03125 C 1.421875 -0.03125 1.734375 -0.015625 2.03125 0 L 2.03125 -0.25 L 1.890625 -0.25 C 1.375 -0.25 1.375 -0.328125 1.375 -0.5625 Z M 1.375 -1.578125 "/>
</g>
<g id="glyph-2-2">
<path d="M 3.046875 -1.578125 C 3.203125 -1.578125 3.25 -1.578125 3.25 -1.734375 C 3.25 -2.34375 2.90625 -3.09375 1.875 -3.09375 C 0.96875 -3.09375 0.265625 -2.375 0.265625 -1.515625 C 0.265625 -0.640625 1.046875 0.0625 1.96875 0.0625 C 2.90625 0.0625 3.25 -0.6875 3.25 -0.828125 C 3.25 -0.859375 3.234375 -0.921875 3.125 -0.921875 C 3.03125 -0.921875 3.03125 -0.890625 3 -0.8125 C 2.78125 -0.25 2.265625 -0.15625 2.015625 -0.15625 C 1.6875 -0.15625 1.375 -0.296875 1.171875 -0.5625 C 0.90625 -0.890625 0.90625 -1.3125 0.90625 -1.578125 Z M 0.90625 -1.765625 C 0.984375 -2.734375 1.609375 -2.90625 1.875 -2.90625 C 2.71875 -2.90625 2.75 -1.9375 2.765625 -1.765625 Z M 0.90625 -1.765625 "/>
</g>
<g id="glyph-2-3">
<path d="M 3.515625 -3.0625 L 3.296875 -3.0625 L 3.046875 -2.453125 C 2.84375 -2.78125 2.484375 -3.0625 2 -3.0625 C 1.109375 -3.0625 0.3125 -2.375 0.3125 -1.484375 C 0.3125 -0.625 1.0625 0.0625 1.9375 0.0625 C 2.484375 0.0625 2.78125 -0.234375 2.96875 -0.40625 L 2.96875 0.796875 C 2.96875 1.09375 2.890625 1.09375 2.4375 1.09375 L 2.4375 1.34375 C 2.453125 1.34375 2.9375 1.3125 3.234375 1.3125 C 3.484375 1.3125 3.96875 1.34375 4.03125 1.34375 L 4.03125 1.09375 C 3.578125 1.09375 3.515625 1.09375 3.515625 0.796875 Z M 2.984375 -1 C 2.984375 -0.875 2.984375 -0.84375 2.890625 -0.671875 C 2.671875 -0.328125 2.328125 -0.125 1.984375 -0.125 C 1.40625 -0.125 0.953125 -0.75 0.953125 -1.484375 C 0.953125 -2.296875 1.5 -2.84375 2.046875 -2.84375 C 2.640625 -2.84375 2.984375 -2.265625 2.984375 -1.875 Z M 2.984375 -1 "/>
</g>
<g id="glyph-2-4">
<path d="M 3.421875 -4.90625 C 3.453125 -4.984375 3.453125 -5.015625 3.453125 -5.03125 C 3.453125 -5.140625 3.359375 -5.203125 3.28125 -5.203125 C 3.171875 -5.203125 3.140625 -5.125 3.09375 -5.03125 L 0.515625 1.4375 C 0.484375 1.515625 0.484375 1.546875 0.484375 1.5625 C 0.484375 1.671875 0.578125 1.734375 0.65625 1.734375 C 0.765625 1.734375 0.8125 1.65625 0.84375 1.5625 Z M 3.421875 -4.90625 "/>
</g>
<g id="glyph-2-5">
<path d="M 1.921875 1.09375 C 1.484375 1.09375 1.40625 1.09375 1.40625 0.796875 L 1.40625 -0.328125 C 1.4375 -0.296875 1.765625 0.0625 2.359375 0.0625 C 3.265625 0.0625 4.046875 -0.625 4.046875 -1.5 C 4.046875 -2.359375 3.34375 -3.0625 2.46875 -3.0625 C 2.0625 -3.0625 1.671875 -2.90625 1.375 -2.640625 L 1.375 -3.0625 L 0.34375 -2.984375 L 0.34375 -2.734375 C 0.828125 -2.734375 0.859375 -2.703125 0.859375 -2.40625 L 0.859375 0.796875 C 0.859375 1.09375 0.796875 1.09375 0.34375 1.09375 L 0.34375 1.34375 C 0.359375 1.34375 0.84375 1.3125 1.125 1.3125 C 1.390625 1.3125 1.859375 1.34375 1.921875 1.34375 Z M 1.40625 -2.3125 C 1.609375 -2.65625 2.015625 -2.84375 2.390625 -2.84375 C 2.96875 -2.84375 3.421875 -2.234375 3.421875 -1.5 C 3.421875 -0.703125 2.90625 -0.125 2.3125 -0.125 C 1.703125 -0.125 1.421875 -0.65625 1.40625 -0.703125 Z M 1.40625 -2.3125 "/>
</g>
<g id="glyph-2-6">
<path d="M 3.578125 -2.109375 C 3.578125 -2.703125 3.28125 -3.0625 2.53125 -3.0625 C 1.921875 -3.0625 1.578125 -2.6875 1.421875 -2.421875 L 1.421875 -4.8125 L 0.375 -4.734375 L 0.375 -4.484375 C 0.84375 -4.484375 0.890625 -4.4375 0.890625 -4.09375 L 0.890625 -0.546875 C 0.890625 -0.25 0.828125 -0.25 0.375 -0.25 L 0.375 0 C 0.390625 0 0.875 -0.03125 1.171875 -0.03125 C 1.421875 -0.03125 1.90625 0 1.96875 0 L 1.96875 -0.25 C 1.515625 -0.25 1.4375 -0.25 1.4375 -0.546875 L 1.4375 -1.796875 C 1.4375 -2.53125 2.015625 -2.859375 2.484375 -2.859375 C 2.96875 -2.859375 3.03125 -2.484375 3.03125 -2.125 L 3.03125 -0.546875 C 3.03125 -0.25 2.953125 -0.25 2.5 -0.25 L 2.5 0 C 2.515625 0 3 -0.03125 3.296875 -0.03125 C 3.546875 -0.03125 4.03125 0 4.09375 0 L 4.09375 -0.25 C 3.640625 -0.25 3.578125 -0.25 3.578125 -0.546875 Z M 3.578125 -2.109375 "/>
</g>
<g id="glyph-2-7">
<path d="M 3.09375 -1.859375 C 3.09375 -2.234375 3.09375 -2.484375 2.78125 -2.75 C 2.484375 -2.984375 2.15625 -3.09375 1.75 -3.09375 C 1.09375 -3.09375 0.625 -2.84375 0.625 -2.421875 C 0.625 -2.203125 0.78125 -2.078125 0.953125 -2.078125 C 1.140625 -2.078125 1.28125 -2.21875 1.28125 -2.40625 C 1.28125 -2.53125 1.234375 -2.671875 1.046875 -2.71875 C 1.296875 -2.90625 1.6875 -2.90625 1.734375 -2.90625 C 2.125 -2.90625 2.546875 -2.640625 2.546875 -2.0625 L 2.546875 -1.84375 C 2.171875 -1.828125 1.703125 -1.8125 1.203125 -1.625 C 0.578125 -1.390625 0.375 -1.015625 0.375 -0.703125 C 0.375 -0.109375 1.109375 0.0625 1.59375 0.0625 C 2.15625 0.0625 2.484375 -0.25 2.625 -0.515625 C 2.65625 -0.234375 2.84375 0.03125 3.15625 0.03125 C 3.171875 0.03125 3.84375 0.03125 3.84375 -0.625 L 3.84375 -1 L 3.609375 -1 L 3.609375 -0.625 C 3.609375 -0.5625 3.609375 -0.234375 3.34375 -0.234375 C 3.09375 -0.234375 3.09375 -0.5625 3.09375 -0.640625 Z M 2.546875 -0.984375 C 2.546875 -0.3125 1.96875 -0.125 1.65625 -0.125 C 1.296875 -0.125 0.96875 -0.359375 0.96875 -0.703125 C 0.96875 -1.078125 1.296875 -1.609375 2.546875 -1.671875 Z M 2.546875 -0.984375 "/>
</g>
<g id="glyph-2-8">
<path d="M 2.625 -2.90625 C 2.625 -3.03125 2.625 -3.09375 2.53125 -3.09375 C 2.5 -3.09375 2.484375 -3.09375 2.390625 -3.015625 C 2.375 -3 2.3125 -2.9375 2.265625 -2.90625 C 2.0625 -3.046875 1.796875 -3.09375 1.546875 -3.09375 C 0.546875 -3.09375 0.3125 -2.578125 0.3125 -2.234375 C 0.3125 -2 0.40625 -1.828125 0.578125 -1.6875 C 0.84375 -1.453125 1.109375 -1.40625 1.53125 -1.34375 C 1.875 -1.28125 2.4375 -1.171875 2.4375 -0.71875 C 2.4375 -0.4375 2.25 -0.125 1.59375 -0.125 C 0.921875 -0.125 0.6875 -0.5625 0.5625 -1.03125 C 0.53125 -1.125 0.53125 -1.15625 0.4375 -1.15625 C 0.3125 -1.15625 0.3125 -1.109375 0.3125 -0.96875 L 0.3125 -0.109375 C 0.3125 0 0.3125 0.0625 0.40625 0.0625 C 0.46875 0.0625 0.609375 -0.078125 0.75 -0.234375 C 1.046875 0.0625 1.421875 0.0625 1.59375 0.0625 C 2.484375 0.0625 2.828125 -0.421875 2.828125 -0.90625 C 2.828125 -1.171875 2.703125 -1.375 2.53125 -1.546875 C 2.265625 -1.796875 1.9375 -1.84375 1.703125 -1.890625 C 1.140625 -1.984375 0.6875 -2.0625 0.6875 -2.4375 C 0.6875 -2.65625 0.875 -2.921875 1.546875 -2.921875 C 2.34375 -2.921875 2.375 -2.359375 2.390625 -2.171875 C 2.40625 -2.09375 2.484375 -2.09375 2.515625 -2.09375 C 2.625 -2.09375 2.625 -2.140625 2.625 -2.265625 Z M 2.625 -2.90625 "/>
</g>
<g id="glyph-2-9">
<path d="M 5.703125 -2.109375 C 5.703125 -2.703125 5.40625 -3.0625 4.65625 -3.0625 C 4.109375 -3.0625 3.734375 -2.765625 3.546875 -2.421875 C 3.40625 -2.90625 3.03125 -3.0625 2.53125 -3.0625 C 1.96875 -3.0625 1.59375 -2.75 1.40625 -2.390625 L 1.390625 -2.390625 L 1.390625 -3.0625 L 0.375 -2.984375 L 0.375 -2.734375 C 0.84375 -2.734375 0.890625 -2.6875 0.890625 -2.34375 L 0.890625 -0.546875 C 0.890625 -0.25 0.828125 -0.25 0.375 -0.25 L 0.375 0 C 0.390625 0 0.875 -0.03125 1.171875 -0.03125 C 1.421875 -0.03125 1.90625 0 1.96875 0 L 1.96875 -0.25 C 1.515625 -0.25 1.4375 -0.25 1.4375 -0.546875 L 1.4375 -1.796875 C 1.4375 -2.53125 2.015625 -2.859375 2.484375 -2.859375 C 2.96875 -2.859375 3.03125 -2.484375 3.03125 -2.125 L 3.03125 -0.546875 C 3.03125 -0.25 2.953125 -0.25 2.5 -0.25 L 2.5 0 C 2.515625 0 3 -0.03125 3.296875 -0.03125 C 3.546875 -0.03125 4.03125 0 4.09375 0 L 4.09375 -0.25 C 3.640625 -0.25 3.578125 -0.25 3.578125 -0.546875 L 3.578125 -1.796875 C 3.578125 -2.53125 4.15625 -2.859375 4.609375 -2.859375 C 5.09375 -2.859375 5.15625 -2.484375 5.15625 -2.125 L 5.15625 -0.546875 C 5.15625 -0.25 5.078125 -0.25 4.640625 -0.25 L 4.640625 0 C 4.640625 0 5.140625 -0.03125 5.421875 -0.03125 C 5.6875 -0.03125 6.15625 0 6.21875 0 L 6.21875 -0.25 C 5.765625 -0.25 5.703125 -0.25 5.703125 -0.546875 Z M 5.703125 -2.109375 "/>
</g>
<g id="glyph-2-10">
<path d="M 3.671875 -1.484375 C 3.671875 -2.34375 2.921875 -3.09375 1.96875 -3.09375 C 1.015625 -3.09375 0.265625 -2.34375 0.265625 -1.484375 C 0.265625 -0.625 1.03125 0.0625 1.96875 0.0625 C 2.90625 0.0625 3.671875 -0.625 3.671875 -1.484375 Z M 1.96875 -0.15625 C 1.71875 -0.15625 1.34375 -0.234375 1.109375 -0.578125 C 0.921875 -0.859375 0.90625 -1.21875 0.90625 -1.546875 C 0.90625 -1.84375 0.90625 -2.25 1.15625 -2.546875 C 1.328125 -2.75 1.609375 -2.90625 1.96875 -2.90625 C 2.375 -2.90625 2.671875 -2.703125 2.828125 -2.484375 C 3.015625 -2.21875 3.03125 -1.875 3.03125 -1.546875 C 3.03125 -1.203125 3.015625 -0.84375 2.8125 -0.5625 C 2.625 -0.296875 2.3125 -0.15625 1.96875 -0.15625 Z M 1.96875 -0.15625 "/>
</g>
<g id="glyph-2-11">
<path d="M 2.46875 -4.734375 L 2.46875 -4.484375 C 2.9375 -4.484375 2.984375 -4.4375 2.984375 -4.09375 L 2.984375 -2.65625 C 2.734375 -2.90625 2.40625 -3.0625 2.015625 -3.0625 C 1.09375 -3.0625 0.3125 -2.359375 0.3125 -1.484375 C 0.3125 -0.625 1.046875 0.0625 1.9375 0.0625 C 2.5 0.0625 2.84375 -0.234375 2.96875 -0.359375 L 2.96875 0.0625 L 4.03125 0 L 4.03125 -0.25 C 3.5625 -0.25 3.515625 -0.296875 3.515625 -0.640625 L 3.515625 -4.8125 Z M 2.96875 -0.734375 C 2.78125 -0.40625 2.421875 -0.125 1.984375 -0.125 C 1.59375 -0.125 1.3125 -0.359375 1.171875 -0.5625 C 1.03125 -0.765625 0.953125 -1.046875 0.953125 -1.484375 C 0.953125 -1.640625 0.953125 -2.171875 1.234375 -2.484375 C 1.515625 -2.796875 1.859375 -2.859375 2.046875 -2.859375 C 2.390625 -2.859375 2.6875 -2.71875 2.875 -2.46875 C 2.96875 -2.359375 2.96875 -2.34375 2.96875 -2.21875 Z M 2.96875 -0.734375 "/>
</g>
</g>
<clipPath id="clip-0">
<path clip-rule="nonzero" d="M 379 41 L 490 41 L 490 116.882812 L 379 116.882812 Z M 379 41 "/>
</clipPath>
<clipPath id="clip-1">
<path clip-rule="nonzero" d="M 83 65 L 136 65 L 136 116.882812 L 83 116.882812 Z M 83 65 "/>
</clipPath>
<clipPath id="clip-2">
<path clip-rule="nonzero" d="M 220 65 L 273 65 L 273 116.882812 L 220 116.882812 Z M 220 65 "/>
</clipPath>
</defs>
<path fill-rule="nonzero" fill="rgb(100%, 65.489197%, 46.273804%)" fill-opacity="1" stroke-width="1.49442" stroke-linecap="butt" stroke-linejoin="miter" stroke="rgb(83.529663%, 54.508972%, 38.822937%)" stroke-opacity="1" stroke-miterlimit="10" d="M 24.36127 22.678243 L -24.361732 22.678243 C -26.563569 22.678243 -28.345448 20.892439 -28.345448 18.690602 L -28.345448 -18.693528 C -28.345448 -20.891441 -26.563569 -22.677244 -24.361732 -22.677244 L 24.36127 -22.677244 C 26.563107 -22.677244 28.344986 -20.891441 28.344986 -18.693528 L 28.344986 18.690602 C 28.344986 20.892439 26.563107 22.678243 24.36127 22.678243 Z M 24.36127 22.678243 " transform="matrix(0.995263, 0, 0, -0.995263, 172.226792, 57.250497)"/>
<g fill="rgb(0%, 0%, 0%)" fill-opacity="1">
<use xlink:href="#glyph-0-0" x="154.163769" y="59.729696"/>
<use xlink:href="#glyph-0-1" x="159.672768" y="59.729696"/>
<use xlink:href="#glyph-0-2" x="162.702916" y="59.729696"/>
</g>
<path fill="none" stroke-width="0.398" stroke-linecap="butt" stroke-linejoin="miter" stroke="rgb(0%, 0%, 0%)" stroke-opacity="1" stroke-miterlimit="10" d="M -0.000796498 -0.000609038 L 2.989934 -0.000609038 " transform="matrix(0.995263, 0, 0, -0.995263, 168.254699, 59.530644)"/>
<g fill="rgb(0%, 0%, 0%)" fill-opacity="1">
<use xlink:href="#glyph-0-3" x="171.229539" y="59.729696"/>
<use xlink:href="#glyph-0-4" x="175.140175" y="59.729696"/>
<use xlink:href="#glyph-0-5" x="180.373525" y="59.729696"/>
<use xlink:href="#glyph-0-6" x="185.882524" y="59.729696"/>
</g>
<path fill-rule="nonzero" fill="rgb(100%, 65.489197%, 46.273804%)" fill-opacity="1" stroke-width="1.49442" stroke-linecap="butt" stroke-linejoin="miter" stroke="rgb(83.529663%, 54.508972%, 38.822937%)" stroke-opacity="1" stroke-miterlimit="10" d="M 156.055456 36.850851 L 84.850952 36.850851 C 82.649115 36.850851 80.867236 35.065048 80.867236 32.867136 L 80.867236 -32.866137 C 80.867236 -35.067974 82.649115 -36.849853 84.850952 -36.849853 L 156.055456 -36.849853 C 158.257293 -36.849853 160.043097 -35.067974 160.043097 -32.866137 L 160.043097 32.867136 C 160.043097 35.065048 158.257293 36.850851 156.055456 36.850851 Z M 156.055456 36.850851 " transform="matrix(0.995263, 0, 0, -0.995263, 172.226792, 57.250497)"/>
<g fill="rgb(0%, 0%, 0%)" fill-opacity="1">
<use xlink:href="#glyph-0-7" x="256.404122" y="47.555643"/>
<use xlink:href="#glyph-0-2" x="261.913121" y="47.555643"/>
</g>
<g fill="rgb(0%, 0%, 0%)" fill-opacity="1">
<use xlink:href="#glyph-0-8" x="266.593192" y="47.555643"/>
<use xlink:href="#glyph-0-5" x="273.754097" y="47.555643"/>
</g>
<path fill="none" stroke-width="0.398" stroke-linecap="butt" stroke-linejoin="miter" stroke="rgb(0%, 0%, 0%)" stroke-opacity="1" stroke-miterlimit="10" d="M -0.000103925 0.00112694 L 2.990627 0.00112694 " transform="matrix(0.995263, 0, 0, -0.995263, 279.859478, 47.35659)"/>
<g fill="rgb(0%, 0%, 0%)" fill-opacity="1">
<use xlink:href="#glyph-0-6" x="282.834319" y="47.555643"/>
<use xlink:href="#glyph-0-2" x="287.240724" y="47.555643"/>
<use xlink:href="#glyph-0-5" x="292.198426" y="47.555643"/>
</g>
<g fill="rgb(0%, 0%, 0%)" fill-opacity="1">
<use xlink:href="#glyph-0-9" x="297.429794" y="47.555643"/>
</g>
<g fill="rgb(0%, 0%, 0%)" fill-opacity="1">
<use xlink:href="#glyph-0-10" x="302.385513" y="47.555643"/>
<use xlink:href="#glyph-0-11" x="306.791919" y="47.555643"/>
<use xlink:href="#glyph-0-3" x="310.675782" y="47.555643"/>
<use xlink:href="#glyph-0-12" x="314.586418" y="47.555643"/>
<use xlink:href="#glyph-0-2" x="317.340917" y="47.555643"/>
<use xlink:href="#glyph-0-5" x="322.298619" y="47.555643"/>
</g>
<path fill="none" stroke-width="0.398" stroke-linecap="butt" stroke-linejoin="miter" stroke="rgb(0%, 0%, 0%)" stroke-opacity="1" stroke-miterlimit="10" d="M -0.00046915 -0.00187002 L 2.990261 -0.00187002 " transform="matrix(0.995263, 0, 0, -0.995263, 278.371561, 59.255951)"/>
<g fill="rgb(0%, 0%, 0%)" fill-opacity="1">
<use xlink:href="#glyph-0-7" x="281.346401" y="59.454009"/>
<use xlink:href="#glyph-0-4" x="286.8554" y="59.454009"/>
<use xlink:href="#glyph-0-5" x="292.08875" y="59.454009"/>
<use xlink:href="#glyph-0-11" x="297.597749" y="59.454009"/>
<use xlink:href="#glyph-0-2" x="301.481612" y="59.454009"/>
</g>
<g fill="rgb(0%, 0%, 0%)" fill-opacity="1">
<use xlink:href="#glyph-0-13" x="256.012984" y="71.352374"/>
<use xlink:href="#glyph-0-14" x="259.869085" y="71.352374"/>
<use xlink:href="#glyph-0-14" x="267.443462" y="71.352374"/>
<use xlink:href="#glyph-0-15" x="275.017839" y="71.352374"/>
</g>
<g fill="rgb(0%, 0%, 0%)" fill-opacity="1">
<use xlink:href="#glyph-0-16" x="283.828668" y="71.352374"/>
<use xlink:href="#glyph-0-12" x="292.091174" y="71.352374"/>
<use xlink:href="#glyph-0-17" x="294.845673" y="71.352374"/>
<use xlink:href="#glyph-0-10" x="300.079024" y="71.352374"/>
<use xlink:href="#glyph-0-11" x="304.485429" y="71.352374"/>
</g>
<g fill="rgb(0%, 0%, 0%)" fill-opacity="1">
<use xlink:href="#glyph-1-0" x="311.677032" y="71.352374"/>
</g>
<g fill="rgb(0%, 0%, 0%)" fill-opacity="1">
<use xlink:href="#glyph-0-18" x="319.389323" y="71.352374"/>
<use xlink:href="#glyph-0-19" x="324.347025" y="71.352374"/>
</g>
<path fill-rule="nonzero" fill="rgb(100%, 65.489197%, 46.273804%)" fill-opacity="1" d="M 464.449219 62.753906 L 404.671875 62.753906 C 402.484375 62.753906 400.707031 64.53125 400.707031 66.722656 L 400.707031 98.5625 C 400.707031 100.75 402.484375 102.527344 404.671875 102.527344 L 464.449219 102.527344 C 466.640625 102.527344 468.417969 100.75 468.417969 98.5625 L 468.417969 66.722656 C 468.417969 64.53125 466.640625 62.753906 464.449219 62.753906 Z M 464.449219 62.753906 "/>
<g clip-path="url(#clip-0)">
<path fill="none" stroke-width="1.49442" stroke-linecap="butt" stroke-linejoin="miter" stroke="rgb(83.529663%, 54.508972%, 38.822937%)" stroke-opacity="1" stroke-miterlimit="10" d="M 293.613357 -5.529605 L 233.551483 -5.529605 C 231.353571 -5.529605 229.567767 -7.315408 229.567767 -9.517245 L 229.567767 -41.508641 C 229.567767 -43.706554 231.353571 -45.492357 233.551483 -45.492357 L 293.613357 -45.492357 C 295.815194 -45.492357 297.600998 -43.706554 297.600998 -41.508641 L 297.600998 -9.517245 C 297.600998 -7.315408 295.815194 -5.529605 293.613357 -5.529605 Z M 293.613357 -5.529605 " transform="matrix(0.995263, 0, 0, -0.995263, 172.226792, 57.250497)"/>
</g>
<g fill="rgb(0%, 0%, 0%)" fill-opacity="1">
<use xlink:href="#glyph-0-0" x="412.929089" y="72.94579"/>
<use xlink:href="#glyph-0-11" x="418.438087" y="72.94579"/>
</g>
<path fill="none" stroke-width="0.398" stroke-linecap="butt" stroke-linejoin="miter" stroke="rgb(0%, 0%, 0%)" stroke-opacity="1" stroke-miterlimit="10" d="M -0.00149945 0.00164671 L 2.989231 0.00164671 " transform="matrix(0.995263, 0, 0, -0.995263, 422.915555, 72.747733)"/>
<g fill="rgb(0%, 0%, 0%)" fill-opacity="1">
<use xlink:href="#glyph-0-7" x="425.890395" y="72.94579"/>
<use xlink:href="#glyph-0-10" x="431.399394" y="72.94579"/>
<use xlink:href="#glyph-0-6" x="435.805799" y="72.94579"/>
<use xlink:href="#glyph-0-12" x="440.212205" y="72.94579"/>
<use xlink:href="#glyph-0-16" x="442.966704" y="72.94579"/>
<use xlink:href="#glyph-0-18" x="451.229211" y="72.94579"/>
</g>
<path fill="none" stroke-width="0.398" stroke-linecap="butt" stroke-linejoin="miter" stroke="rgb(0%, 0%, 0%)" stroke-opacity="1" stroke-miterlimit="10" d="M 0.00170948 0.00157459 L 2.988515 0.00157459 " transform="matrix(0.995263, 0, 0, -0.995263, 420.822517, 84.646098)"/>
<g fill="rgb(0%, 0%, 0%)" fill-opacity="1">
<use xlink:href="#glyph-0-7" x="423.797358" y="84.844156"/>
<use xlink:href="#glyph-0-4" x="429.306356" y="84.844156"/>
<use xlink:href="#glyph-0-5" x="434.539707" y="84.844156"/>
<use xlink:href="#glyph-0-11" x="440.048705" y="84.844156"/>
<use xlink:href="#glyph-0-2" x="443.932569" y="84.844156"/>
</g>
<g fill="rgb(0%, 0%, 0%)" fill-opacity="1">
<use xlink:href="#glyph-0-13" x="425.745087" y="96.743517"/>
</g>
<g fill="rgb(0%, 0%, 0%)" fill-opacity="1">
<use xlink:href="#glyph-1-1" x="429.600734" y="96.743517"/>
</g>
<g fill="rgb(0%, 0%, 0%)" fill-opacity="1">
<use xlink:href="#glyph-0-18" x="434.558138" y="96.743517"/>
<use xlink:href="#glyph-0-19" x="439.51584" y="96.743517"/>
</g>
<path fill="none" stroke-width="2.1918" stroke-linecap="butt" stroke-linejoin="miter" stroke="rgb(63.526917%, 63.920593%, 100%)" stroke-opacity="1" stroke-miterlimit="10" d="M -61.125738 0.00049934 L -36.748537 0.00049934 " transform="matrix(0.995263, 0, 0, -0.995263, 172.226792, 57.250497)"/>
<path fill-rule="nonzero" fill="rgb(63.526917%, 63.920593%, 100%)" fill-opacity="1" stroke-width="1.70076" stroke-linecap="butt" stroke-linejoin="miter" stroke="rgb(63.526917%, 63.920593%, 100%)" stroke-opacity="1" stroke-miterlimit="10" d="M 4.148577 -0.00049934 C 3.638347 0.132945 1.401187 0.886515 0.0000176896 1.706807 L 0.0000176896 -1.707806 C 1.401187 -0.887514 3.638347 -0.133944 4.148577 -0.00049934 Z M 4.148577 -0.00049934 " transform="matrix(-0.995263, 0, 0, 0.995263, 111.390643, 57.250497)"/>
<path fill-rule="nonzero" fill="rgb(63.526917%, 63.920593%, 100%)" fill-opacity="1" stroke-width="1.70076" stroke-linecap="butt" stroke-linejoin="miter" stroke="rgb(63.526917%, 63.920593%, 100%)" stroke-opacity="1" stroke-miterlimit="10" d="M 4.147692 0.00049934 C 3.637462 0.133944 1.400302 0.887514 -0.000867117 1.707806 L -0.000867117 -1.706807 C 1.400302 -0.886515 3.637462 -0.132945 4.147692 0.00049934 Z M 4.147692 0.00049934 " transform="matrix(0.995263, 0, 0, -0.995263, 135.653207, 57.250497)"/>
<g fill="rgb(0%, 0%, 0%)" fill-opacity="1">
<use xlink:href="#glyph-0-15" x="61.380403" y="53.449589"/>
<use xlink:href="#glyph-0-20" x="66.889402" y="53.449589"/>
</g>
<path fill="none" stroke-width="0.398" stroke-linecap="butt" stroke-linejoin="miter" stroke="rgb(0%, 0%, 0%)" stroke-opacity="1" stroke-miterlimit="10" d="M -0.000348366 0.00153869 L 2.990382 0.00153869 " transform="matrix(0.995263, 0, 0, -0.995263, 72.441753, 53.251531)"/>
<g fill="rgb(0%, 0%, 0%)" fill-opacity="1">
<use xlink:href="#glyph-0-21" x="75.415598" y="53.449589"/>
<use xlink:href="#glyph-0-22" x="82.852151" y="53.449589"/>
<use xlink:href="#glyph-0-23" x="90.288704" y="53.449589"/>
<use xlink:href="#glyph-0-15" x="93.869157" y="53.449589"/>
</g>
<g fill="rgb(0%, 0%, 0%)" fill-opacity="1">
<use xlink:href="#glyph-0-13" x="12.700113" y="65.347954"/>
<use xlink:href="#glyph-0-6" x="16.556214" y="65.347954"/>
<use xlink:href="#glyph-0-2" x="20.96262" y="65.347954"/>
<use xlink:href="#glyph-0-5" x="25.920322" y="65.347954"/>
<use xlink:href="#glyph-0-0" x="31.429321" y="65.347954"/>
<use xlink:href="#glyph-0-24" x="36.938319" y="65.347954"/>
<use xlink:href="#glyph-0-25" x="41.896021" y="65.347954"/>
</g>
<g fill="rgb(0%, 0%, 0%)" fill-opacity="1">
<use xlink:href="#glyph-0-1" x="47.95235" y="65.347954"/>
<use xlink:href="#glyph-0-11" x="50.982498" y="65.347954"/>
<use xlink:href="#glyph-0-2" x="54.866362" y="65.347954"/>
<use xlink:href="#glyph-0-16" x="59.824064" y="65.347954"/>
</g>
<g fill="rgb(0%, 0%, 0%)" fill-opacity="1">
<use xlink:href="#glyph-0-26" x="71.398315" y="65.347954"/>
<use xlink:href="#glyph-0-27" x="75.254416" y="65.347954"/>
<use xlink:href="#glyph-0-11" x="82.00284" y="65.347954"/>
<use xlink:href="#glyph-0-2" x="85.886704" y="65.347954"/>
</g>
<g fill="rgb(0%, 0%, 0%)" fill-opacity="1">
<use xlink:href="#glyph-0-6" x="91.112122" y="65.347954"/>
<use xlink:href="#glyph-0-19" x="95.518528" y="65.347954"/>
</g>
<path fill="none" stroke-width="0.79701" stroke-linecap="butt" stroke-linejoin="miter" stroke="rgb(0%, 0%, 0%)" stroke-opacity="1" stroke-miterlimit="10" d="M 29.094631 0.00049934 L 74.846527 0.00049934 " transform="matrix(0.995263, 0, 0, -0.995263, 172.226792, 57.250497)"/>
<path fill-rule="nonzero" fill="rgb(0%, 0%, 0%)" fill-opacity="1" stroke-width="0.79701" stroke-linecap="butt" stroke-linejoin="miter" stroke="rgb(0%, 0%, 0%)" stroke-opacity="1" stroke-miterlimit="10" d="M 3.629487 0.00049934 C 3.182055 0.110395 1.223558 0.742295 -0.000992893 1.433067 L -0.000992893 -1.432068 C 1.223558 -0.745221 3.182055 -0.113321 3.629487 0.00049934 Z M 3.629487 0.00049934 " transform="matrix(0.995263, 0, 0, -0.995263, 246.719738, 57.250497)"/>
<g fill="rgb(0%, 0%, 0%)" fill-opacity="1">
<use xlink:href="#glyph-2-0" x="197.015801" y="51.813377"/>
<use xlink:href="#glyph-2-1" x="199.474219" y="51.813377"/>
<use xlink:href="#glyph-2-2" x="202.572576" y="51.813377"/>
<use xlink:href="#glyph-2-3" x="206.097789" y="51.813377"/>
<use xlink:href="#glyph-2-4" x="210.263635" y="51.813377"/>
<use xlink:href="#glyph-2-5" x="214.2164" y="51.813377"/>
<use xlink:href="#glyph-2-6" x="218.596021" y="51.813377"/>
<use xlink:href="#glyph-2-7" x="222.975643" y="51.813377"/>
<use xlink:href="#glyph-2-8" x="226.928408" y="51.813377"/>
<use xlink:href="#glyph-2-2" x="230.069797" y="51.813377"/>
<use xlink:href="#glyph-2-4" x="233.595011" y="51.813377"/>
<use xlink:href="#glyph-2-9" x="237.547775" y="51.813377"/>
<use xlink:href="#glyph-2-10" x="244.061681" y="51.813377"/>
</g>
<g fill="rgb(0%, 0%, 0%)" fill-opacity="1">
<use xlink:href="#glyph-2-11" x="248.22961" y="51.813377"/>
</g>
<g fill="rgb(0%, 0%, 0%)" fill-opacity="1">
<use xlink:href="#glyph-2-2" x="252.60229" y="51.813377"/>
</g>
<path fill="none" stroke-width="2.1918" stroke-linecap="butt" stroke-linejoin="miter" stroke="rgb(63.526917%, 63.920593%, 100%)" stroke-opacity="1" stroke-miterlimit="10" d="M -61.125738 -34.016116 L 72.464147 -34.016116 " transform="matrix(0.995263, 0, 0, -0.995263, 172.226792, 57.250497)"/>
<path fill-rule="nonzero" fill="rgb(63.526917%, 63.920593%, 100%)" fill-opacity="1" d="M 107.261719 91.105469 C 107.769531 91.238281 109.996094 91.988281 111.390625 92.804688 L 111.390625 89.40625 C 109.996094 90.222656 107.769531 90.972656 107.261719 91.105469 Z M 107.261719 91.105469 "/>
<g clip-path="url(#clip-1)">
<path fill="none" stroke-width="1.70076" stroke-linecap="butt" stroke-linejoin="miter" stroke="rgb(63.526917%, 63.920593%, 100%)" stroke-opacity="1" stroke-miterlimit="10" d="M 4.148577 0.0000359178 C 3.638347 0.133481 1.401187 0.88705 0.0000176896 1.707343 L 0.0000176896 -1.707271 C 1.401187 -0.886979 3.638347 -0.133409 4.148577 0.0000359178 Z M 4.148577 0.0000359178 " transform="matrix(-0.995263, 0, 0, 0.995263, 111.390643, 91.105433)"/>
</g>
<path fill-rule="nonzero" fill="rgb(63.526917%, 63.920593%, 100%)" fill-opacity="1" d="M 248.476562 91.105469 C 247.96875 90.972656 245.742188 90.222656 244.347656 89.40625 L 244.347656 92.804688 C 245.742188 91.988281 247.96875 91.238281 248.476562 91.105469 Z M 248.476562 91.105469 "/>
<g clip-path="url(#clip-2)">
<path fill="none" stroke-width="1.70076" stroke-linecap="butt" stroke-linejoin="miter" stroke="rgb(63.526917%, 63.920593%, 100%)" stroke-opacity="1" stroke-miterlimit="10" d="M 4.147987 -0.0000359178 C 3.637757 0.133409 1.400596 0.886979 -0.000572662 1.707271 L -0.000572662 -1.707343 C 1.400596 -0.88705 3.637757 -0.133481 4.147987 -0.0000359178 Z M 4.147987 -0.0000359178 " transform="matrix(0.995263, 0, 0, -0.995263, 244.348226, 91.105433)"/>
</g>
<g fill="rgb(0%, 0%, 0%)" fill-opacity="1">
<use xlink:href="#glyph-0-15" x="61.380403" y="87.304445"/>
<use xlink:href="#glyph-0-28" x="66.889402" y="87.304445"/>
</g>
<path fill="none" stroke-width="0.398" stroke-linecap="butt" stroke-linejoin="miter" stroke="rgb(0%, 0%, 0%)" stroke-opacity="1" stroke-miterlimit="10" d="M 0.000651634 -0.0000765704 L 2.987457 -0.0000765704 " transform="matrix(0.995263, 0, 0, -0.995263, 72.440758, 87.105393)"/>
<g fill="rgb(0%, 0%, 0%)" fill-opacity="1">
<use xlink:href="#glyph-0-21" x="75.415598" y="87.304445"/>
<use xlink:href="#glyph-0-22" x="82.852151" y="87.304445"/>
<use xlink:href="#glyph-0-23" x="90.288704" y="87.304445"/>
<use xlink:href="#glyph-0-15" x="93.869157" y="87.304445"/>
</g>
<g fill="rgb(0%, 0%, 0%)" fill-opacity="1">
<use xlink:href="#glyph-0-13" x="15.179313" y="99.202811"/>
<use xlink:href="#glyph-0-21" x="19.035414" y="99.202811"/>
<use xlink:href="#glyph-0-14" x="26.471967" y="99.202811"/>
<use xlink:href="#glyph-0-29" x="34.046344" y="99.202811"/>
<use xlink:href="#glyph-0-25" x="41.207249" y="99.202811"/>
</g>
<g fill="rgb(0%, 0%, 0%)" fill-opacity="1">
<use xlink:href="#glyph-0-18" x="47.263578" y="99.202811"/>
</g>
<g fill="rgb(0%, 0%, 0%)" fill-opacity="1">
<use xlink:href="#glyph-0-3" x="55.533025" y="99.202811"/>
<use xlink:href="#glyph-0-30" x="59.443661" y="99.202811"/>
<use xlink:href="#glyph-0-16" x="64.401363" y="99.202811"/>
<use xlink:href="#glyph-0-31" x="72.663869" y="99.202811"/>
<use xlink:href="#glyph-0-32" x="78.172868" y="99.202811"/>
<use xlink:href="#glyph-0-6" x="83.13057" y="99.202811"/>
<use xlink:href="#glyph-0-33" x="87.536976" y="99.202811"/>
<use xlink:href="#glyph-0-34" x="90.291475" y="99.202811"/>
<use xlink:href="#glyph-0-19" x="95.524825" y="99.202811"/>
</g>
<path fill-rule="nonzero" fill="rgb(0%, 0%, 0%)" fill-opacity="1" stroke-width="0.3985" stroke-linecap="butt" stroke-linejoin="miter" stroke="rgb(0%, 0%, 0%)" stroke-opacity="1" stroke-miterlimit="10" d="M 162.284182 29.095361 C 162.284182 29.919578 161.613034 30.586802 160.788817 30.586802 C 159.9646 30.586802 159.293452 29.919578 159.293452 29.095361 C 159.293452 28.267219 159.9646 27.599996 160.788817 27.599996 C 161.613034 27.599996 162.284182 28.267219 162.284182 29.095361 Z M 162.284182 29.095361 " transform="matrix(0.995263, 0, 0, -0.995263, 172.226792, 57.250497)"/>
<path fill="none" stroke-width="2.1918" stroke-linecap="butt" stroke-linejoin="miter" stroke="rgb(63.526917%, 63.920593%, 100%)" stroke-opacity="1" stroke-miterlimit="10" d="M 168.442261 29.095361 L 218.330942 29.095361 " transform="matrix(0.995263, 0, 0, -0.995263, 172.226792, 57.250497)"/>
<path fill-rule="nonzero" fill="rgb(63.526917%, 63.920593%, 100%)" fill-opacity="1" stroke-width="1.70076" stroke-linecap="butt" stroke-linejoin="miter" stroke="rgb(63.526917%, 63.920593%, 100%)" stroke-opacity="1" stroke-miterlimit="10" d="M 4.148498 -0.00134133 C 3.638269 0.132103 1.401108 0.885673 -0.0000608161 1.70989 L -0.0000608161 -1.708648 C 1.401108 -0.888356 3.638269 -0.134786 4.148498 -0.00134133 Z M 4.148498 -0.00134133 " transform="matrix(-0.995263, 0, 0, 0.995263, 339.871033, 28.294304)"/>
<path fill-rule="nonzero" fill="rgb(63.526917%, 63.920593%, 100%)" fill-opacity="1" stroke-width="1.70076" stroke-linecap="butt" stroke-linejoin="miter" stroke="rgb(63.526917%, 63.920593%, 100%)" stroke-opacity="1" stroke-miterlimit="10" d="M 4.146861 0.00134133 C 3.636631 0.134786 1.399471 0.888356 -0.00169838 1.708648 L -0.00169838 -1.70989 C 1.399471 -0.885673 3.636631 -0.132103 4.146861 0.00134133 Z M 4.146861 0.00134133 " transform="matrix(0.995263, 0, 0, -0.995263, 389.525128, 28.294304)"/>
<g fill="rgb(0%, 0%, 0%)" fill-opacity="1">
<use xlink:href="#glyph-0-35" x="401.534326" y="18.54473"/>
<use xlink:href="#glyph-0-20" x="410.623777" y="18.54473"/>
</g>
<path fill="none" stroke-width="0.398" stroke-linecap="butt" stroke-linejoin="miter" stroke="rgb(0%, 0%, 0%)" stroke-opacity="1" stroke-miterlimit="10" d="M -0.00085382 0.00193674 L 2.989877 0.00193674 " transform="matrix(0.995263, 0, 0, -0.995263, 416.176631, 18.345678)"/>
<g fill="rgb(0%, 0%, 0%)" fill-opacity="1">
<use xlink:href="#glyph-0-21" x="419.151471" y="18.54473"/>
<use xlink:href="#glyph-0-22" x="426.588024" y="18.54473"/>
<use xlink:href="#glyph-0-23" x="434.024578" y="18.54473"/>
<use xlink:href="#glyph-0-15" x="437.60503" y="18.54473"/>
</g>
<g fill="rgb(0%, 0%, 0%)" fill-opacity="1">
<use xlink:href="#glyph-0-13" x="401.534326" y="30.443096"/>
<use xlink:href="#glyph-0-18" x="405.390427" y="30.443096"/>
</g>
<g fill="rgb(0%, 0%, 0%)" fill-opacity="1">
<use xlink:href="#glyph-0-6" x="413.649959" y="30.443096"/>
<use xlink:href="#glyph-0-31" x="418.056364" y="30.443096"/>
<use xlink:href="#glyph-0-33" x="423.565363" y="30.443096"/>
<use xlink:href="#glyph-0-17" x="426.319862" y="30.443096"/>
<use xlink:href="#glyph-0-32" x="431.553213" y="30.443096"/>
<use xlink:href="#glyph-0-6" x="436.510915" y="30.443096"/>
<use xlink:href="#glyph-0-33" x="440.91732" y="30.443096"/>
<use xlink:href="#glyph-0-34" x="443.67182" y="30.443096"/>
<use xlink:href="#glyph-0-25" x="448.90517" y="30.443096"/>
</g>
<g fill="rgb(0%, 0%, 0%)" fill-opacity="1">
<use xlink:href="#glyph-0-31" x="401.534326" y="42.341462"/>
<use xlink:href="#glyph-0-11" x="407.043325" y="42.341462"/>
<use xlink:href="#glyph-0-10" x="410.927188" y="42.341462"/>
<use xlink:href="#glyph-0-36" x="415.333594" y="42.341462"/>
<use xlink:href="#glyph-0-7" x="418.638398" y="42.341462"/>
<use xlink:href="#glyph-0-10" x="424.147397" y="42.341462"/>
<use xlink:href="#glyph-0-6" x="428.553803" y="42.341462"/>
<use xlink:href="#glyph-0-12" x="432.960208" y="42.341462"/>
<use xlink:href="#glyph-0-16" x="435.714708" y="42.341462"/>
<use xlink:href="#glyph-0-30" x="443.977214" y="42.341462"/>
<use xlink:href="#glyph-0-26" x="448.934916" y="42.341462"/>
<use xlink:href="#glyph-0-12" x="452.791017" y="42.341462"/>
<use xlink:href="#glyph-0-2" x="455.545516" y="42.341462"/>
<use xlink:href="#glyph-0-5" x="460.503218" y="42.341462"/>
<use xlink:href="#glyph-0-19" x="466.012217" y="42.341462"/>
</g>
<path fill="none" stroke-width="0.79701" stroke-linecap="butt" stroke-linejoin="miter" stroke="rgb(0%, 0%, 0%)" stroke-opacity="1" stroke-miterlimit="10" d="M 160.788817 29.095361 L 228.822047 29.095361 L 228.822047 -20.239917 " transform="matrix(0.995263, 0, 0, -0.995263, 172.226792, 57.250497)"/>
<path fill-rule="nonzero" fill="rgb(0%, 0%, 0%)" fill-opacity="1" stroke-width="0.79701" stroke-linecap="butt" stroke-linejoin="miter" stroke="rgb(0%, 0%, 0%)" stroke-opacity="1" stroke-miterlimit="10" d="M 3.629296 0.00128726 C 3.181864 0.111183 1.223368 0.743083 -0.00118341 1.433855 L -0.00118341 -1.43128 C 1.223368 -0.744433 3.181864 -0.112533 3.629296 0.00128726 Z M 3.629296 0.00128726 " transform="matrix(0, 0.995263, 0.995263, 0, 399.963563, 77.395709)"/>
<path fill="none" stroke-width="2.1918" stroke-linecap="butt" stroke-linejoin="miter" stroke="rgb(63.526917%, 63.920593%, 100%)" stroke-opacity="1" stroke-miterlimit="10" d="M 306.000162 -25.510981 L 313.371018 -25.510981 " transform="matrix(0.995263, 0, 0, -0.995263, 172.226792, 57.250497)"/>
<path fill-rule="nonzero" fill="rgb(63.526917%, 63.920593%, 100%)" fill-opacity="1" stroke-width="1.70076" stroke-linecap="butt" stroke-linejoin="miter" stroke="rgb(63.526917%, 63.920593%, 100%)" stroke-opacity="1" stroke-miterlimit="10" d="M 4.145472 -0.000969107 C 3.639167 0.132476 1.398082 0.886045 0.00083777 1.710262 L 0.00083777 -1.708276 C 1.398082 -0.887984 3.639167 -0.134414 4.145472 -0.000969107 Z M 4.145472 -0.000969107 " transform="matrix(-0.995263, 0, 0, 0.995263, 476.778178, 82.64159)"/>
<path fill-rule="nonzero" fill="rgb(63.526917%, 63.920593%, 100%)" fill-opacity="1" stroke-width="1.70076" stroke-linecap="butt" stroke-linejoin="miter" stroke="rgb(63.526917%, 63.920593%, 100%)" stroke-opacity="1" stroke-miterlimit="10" d="M 4.148347 0.000969107 C 3.638117 0.134414 1.400957 0.887984 -0.000212404 1.708276 L -0.000212404 -1.710262 C 1.400957 -0.886045 3.638117 -0.132476 4.148347 0.000969107 Z M 4.148347 0.000969107 " transform="matrix(0.995263, 0, 0, -0.995263, 484.113493, 82.64159)"/>
<g fill="rgb(0%, 0%, 0%)" fill-opacity="1">
<use xlink:href="#glyph-0-35" x="496.122104" y="66.94137"/>
<use xlink:href="#glyph-0-28" x="505.211555" y="66.94137"/>
</g>
<path fill="none" stroke-width="0.398" stroke-linecap="butt" stroke-linejoin="miter" stroke="rgb(0%, 0%, 0%)" stroke-opacity="1" stroke-miterlimit="10" d="M -0.00170269 0.00113058 L 2.989028 0.00113058 " transform="matrix(0.995263, 0, 0, -0.995263, 510.763413, 66.743313)"/>
<g fill="rgb(0%, 0%, 0%)" fill-opacity="1">
<use xlink:href="#glyph-0-21" x="513.738254" y="66.94137"/>
<use xlink:href="#glyph-0-22" x="521.174807" y="66.94137"/>
<use xlink:href="#glyph-0-23" x="528.61136" y="66.94137"/>
<use xlink:href="#glyph-0-15" x="532.191813" y="66.94137"/>
</g>
<g fill="rgb(0%, 0%, 0%)" fill-opacity="1">
<use xlink:href="#glyph-0-13" x="496.122104" y="78.840731"/>
<use xlink:href="#glyph-0-28" x="499.978204" y="78.840731"/>
</g>
<g fill="rgb(0%, 0%, 0%)" fill-opacity="1">
<use xlink:href="#glyph-0-6" x="508.237736" y="78.840731"/>
<use xlink:href="#glyph-0-31" x="512.644142" y="78.840731"/>
<use xlink:href="#glyph-0-33" x="518.15314" y="78.840731"/>
<use xlink:href="#glyph-0-17" x="520.90764" y="78.840731"/>
<use xlink:href="#glyph-0-32" x="526.14099" y="78.840731"/>
<use xlink:href="#glyph-0-6" x="531.098692" y="78.840731"/>
<use xlink:href="#glyph-0-33" x="535.505098" y="78.840731"/>
<use xlink:href="#glyph-0-34" x="538.259597" y="78.840731"/>
<use xlink:href="#glyph-0-25" x="543.492948" y="78.840731"/>
</g>
<g fill="rgb(0%, 0%, 0%)" fill-opacity="1">
<use xlink:href="#glyph-0-7" x="496.122104" y="90.739097"/>
<use xlink:href="#glyph-0-10" x="501.631102" y="90.739097"/>
<use xlink:href="#glyph-0-6" x="506.037508" y="90.739097"/>
<use xlink:href="#glyph-0-12" x="510.443914" y="90.739097"/>
<use xlink:href="#glyph-0-16" x="513.198413" y="90.739097"/>
<use xlink:href="#glyph-0-30" x="521.460919" y="90.739097"/>
<use xlink:href="#glyph-0-26" x="526.418621" y="90.739097"/>
<use xlink:href="#glyph-0-10" x="530.274722" y="90.739097"/>
<use xlink:href="#glyph-0-7" x="534.681128" y="90.739097"/>
<use xlink:href="#glyph-0-25" x="540.190126" y="90.739097"/>
</g>
<g fill="rgb(0%, 0%, 0%)" fill-opacity="1">
<use xlink:href="#glyph-0-26" x="496.122104" y="102.637462"/>
<use xlink:href="#glyph-0-2" x="499.978204" y="102.637462"/>
</g>
<g fill="rgb(0%, 0%, 0%)" fill-opacity="1">
<use xlink:href="#glyph-0-30" x="508.237736" y="102.637462"/>
</g>
<g fill="rgb(0%, 0%, 0%)" fill-opacity="1">
<use xlink:href="#glyph-0-9" x="512.927722" y="102.637462"/>
<use xlink:href="#glyph-0-24" x="518.161073" y="102.637462"/>
</g>
<path fill="none" stroke-width="0.398" stroke-linecap="butt" stroke-linejoin="miter" stroke="rgb(0%, 0%, 0%)" stroke-opacity="1" stroke-miterlimit="10" d="M -0.00177261 0.00191421 L 2.988958 0.00191421 " transform="matrix(0.995263, 0, 0, -0.995263, 523.708795, 102.439405)"/>
<g fill="rgb(0%, 0%, 0%)" fill-opacity="1">
<use xlink:href="#glyph-0-37" x="526.683636" y="102.637462"/>
<use xlink:href="#glyph-0-38" x="532.192634" y="102.637462"/>
<use xlink:href="#glyph-0-39" x="537.701633" y="102.637462"/>
<use xlink:href="#glyph-0-10" x="543.485288" y="102.637462"/>
<use xlink:href="#glyph-0-11" x="547.891694" y="102.637462"/>
<use xlink:href="#glyph-0-19" x="551.775558" y="102.637462"/>
</g>
</svg>
