<?xml version="1.0" encoding="UTF-8" standalone="no"?>
<!-- Created with Inkscape (http://www.inkscape.org/) -->

<svg
   version="1.1"
   id="svg1116"
   xml:space="preserve"
   width="294.0083"
   height="296.38055"
   viewBox="0 0 294.0083 296.38055"
   sodipodi:docname="logoQICK.svg"
   inkscape:version="1.1 (c4e8f9e, 2021-05-24)"
   xmlns:inkscape="http://www.inkscape.org/namespaces/inkscape"
   xmlns:sodipodi="http://sodipodi.sourceforge.net/DTD/sodipodi-0.dtd"
   xmlns="http://www.w3.org/2000/svg"
   xmlns:svg="http://www.w3.org/2000/svg"><defs
     id="defs1120"><linearGradient
       x1="39.6875"
       y1="76.729164"
       x2="39.6875"
       y2="59.53125"
       gradientUnits="userSpaceOnUse"
       gradientTransform="scale(2.834646)"
       spreadMethod="pad"
       id="linearGradient1146"><stop
         style="stop-opacity:1;stop-color:#16502d"
         offset="0"
         id="stop1142" /><stop
         style="stop-opacity:1;stop-color:#37c871"
         offset="1"
         id="stop1144" /></linearGradient><linearGradient
       x1="39.6875"
       y1="76.729164"
       x2="39.6875"
       y2="59.53125"
       gradientUnits="userSpaceOnUse"
       gradientTransform="scale(2.834646)"
       spreadMethod="pad"
       id="linearGradient1164"><stop
         style="stop-opacity:1;stop-color:#16502d"
         offset="0"
         id="stop1160" /><stop
         style="stop-opacity:1;stop-color:#37c871"
         offset="1"
         id="stop1162" /></linearGradient><linearGradient
       x1="39.6875"
       y1="76.729164"
       x2="39.6875"
       y2="59.53125"
       gradientUnits="userSpaceOnUse"
       gradientTransform="scale(2.834646)"
       spreadMethod="pad"
       id="linearGradient1182"><stop
         style="stop-opacity:1;stop-color:#16502d"
         offset="0"
         id="stop1178" /><stop
         style="stop-opacity:1;stop-color:#37c871"
         offset="1"
         id="stop1180" /></linearGradient><linearGradient
       x1="39.6875"
       y1="76.729164"
       x2="39.6875"
       y2="59.53125"
       gradientUnits="userSpaceOnUse"
       gradientTransform="scale(2.834646)"
       spreadMethod="pad"
       id="linearGradient1200"><stop
         style="stop-opacity:1;stop-color:#16502d"
         offset="0"
         id="stop1196" /><stop
         style="stop-opacity:1;stop-color:#37c871"
         offset="1"
         id="stop1198" /></linearGradient></defs><sodipodi:namedview
     id="namedview1118"
     pagecolor="#ffffff"
     bordercolor="#666666"
     borderopacity="1.0"
     inkscape:pageshadow="2"
     inkscape:pageopacity="0.0"
     inkscape:pagecheckerboard="0"
     showgrid="false"
     inkscape:zoom="0.41948399"
     inkscape:cx="-113.23436"
     inkscape:cy="399.30011"
     inkscape:window-width="1338"
     inkscape:window-height="1035"
     inkscape:window-x="52"
     inkscape:window-y="23"
     inkscape:window-maximized="0"
     inkscape:current-layer="g1122" /><g
     id="g1122"
     inkscape:groupmode="layer"
     inkscape:label="logoQICK_v5"
     transform="matrix(1.3333333,0,0,1.3333333,-3.0067787,-1.7067925)"><g
       id="g1124"><path
         d="m 187.742,87.184 c 0,41.675 -33.785,75.461 -75.461,75.461 -41.676,0 -75.461,-33.786 -75.461,-75.461 0,-41.68 33.785,-75.465 75.461,-75.465 41.676,0 75.461,33.785 75.461,75.465 z"
         style="fill:#e6f1f2;fill-opacity:1;fill-rule:nonzero;stroke:none"
         id="path1126" /><g
         id="g1128"><path
           d="M 0,0 H 225 V 225 H 0 Z"
           style="fill:none;stroke:#999999;stroke-width:0.749999;stroke-linecap:butt;stroke-linejoin:miter;stroke-miterlimit:4;stroke-dasharray:none;stroke-opacity:1"
           id="path1130" /></g><g
         id="g1132"><g
           id="g1134"><g
             id="g1140"><path
               d="m 28.613,219.965 c -3.531,0 -6.742,-1.445 -9.625,-4.344 -2.886,-2.906 -4.328,-6.176 -4.328,-9.812 v -13.907 c 0,-2.207 0.676,-4.398 2.031,-6.578 1.352,-2.176 3.102,-3.945 5.25,-5.312 2.145,-1.364 4.297,-2.047 6.454,-2.047 h 28.187 c 3.582,0 6.82,1.465 9.719,4.39 2.894,2.93 4.344,6.11 4.344,9.547 v 13.907 c 0,3.668 -1.434,6.937 -4.297,9.812 l 2.578,2.578 c 0.687,0.688 1.031,1.512 1.031,2.469 0,1.008 -0.371,1.894 -1.109,2.656 -0.719,0.789 -1.637,1.188 -2.75,1.188 -0.907,0 -1.715,-0.356 -2.422,-1.063 -2.156,-2.156 -3.469,-3.453 -3.938,-3.89 -0.929,0.273 -1.98,0.406 -3.156,0.406 z m -6.937,-28.016 v 13.86 c 0,1.918 0.726,3.589 2.187,5.015 1.469,1.418 3.051,2.125 4.75,2.125 h 24.61 l -3.5,-3.406 5.172,-5.406 c 2.019,1.992 4.222,4.203 6.609,6.64 1.445,-1.445 2.172,-3.101 2.172,-4.968 v -13.86 c 0,-1.851 -0.715,-3.476 -2.141,-4.875 -1.418,-1.394 -3.07,-2.094 -4.953,-2.094 H 28.613 c -1.679,0 -3.258,0.735 -4.734,2.204 -1.469,1.461 -2.203,3.046 -2.203,4.765 z"
               style="fill:url(#linearGradient1146);stroke:none"
               id="path1148" /></g></g></g><g
         id="g1150"><g
           id="g1152"><g
             id="g1158"><path
               d="m 84.676,216.48 c 0,0.981 -0.344,1.809 -1.031,2.485 -0.68,0.668 -1.512,1 -2.5,1 -0.981,0 -1.809,-0.332 -2.485,-1 -0.668,-0.676 -1,-1.504 -1,-2.485 v -35.031 c 0,-0.875 0.36,-1.672 1.078,-2.39 0.727,-0.727 1.532,-1.094 2.407,-1.094 0.906,0 1.707,0.355 2.406,1.062 0.695,0.711 1.047,1.516 1.047,2.422 0,4.563 0.007,10.403 0.031,17.516 0.031,7.105 0.047,12.945 0.047,17.515 z"
               style="fill:url(#linearGradient1164);stroke:none"
               id="path1166" /></g></g></g><g
         id="g1168"><g
           id="g1170"><g
             id="g1176"><path
               d="M 143.902,219.965 H 105.59 c -3.856,0 -7.152,-1.363 -9.891,-4.094 -2.73,-2.738 -4.094,-6.035 -4.094,-9.891 v -13.75 c 0,-3.875 1.364,-7.218 4.094,-10.031 2.739,-2.82 6.035,-4.234 9.891,-4.234 h 38.312 c 0.707,0 1.321,0.121 1.844,0.359 0.52,0.231 0.895,0.516 1.125,0.86 0.238,0.336 0.426,0.671 0.563,1.015 0.132,0.344 0.203,0.637 0.203,0.875 l 0.031,0.328 c 0,0.149 -0.016,0.313 -0.047,0.5 -0.023,0.188 -0.101,0.481 -0.234,0.875 -0.137,0.399 -0.325,0.746 -0.563,1.047 -0.23,0.305 -0.605,0.574 -1.125,0.813 -0.511,0.23 -1.109,0.343 -1.797,0.343 H 105.59 c -1.918,0 -3.539,0.68 -4.86,2.032 -1.324,1.355 -1.984,3 -1.984,4.937 0,1.836 -0.023,4.172 -0.062,7.016 -0.043,2.844 -0.063,5.183 -0.063,7.015 0,1.938 0.676,3.586 2.031,4.938 1.352,1.355 3,2.031 4.938,2.031 h 38.312 c 0.688,0 1.286,0.125 1.797,0.375 0.52,0.242 0.895,0.512 1.125,0.813 0.238,0.304 0.426,0.648 0.563,1.031 0.133,0.387 0.211,0.672 0.234,0.859 0.031,0.188 0.047,0.34 0.047,0.453 0,0.086 -0.008,0.211 -0.016,0.375 -0.011,0.157 -0.093,0.434 -0.25,0.829 -0.148,0.398 -0.34,0.757 -0.578,1.078 -0.23,0.312 -0.605,0.593 -1.125,0.843 -0.511,0.243 -1.109,0.36 -1.797,0.36 z"
               style="fill:url(#linearGradient1182);stroke:none"
               id="path1184" /></g></g></g><g
         id="g1186"><g
           id="g1188"><g
             id="g1194"><path
               d="m 161.621,216.48 c 0,0.981 -0.344,1.809 -1.031,2.485 -0.68,0.668 -1.512,1 -2.5,1 -0.981,0 -1.809,-0.332 -2.485,-1 -0.667,-0.676 -1,-1.504 -1,-2.485 v -35.031 c 0,-0.875 0.36,-1.672 1.079,-2.39 0.726,-0.727 1.531,-1.094 2.406,-1.094 0.906,0 1.707,0.355 2.406,1.062 0.695,0.711 1.047,1.516 1.047,2.422 0,3.531 0.008,7.969 0.031,13.313 0.031,5.343 0.047,9.328 0.047,11.953 17.195,-11.039 31.828,-20.5 43.891,-28.375 0.406,-0.25 0.937,-0.375 1.593,-0.375 1.426,0 2.454,0.562 3.079,1.687 0.269,0.543 0.406,1.102 0.406,1.672 0,1.43 -0.531,2.453 -1.594,3.078 -10.992,7.137 -18.527,12.016 -22.609,14.641 4.156,2.625 11.691,7.48 22.609,14.562 1.063,0.625 1.594,1.653 1.594,3.079 0,0.574 -0.137,1.136 -0.406,1.687 -0.606,1.063 -1.633,1.594 -3.079,1.594 -0.742,0 -1.273,-0.094 -1.593,-0.281 -9.492,-6.239 -17.981,-11.766 -25.469,-16.579 -1.781,1.149 -4.684,3.032 -8.703,5.657 -4.024,2.625 -7.262,4.734 -9.719,6.328 z"
               style="fill:url(#linearGradient1200);stroke:none"
               id="path1202" /></g></g></g><g
         id="g1204"><path
           d="m 112.473,162.414 c 0.043,0.008 0.089,0.012 0.132,0.02 8.747,-0.004 15.836,-33.661 15.836,-75.176 0,-41.516 -7.089,-75.176 -15.836,-75.176 -0.043,0.008 -0.089,0.012 -0.132,0.02"
           style="fill:none;stroke:#b3b3b3;stroke-width:1.30334;stroke-linecap:butt;stroke-linejoin:miter;stroke-miterlimit:4;stroke-dasharray:none;stroke-opacity:1"
           id="path1206" /></g><g
         id="g1208"><path
           d="m 187.395,86.508 c 0.007,-0.047 0.011,-0.09 0.019,-0.137 -0.004,-8.746 -33.66,-15.836 -75.176,-15.836 -41.515,0 -75.176,7.09 -75.176,15.836 0.008,0.047 0.012,0.09 0.02,0.137"
           style="fill:none;stroke:#b3b3b3;stroke-width:1.30334;stroke-linecap:butt;stroke-linejoin:miter;stroke-miterlimit:4;stroke-dasharray:none;stroke-opacity:1"
           id="path1210" /></g><g
         id="g1212"><path
           d="m 37.105,86.371 c 0.348,8.691 33.891,15.703 75.153,15.703 41.262,0 74.804,-7.012 75.156,-15.703"
           style="fill:none;stroke:#000000;stroke-width:1.30334;stroke-linecap:butt;stroke-linejoin:miter;stroke-miterlimit:4;stroke-dasharray:none;stroke-opacity:1"
           id="path1214" /></g><path
         d="m 163.918,134.613 c -0.012,0.012 -0.012,0.071 -0.504,0.567 -0.766,0.769 -3.574,4.031 -11.836,9.355 -3.93,2.535 -8.812,5.207 -14.613,7.461 -6.332,2.461 -12.973,4.113 -19.863,4.91 0,0 -0.188,0.024 -0.188,0.024 -13.289,1.492 -28.316,0.465 -41.922,-1.965 -7.781,-1.391 -14.219,-3.082 -18.961,-4.606 -1.039,-0.332 -1.996,-0.656 -2.871,-0.968 -6.121,-2.18 -9.644,-4.262 -11.246,-5.211 1.762,0.73 5.5,2.058 11.695,3.816 0.879,0.25 1.84,0.516 2.883,0.793 4.754,1.27 11.156,2.781 18.867,4.008 13.5,2.152 28.305,2.988 41.184,1.18 0.059,-0.008 0.121,-0.016 0.18,-0.028 6.605,-0.929 12.929,-2.719 18.882,-5.281 5.45,-2.348 9.989,-5.086 13.583,-7.656 7.55,-5.414 9.785,-8.657 10.363,-9.36 0.371,-0.453 0.371,-0.418 0.359,-0.406 2.242,-2.668 6.25,0.695 4.008,3.367 z"
         style="fill:#4d4d4d;fill-opacity:1;fill-rule:nonzero;stroke:none"
         id="path1216" /><g
         id="g1218"><path
           d="m 188.012,87.574 c 0,41.676 -33.785,75.461 -75.461,75.461 -41.68,0 -75.465,-33.785 -75.465,-75.461 0,-41.676 33.785,-75.461 75.465,-75.461 41.676,0 75.461,33.785 75.461,75.461 z"
           style="fill:none;stroke:#000000;stroke-width:1.30334;stroke-linecap:butt;stroke-linejoin:miter;stroke-miterlimit:4;stroke-dasharray:none;stroke-opacity:1"
           id="path1220" /></g><g
         id="g1222"><path
           d="m 112.473,12.102 c -8.696,0.351 -15.703,33.894 -15.703,75.156 0,41.262 7.007,74.804 15.703,75.156"
           style="fill:none;stroke:#000000;stroke-width:1.30334;stroke-linecap:butt;stroke-linejoin:miter;stroke-miterlimit:4;stroke-dasharray:none;stroke-opacity:1"
           id="path1224" /></g><path
         d="m 176.004,144.246 c -0.016,0.02 0.004,0.102 -0.59,0.684 -1.004,0.984 -4.988,5.761 -17.824,12.945 -5.895,3.297 -13.223,6.582 -21.981,8.969 -9.609,2.617 -19.718,3.82 -30.269,3.594 0,0 -0.278,-0.012 -0.281,-0.012 -8.434,-0.36 -15.145,-0.781 -21.168,-1.906 -4.215,-0.786 -7.43,-1.809 -9.786,-2.856 -2.863,-1.269 -4.929,-2.793 -5.941,-3.484 1.242,0.508 3.445,1.222 6.449,2.109 2.438,0.719 5.469,1.59 9.621,2.277 5.774,0.957 12.582,1.36 20.852,1.172 0,0 0.281,-0.008 0.281,-0.008 10.289,-0.035 20.067,-1.589 29.153,-4.539 8.285,-2.691 15.074,-6.246 20.39,-9.742 11.59,-7.617 14.367,-12.515 15.035,-13.402 0.399,-0.524 0.395,-0.453 0.379,-0.434 3.09,-3.785 8.77,0.848 5.68,4.633 z"
         style="fill:#4d4d4d;fill-opacity:1;fill-rule:nonzero;stroke:none"
         id="path1226" /><path
         d="m 167.871,141.875 c -0.016,0.023 -0.019,0.152 -0.707,0.805 -0.914,0.871 -3.746,3.726 -11.324,8.328 -8.574,5.207 -20.164,10.183 -35.211,12.574 -0.238,0.035 -0.477,0.066 -0.715,0.098 -3.117,0.406 -6.562,0.699 -10.238,0.812 -3.946,0.125 -7.867,0.028 -11.563,-0.297 -4.379,-0.379 -8.031,-1.039 -10.879,-1.824 -0.613,-0.168 -1.179,-0.34 -1.703,-0.512 -3.679,-1.222 -5.82,-2.711 -6.867,-3.429 1.254,0.511 3.539,1.199 7.258,2.015 0.523,0.114 1.082,0.235 1.691,0.356 2.825,0.578 6.348,1.156 10.657,1.484 3.617,0.281 7.468,0.356 11.324,0.164 3.59,-0.176 6.957,-0.574 9.926,-1.168 0.226,-0.047 0.453,-0.093 0.683,-0.14 14.539,-2.789 25.543,-8.434 33.039,-14 6.688,-4.969 8.629,-7.969 9.25,-8.77 0.469,-0.598 0.488,-0.547 0.469,-0.523 2.687,-3.27 7.59,0.754 4.91,4.027 z"
         style="fill:#737373;fill-opacity:1;fill-rule:nonzero;stroke:none"
         id="path1228" /><path
         d="m 90.598,80.609 c 0,-0.007 -0.024,-0.015 -0.032,-0.457 -0.015,-0.683 -0.152,-3.343 0.036,-10.519 0.21,-7.891 0.875,-17.774 2.535,-28.789 0,0 0.015,-0.117 0.015,-0.117 0.618,-3.922 1.434,-7.59 2.551,-11.079 1.125,-3.515 2.485,-6.636 4.055,-9.535 1.84,-3.39 3.898,-6.324 5.789,-8.707 0.414,-0.523 0.82,-1.019 1.207,-1.48 2.621,-3.114 5.535,-5.856 6.773,-7.086 -1.117,1.476 -3.308,4.605 -5.605,7.972 -0.332,0.493 -0.688,1.012 -1.047,1.559 -1.668,2.5 -3.496,5.422 -5.133,8.766 -1.394,2.843 -2.586,5.867 -3.551,9.261 -0.957,3.368 -1.632,6.922 -2.089,10.735 0,0 -0.016,0.113 -0.016,0.113 -1.348,10.875 -1.715,20.707 -1.598,28.41 0.11,7.035 0.485,9.563 0.559,10.192 0.047,0.406 0.031,0.394 0.027,0.39 0.106,1.239 -0.816,2.321 -2.051,2.422 -1.238,0.102 -2.32,-0.816 -2.425,-2.051 z"
         style="fill:#4d4d4d;fill-opacity:1;fill-rule:nonzero;stroke:none"
         id="path1230" /><path
         d="m 95.559,116.844 c 0,0 -0.02,0.011 0.003,-0.184 0.047,-0.344 0.126,-0.781 0.348,-3.191 0.301,-3.199 0.711,-8.192 1.008,-11.391 0.387,-4.238 0.855,-8.992 1.426,-13.785 0.64,-5.375 1.316,-9.988 2.031,-13.941 0,0 0.051,-0.278 0.051,-0.282 2.804,-15.367 6.176,-27.562 9.894,-36.238 1.66,-3.875 3.379,-6.816 4.149,-8.23 -0.504,1.429 -1.535,4.859 -2.774,8.742 -2.933,9.203 -6.488,20.465 -8.617,36.148 0,0 -0.035,0.281 -0.035,0.281 -0.52,3.864 -0.965,8.528 -1.309,13.832 -0.304,4.758 -0.5,9.508 -0.605,13.719 -0.129,5.207 -0.117,9.086 -0.07,11.328 0.046,2.262 0.129,2.934 0.144,3.157 0.016,0.187 -0.004,0.171 -0.004,0.171 -0.09,3.762 -5.73,3.625 -5.64,-0.136 z"
         style="fill:#4d4d4d;fill-opacity:1;fill-rule:nonzero;stroke:none"
         id="path1232" /><path
         d="m 100.609,40.34 c 0,0 -0.043,-0.035 0.121,-0.434 0.247,-0.597 1.301,-3.105 3.028,-7.344 0.859,-2.105 1.781,-4.316 2.687,-6.3 0.477,-1.039 0.922,-1.961 1.336,-2.758 0.344,-0.66 0.653,-1.211 0.938,-1.668 0.097,-0.164 0.199,-0.32 0.297,-0.469 1.328,-1.875 2.847,-4.265 4.425,-6.398 0.344,-0.465 0.688,-0.914 1.032,-1.348 1.968,-2.476 3.543,-4.055 4.781,-5.125 -1.094,1.168 -2.547,2.93 -4.18,5.551 -0.289,0.465 -0.582,0.941 -0.871,1.43 -1.355,2.293 -2.578,4.675 -3.465,6.839 -0.058,0.137 -0.121,0.286 -0.179,0.446 -0.176,0.441 -0.368,0.992 -0.582,1.664 -0.254,0.804 -0.532,1.754 -0.825,2.82 -0.55,2.031 -1.113,4.336 -1.593,6.508 -1.114,4.992 -1.313,6.844 -1.442,7.672 -0.062,0.414 -0.113,0.41 -0.113,0.41 -0.996,3.598 -6.391,2.102 -5.395,-1.496 z"
         style="fill:#737373;fill-opacity:1;fill-rule:nonzero;stroke:none"
         id="path1234" /><path
         d="m 172.656,111.031 18.266,4.571 c 0.574,0.144 0.922,0.722 0.777,1.296 l -4.566,18.266 c -0.145,0.574 -0.723,0.922 -1.297,0.777 l -18.266,-4.566 c -0.578,-0.145 -0.922,-0.723 -0.781,-1.301 l 4.57,-18.265 c 0.145,-0.575 0.723,-0.922 1.297,-0.778 z"
         style="fill:#1a1a1a;fill-opacity:1;fill-rule:nonzero;stroke:none"
         id="path1236" /><path
         d="m 174.352,115.371 0.441,-1.797 13.156,3.293 -0.414,1.793 1.758,0.442 -3.293,13.156 -1.836,-0.403 -0.398,1.747 -13.157,-3.293 0.45,-1.766 -1.793,-0.473 3.293,-13.152 z"
         style="fill:#217844;fill-opacity:1;fill-rule:nonzero;stroke:none"
         id="path1238" /><path
         d="m 175.062,117.93 10.879,2.722 c 0.575,0.145 0.922,0.723 0.778,1.297 l -1.567,6.262 c -0.144,0.574 -0.722,0.922 -1.297,0.777 l -10.878,-2.718 c -0.575,-0.145 -0.922,-0.723 -0.778,-1.297 l 1.567,-6.262 c 0.144,-0.578 0.722,-0.922 1.296,-0.781 z"
         style="fill:#262626;fill-opacity:1;fill-rule:nonzero;stroke:none"
         id="path1240" /></g></g></svg>
