<svg xmlns="http://www.w3.org/2000/svg" xmlns:xlink="http://www.w3.org/1999/xlink" xmlns:lucid="lucid" width="2040" height="776.33"><g transform="translate(0 0)" lucid:page-tab-id="0_0"><path d="M544 220v200l132-40V260z" stroke="#5e5e5e" stroke-width="3" fill="#fff"/><path d="M500 220h220v200H500z" fill="none"/><path d="M676 320h44M588 406.67V420m44-26.67V420M544 260h-44zM544 320h-44zM544 380h-44z" stroke="#5e5e5e" stroke-width="3" fill="#fff"/><path d="M280 166c0-3.3 2.7-6 6-6h1023c3.3 0 6 2.7 6 6v307.5c0 3.3-2.7 6-6 6H286c-3.3 0-6-2.7-6-6z" fill-opacity="0"/><path d="M315.65 160h29.65m14.83 0h29.65m14.83 0h29.66m14.83 0h29.64m14.83 0h29.65m14.82 0h29.66m14.82 0h29.65m14.83 0h29.65m14.83 0h29.65m14.83 0h29.65m14.83 0h29.66m14.8 0h29.67m14.82 0h29.64m14.83 0h29.65m14.83 0H968m14.83 0h29.65m14.82 0h29.66m14.82 0h29.65m14.83 0h29.65m14.84 0h29.65m14.82 0h29.65m14.83 0h29.65m14.82 0H1309l3.03.82 2.15 2.15.82 3.03v14.64m0 14.65v29.27m0 14.64v29.3m0 14.64v29.3m0 14.63v29.3m0 14.63v29.3m0 14.63v29.28m0 14.66v14.64l-.82 3.03-2.15 2.15-3.03.82h-14.83m-14.82 0h-29.65m-14.83 0h-29.65m-14.83 0h-29.66m-14.83 0h-29.64m-14.83 0h-29.65m-14.82 0h-29.66m-14.82 0h-29.65m-14.83 0h-29.65m-14.83 0h-29.65m-14.83 0H849.4m-14.83 0H804.9m-14.8 0h-29.67m-14.82 0h-29.64m-14.83 0h-29.65m-14.83 0H627m-14.83 0h-29.65m-14.82 0h-29.66m-14.82 0h-29.65m-14.83 0H449.1m-14.84 0H404.6m-14.82 0h-29.65m-14.83 0h-29.65m-14.82 0H286l-3.03-.82-2.15-2.15-.82-3.03v-14.64m0-14.65v-29.27m0-14.64V371m0-14.64v-29.3m0-14.63v-29.3m0-14.63v-29.3m0-14.63V195.3m0-14.66V166l.82-3.03 2.15-2.15L286 160h14.83" stroke="#5e5e5e" stroke-width="3" fill="none"/><path d="M1725 215h295v50h-295z" fill="none"/><use xlink:href="#a" transform="matrix(1,0,0,1,1725,215) translate(7.477213541666629 31.66232638888889)"/><path d="M581.83 96.5h535v60h-535z" fill="none"/><use xlink:href="#b" transform="matrix(1,0,0,1,581.8333333333333,96.5) translate(189.93827160493828 34.44444444444444)"/><use xlink:href="#c" transform="matrix(1,0,0,1,581.8333333333333,96.5) translate(284.69135802469134 34.44444444444444)"/><path d="M780 20h682.67v60H780z" fill="none"/><use xlink:href="#d" transform="matrix(1,0,0,1,780,20) translate(28.938271604938393 38.44444444444444)"/><use xlink:href="#e" transform="matrix(1,0,0,1,780,20) translate(191.61111111111114 38.44444444444444)"/><use xlink:href="#f" transform="matrix(1,0,0,1,780,20) translate(381.25925925925924 38.44444444444444)"/><use xlink:href="#g" transform="matrix(1,0,0,1,780,20) translate(494.90740740740733 38.44444444444444)"/><path d="M548.75 307.5h122.5v20h-122.5z" fill="none"/><use xlink:href="#h" transform="matrix(1,0,0,1,548.75,307.5) translate(4.216049382716051 17.77777777777778)"/><use xlink:href="#i" transform="matrix(1,0,0,1,548.75,307.5) translate(57.17901234567901 17.77777777777778)"/><use xlink:href="#j" transform="matrix(1,0,0,1,548.75,307.5) translate(71.99382716049382 17.77777777777778)"/><path d="M480 173h240v60H480z" fill="none"/><use xlink:href="#k" transform="matrix(1,0,0,1,480,173) translate(38.672839506172835 34.44444444444444)"/><use xlink:href="#l" transform="matrix(1,0,0,1,480,173) translate(94.22839506172839 34.44444444444444)"/><path d="M1400 100h240v60h-240z" fill="none"/><use xlink:href="#m" transform="matrix(1,0,0,1,1400,100) translate(40.9567901234568 34.44444444444444)"/><use xlink:href="#n" transform="matrix(1,0,0,1,1400,100) translate(133.85802469135803 34.44444444444444)"/><path d="M570 360h60v20h-60z" fill="none"/><use xlink:href="#o" transform="matrix(1,0,0,1,570,360) translate(6.60493827160494 17.77777777777778)"/><path d="M242.67 274.83H260v32.67h-17.33z" fill="none"/><use xlink:href="#p" transform="matrix(1,0,0,1,242.66666666666663,274.8333333333333) translate(2.8271604938271606 20.944444444444443)"/><path d="M148 279.5c17.67 0 32 17.9 32 40s-14.33 40-32 40H52c-17.67 0-32-17.9-32-40s14.33-40 32-40z" stroke="#5e5e5e" stroke-width="3" fill="#fff"/><use xlink:href="#q" transform="matrix(1,0,0,1,25,284.5) translate(51.60493827160494 39.65277777777778)"/><path d="M420 319.5c0 22.1-17.9 40-40 40s-40-17.9-40-40 17.9-40 40-40 40 17.9 40 40zm-68.3-28.3l56.6 56.6m-56.6 0l56.6-56.6M428.67 520c17.67 0 32 17.9 32 40s-14.33 40-32 40h-96c-17.68 0-32-17.9-32-40s14.32-40 32-40z" stroke="#5e5e5e" stroke-width="3" fill="#fff"/><use xlink:href="#o" transform="matrix(1,0,0,1,305.66666666666663,525) translate(51.60493827160494 39.65277777777778)"/><path d="M557.5 260h85v20.5h-85z" fill="none"/><use xlink:href="#q" transform="matrix(1,0,0,1,557.5,260) translate(19.10493827160494 17.77777777777778)"/><path d="M423.5 319.5h37c.14 0 .25.1.25.25 0 .14.1.25.25.25h16.26" stroke="#5e5e5e" stroke-width="4" fill="none"/><path d="M423.55 321.5h-2.17l.12-1.98-.07-2.02h2.12z" fill="#5e5e5e"/><path d="M493.53 320l-14.27 4.64v-9.28z" stroke="#5e5e5e" stroke-width="4" fill="#5e5e5e"/><path d="M183.5 319.5h132.26" stroke="#5e5e5e" stroke-width="4" fill="none"/><path d="M183.55 321.5h-2.17l.12-1.98-.07-2.02h2.12z" fill="#5e5e5e"/><path d="M332.03 319.5l-14.27 4.64v-9.28z" stroke="#5e5e5e" stroke-width="4" fill="#5e5e5e"/><path d="M183.5 319.5H294c3.3 0 6-2.7 6-6V266c0-3.3 2.7-6 6-6h171.26" stroke="#5e5e5e" stroke-width="4" fill="none"/><path d="M183.55 321.5h-2.17l.12-1.98-.07-2.02h2.12z" fill="#5e5e5e"/><path d="M493.53 260l-14.27 4.64v-9.28z" stroke="#5e5e5e" stroke-width="4" fill="#5e5e5e"/><path d="M380.67 516.5v-76.42c0-.18-.15-.33-.34-.33-.18 0-.33-.15-.33-.33v-55.68" stroke="#5e5e5e" stroke-width="4" fill="none"/><path d="M382.67 518.5h-4v-2.05h4z" fill="#5e5e5e"/><path d="M380 367.47l4.64 14.27h-9.28z" stroke="#5e5e5e" stroke-width="4" fill="#5e5e5e"/><path d="M380.67 516.5V436c0-3.3 2.68-6 6-6H434c3.3 0 6-2.7 6-6v-38c0-3.3 2.7-6 6-6h31.26" stroke="#5e5e5e" stroke-width="4" fill="none"/><path d="M382.67 518.5h-4v-2.05h4z" fill="#5e5e5e"/><path d="M493.53 380l-14.27 4.64v-9.28z" stroke="#5e5e5e" stroke-width="4" fill="#5e5e5e"/><path d="M722 320h51.26" stroke="#5e5e5e" stroke-width="4" fill="none"/><path d="M722.05 322H717v-.5h3v-3h-3v-.5h5.05z" fill="#5e5e5e"/><path d="M789.53 320l-14.27 4.64v-9.28z" stroke="#5e5e5e" stroke-width="4" fill="#5e5e5e"/><path d="M1360 154.75c0-3.3 2.7-6 6-6h308c3.3 0 6 2.7 6 6V494c0 3.3-2.7 6-6 6h-308c-3.3 0-6-2.7-6-6z" fill-opacity="0"/><path d="M1395.33 148.75h29.34m14.66 0h29.34m14.66 0h29.34m14.66 0h29.34m14.66 0h29.34m14.66 0h29.34m14.66 0H1674l3.03.82 2.15 2.15.82 3.03v14.14m0 14.12v28.27m0 14.13v28.27m0 14.13v28.27m0 14.14v28.27m0 14.15v28.27m0 14.13v28.27m0 14.14v28.27m0 14.13V494l-.82 3.03-2.15 2.15-3.03.82h-14.67m-14.66 0h-29.34m-14.66 0h-29.34m-14.66 0h-29.34m-14.66 0h-29.34m-14.66 0h-29.34m-14.66 0h-29.34m-14.66 0H1366l-3.03-.82-2.15-2.15-.82-3.03v-14.14m0-14.13v-28.27m0-14.14v-28.27m0-14.13v-28.27m0-14.14v-28.26m0-14.14v-28.27m0-14.13v-28.27m0-14.14V183m0-14.13v-14.15l.82-3.03 2.15-2.15 3.03-.82h14.67" stroke="#5e5e5e" stroke-width="3" fill="none"/><g stroke="#5e5e5e" stroke-width="3"><path d="M1496 300c-8.84 0-16-26.86-16-60s7.16-60 16-60h128c8.84 0 16 26.86 16 60s-7.16 60-16 60z" fill="#fff"/><path d="M1496 180c8.84 0 16 26.86 16 60s-7.16 60-16 60" fill="none"/></g><use xlink:href="#r" transform="matrix(1,-2.4492935982947064e-16,2.4492935982947064e-16,1,1517,185.00000000000003) translate(3.7222222222222285 59.02777777777778)"/><use xlink:href="#s" transform="matrix(1,-2.4492935982947064e-16,2.4492935982947064e-16,1,1517,185.00000000000003) translate(55.51234567901235 59.02777777777778)"/><g stroke="#5e5e5e" stroke-width="3"><path d="M1496 479.5c-8.84 0-16-26.86-16-60s7.16-60 16-60h128c8.84 0 16 26.86 16 60s-7.16 60-16 60z" fill="#fff"/><path d="M1496 359.5c8.84 0 16 26.86 16 60s-7.16 60-16 60" fill="none"/></g><use xlink:href="#t" transform="matrix(1,-2.4492935982947064e-16,2.4492935982947064e-16,1,1517,364.5) translate(21.407407407407412 45.27777777777778)"/><use xlink:href="#s" transform="matrix(1,-2.4492935982947064e-16,2.4492935982947064e-16,1,1517,364.5) translate(29.617283950617285 71.94444444444446)"/><path d="M1300 319.17h104c3.3 0 6-2.7 6-6V246c0-3.3 2.7-6 6-6h44" stroke="#5e5e5e" stroke-width="2" fill="none"/><path d="M1300.03 320.17H1299v-2h1.03z" fill="#5e5e5e"/><path d="M1475.26 240l-14.26 4.64v-9.28z" stroke="#5e5e5e" stroke-width="2" fill="#5e5e5e"/><path d="M201.07 338.45l37.86-37.4M201.1 338.42l-1.1 1.08M238.9 301.08L240 300" stroke="#5e5e5e" stroke-width="3" fill="none"/><path d="M742.67 279.5H760v32.67h-17.33z" fill="none"/><use xlink:href="#p" transform="matrix(1,0,0,1,742.6666666666666,279.50000000000006) translate(2.8271604938271606 20.944444444444443)"/><path d="M701.07 343.1l37.86-37.38M701.1 343.1l-1.1 1.07M738.9 305.75l1.1-1.08" stroke="#5e5e5e" stroke-width="3" fill="none"/><path d="M1300 319.17h104c3.3 0 6 2.68 6 6v88.33c0 3.3 2.7 6 6 6h44" stroke="#5e5e5e" stroke-width="2" fill="none"/><path d="M1300.03 320.17H1299v-2h1.03z" fill="#5e5e5e"/><path d="M1475.26 419.5l-14.26 4.64v-9.28z" stroke="#5e5e5e" stroke-width="2" fill="#5e5e5e"/><path d="M1377.67 274.83H1395v32.67h-17.33z" fill="none"/><use xlink:href="#u" transform="matrix(1,0,0,1,1377.6666666666665,274.8333333333333) translate(2.8271604938271606 20.944444444444443)"/><path d="M609.33 640h480v116.33h-480z" stroke="#c92d39" stroke-width="3" fill="#fff"/><use xlink:href="#v" transform="matrix(1,0,0,1,614.3333333333333,645.0000000000001) translate(167.74691358024694 37.84027777777778)"/><use xlink:href="#w" transform="matrix(1,0,0,1,614.3333333333333,645.0000000000001) translate(240.58641975308643 37.84027777777778)"/><use xlink:href="#x" transform="matrix(1,0,0,1,614.3333333333333,645.0000000000001) translate(44.5690104166666 61.65885416666667)"/><use xlink:href="#y" transform="matrix(1,0,0,1,614.3333333333333,645.0000000000001) translate(5.3626302083332575 80.32552083333334)"/><use xlink:href="#z" transform="matrix(1,0,0,1,614.3333333333333,645.0000000000001) translate(128.58268229166663 80.32552083333334)"/><use xlink:href="#A" transform="matrix(1,0,0,1,614.3333333333333,645.0000000000001) translate(150.98632812499997 80.32552083333334)"/><use xlink:href="#B" transform="matrix(1,0,0,1,614.3333333333333,645.0000000000001) translate(251.802734375 80.32552083333334)"/><use xlink:href="#C" transform="matrix(1,0,0,1,614.3333333333333,645.0000000000001) translate(375.02278645833337 80.32552083333334)"/><use xlink:href="#D" transform="matrix(1,0,0,1,614.3333333333333,645.0000000000001) translate(408.62825520833337 80.32552083333334)"/><path d="M589.5 420H632" stroke="#5e5e5e" stroke-width="3" fill="none"/><path d="M589.5 420h-3v-1.5h3zM633.5 420h-1.54v-1.5h1.54z" fill="#5e5e5e"/><path d="M849.33 637V516c0-3.3-2.68-6-6-6H624.5c-3.3 0-6-2.7-6-6v-63.38" stroke="#5e5e5e" stroke-width="3" fill="none"/><path d="M850.83 638.5h-3v-1.54h3z" fill="#5e5e5e"/><path d="M618.5 424.85l4.64 14.27h-9.28z" stroke="#5e5e5e" stroke-width="3" fill="#5e5e5e"/><path d="M1159.33 640.83h500v115.5h-500z" stroke="#c92d39" stroke-width="3" fill="#fff"/><use xlink:href="#E" transform="matrix(1,0,0,1,1164.333333333333,645.8333333333335) translate(147.00617283950618 47.59027777777778)"/><use xlink:href="#F" transform="matrix(1,0,0,1,1164.333333333333,645.8333333333335) translate(232.00617283950618 47.59027777777778)"/><use xlink:href="#G" transform="matrix(1,0,0,1,1164.333333333333,645.8333333333335) translate(256.6975308641975 47.59027777777778)"/><use xlink:href="#H" transform="matrix(1,0,0,1,1164.333333333333,645.8333333333335) translate(26.564453124999886 71.40885416666667)"/><path d="M1336.07 338.45l37.86-37.4M1336.1 338.42l-1.1 1.08M1373.9 301.08l1.1-1.08M1409.34 637.83l.56-115.7" stroke="#5e5e5e" stroke-width="3" fill="none"/><path d="M1410.84 637.8v1.53h-3v-1.54z" fill="#5e5e5e"/><path d="M1409.98 506.35l4.56 14.3-9.27-.05z" stroke="#5e5e5e" stroke-width="3" fill="#5e5e5e"/><path d="M797.5 286.5c0-3.3 2.7-6 6-6h208c3.3 0 6 2.7 6 6v65.33c0 3.32-2.7 6-6 6h-208c-3.3 0-6-2.68-6-6z" stroke="#5e5e5e" stroke-width="3" fill="#fff"/><g><use xlink:href="#I" transform="matrix(1,0,0,1,809.5,292.50000000000006) translate(52.50617283950618 31.27777777777778)"/><use xlink:href="#J" transform="matrix(1,0,0,1,809.5,292.50000000000006) translate(94.35802469135803 31.27777777777778)"/></g><path d="M1077.5 286.5c0-3.3 2.7-6 6-6h208c3.3 0 6 2.7 6 6v65.33c0 3.32-2.7 6-6 6h-208c-3.3 0-6-2.68-6-6z" stroke="#5e5e5e" stroke-width="3" fill="#fff"/><g><use xlink:href="#K" transform="matrix(1,0,0,1,1089.5,292.49999999999994) translate(4.666666666666671 31.27777777777778)"/><use xlink:href="#L" transform="matrix(1,0,0,1,1089.5,292.49999999999994) translate(146.33333333333331 31.27777777777778)"/></g><path d="M1021 319.17h32.26" stroke="#5e5e5e" stroke-width="4" fill="none"/><path d="M1021.05 321.17H1019v-4h2.05z" fill="#5e5e5e"/><path d="M1069.53 319.17l-14.27 4.63v-9.27z" stroke="#5e5e5e" stroke-width="4" fill="#5e5e5e"/><path d="M220.67 640h318.66v116.33H220.67z" stroke="#c92d39" stroke-width="3" fill="#fff"/><g><use xlink:href="#M" transform="matrix(1,0,0,1,225.66666666666663,645.0000000000001) translate(4.65432098765433 31.15277777777778)"/><use xlink:href="#N" transform="matrix(1,0,0,1,225.66666666666663,645.0000000000001) translate(57.61728395061729 31.15277777777778)"/><use xlink:href="#O" transform="matrix(1,0,0,1,225.66666666666663,645.0000000000001) translate(161.25925925925927 31.15277777777778)"/><use xlink:href="#P" transform="matrix(1,0,0,1,225.66666666666663,645.0000000000001) translate(183.41975308641975 31.15277777777778)"/><use xlink:href="#Q" transform="matrix(1,0,0,1,225.66666666666663,645.0000000000001) translate(220.45679012345678 31.15277777777778)"/><use xlink:href="#R" transform="matrix(1,0,0,1,225.66666666666663,645.0000000000001) translate(280.88888888888886 31.15277777777778)"/><use xlink:href="#P" transform="matrix(1,0,0,1,225.66666666666663,645.0000000000001) translate(26.81481481481481 57.81944444444445)"/><use xlink:href="#S" transform="matrix(1,0,0,1,225.66666666666663,645.0000000000001) translate(63.85185185185185 57.81944444444445)"/><use xlink:href="#N" transform="matrix(1,0,0,1,225.66666666666663,645.0000000000001) translate(116.81481481481481 57.81944444444445)"/><use xlink:href="#T" transform="matrix(1,0,0,1,225.66666666666663,645.0000000000001) translate(220.45679012345678 57.81944444444445)"/><use xlink:href="#U" transform="matrix(1,0,0,1,225.66666666666663,645.0000000000001) translate(251.320987654321 57.81944444444445)"/><use xlink:href="#V" transform="matrix(1,0,0,1,225.66666666666663,645.0000000000001) translate(81.69135802469137 84.48611111111111)"/><use xlink:href="#W" transform="matrix(1,0,0,1,225.66666666666663,645.0000000000001) translate(149.5925925925926 84.48611111111111)"/></g><path d="M380.03 637l.27-14.88" stroke="#5e5e5e" stroke-width="3" fill="none"/><path d="M381.53 637l-.03 1.5h-3l.03-1.57z" fill="#5e5e5e"/><path d="M380.58 606.35l4.38 14.35-9.27-.17z" stroke="#5e5e5e" stroke-width="3" fill="#5e5e5e"/><path d="M1642.5 240h64" stroke="#5e5e5e" stroke-width="2" fill="none"/><path d="M1642.53 241h-1.07l.04-1-.03-1h1.06z" fill="#5e5e5e"/><path d="M1721.76 240l-14.26 4.64v-9.28z" stroke="#5e5e5e" stroke-width="2" fill="#5e5e5e"/><path d="M1642.48 420h59.02" stroke="#5e5e5e" stroke-width="2" fill="none"/><path d="M1642.5 421h-1.06l.06-1.5-.02-.5h1.03z" fill="#5e5e5e"/><path d="M1716.76 420l-14.26 4.64v-9.28z" stroke="#5e5e5e" stroke-width="2" fill="#5e5e5e"/><path d="M1725 394.5h295v50h-295z" fill="none"/><g><use xlink:href="#X" transform="matrix(1,0,0,1,1725,394.5) translate(20.812717013888843 31.66232638888889)"/></g><defs><path fill="#333" d="M873-819c-18-114-119-146-250-146-163 0-245 50-245 151 0 151 170 148 294 185 182 54 388 94 388 320 0 240-189 325-439 329-245 4-410-69-454-268l159-31c24 133 136 168 295 165 144-2 270-31 270-171 0-164-195-160-331-202-167-52-350-87-350-299 0-218 173-315 413-313 220 2 373 77 412 260" id="Y"/><path fill="#333" d="M615-1102c343 0 484 203 482 560-1 347-147 562-488 562-336 0-475-219-479-562-4-349 156-560 485-560zm-8 989c240 0 301-180 301-429 0-245-55-427-290-427-236 0-299 181-299 427 0 243 61 429 288 429" id="Z"/><path fill="#333" d="M631 20c-350 0-501-215-501-562 0-355 162-560 502-560 250 0 399 118 446 323l-192 14c-23-124-109-196-262-196-242 0-305 171-305 415 1 245 61 427 304 427 151 0 248-77 267-215l190 12C1039-107 883 20 631 20" id="aa"/><path fill="#333" d="M496 0v-299h235V0H496" id="ab"/><path fill="#333" d="M1048-32c-2 300-135 456-433 456-222-1-358-88-400-267l184-25c22 99 100 157 222 156 184-2 248-125 248-315 0-64 3-133-2-194C807-100 706-13 524-12c-306 0-381-228-381-537 0-318 85-550 400-550 164 0 271 83 325 202h3c1-60 3-134 12-185h171c-13 339-4 702-6 1050zM585-145c210-8 284-178 284-406 0-192-52-331-177-392-33-16-69-22-104-22-223 2-259 184-259 414 0 229 31 415 256 406" id="ac"/><path fill="#333" d="M617-1102c355 0 481 238 477 599H322c5 222 84 388 301 388 144 0 244-59 284-166l158 45C1002-72 854 20 623 20c-342 0-490-220-490-568 0-346 151-554 484-554zm291 461c-18-192-90-328-289-328-194 0-287 128-295 328h584" id="ad"/><path fill="#333" d="M682 16c-209 0-323-80-324-285v-671H190v-142h170l58-282h120v282h432v142H538v652c2 114 60 155 182 155 106 0 209-16 297-34v137C921-4 806 16 682 16" id="ae"/><path fill="#333" d="M-5 220v-96h1238v96H-5" id="af"/><path fill="#333" d="M1000-272c3 95 12 159 101 161 21 0 41-3 59-7V-6c-44 10-86 16-139 16-141 2-191-84-197-217h-6C748-76 648 20 446 20c-207 0-318-120-318-322 0-266 194-348 454-354l236-4c12-191-40-305-222-305-140 0-220 47-232 172l-188-17c33-204 181-292 423-292 255 0 401 118 401 364v466zm-683-27c0 109 63 184 175 182 166-3 259-96 306-217 24-65 20-120 20-200-232 7-501-28-501 235" id="ag"/><path fill="#333" d="M528 20c-247 0-343-132-343-381v-721h180v686c-4 177 45 284 224 277 194-8 279-136 279-336v-627h181c3 360-6 732 6 1082H885c-4-54-7-126-8-185h-3C809-64 714 20 528 20" id="ah"/><path fill="#333" d="M904-1102c199 0 220 177 220 381V0H956v-686c-3-114 0-215-60-264-70-33-125-4-158 71-26 56-39 140-39 252V0H531v-686c-3-114-1-215-61-264-78-41-136 24-157 84-24 69-39 159-39 259V0H105c-3-360 6-732-6-1082h149c6 50 3 123 8 175 36-100 83-195 216-195 135 0 166 79 196 196 42-105 93-196 236-196" id="ai"/><path fill="#333" d="M736-142h380V0H134v-142h422v-1200H267v-142h469v1342" id="aj"/><path fill="#333" d="M865-914c-3-187-2-380-2-570h180v1261c0 76 1 155 6 223H877c-8-49-9-116-10-174h-5C801-44 708 26 530 26c-135 0-234-46-297-139s-95-232-95-419c0-377 131-566 392-566 176 0 271 63 335 184zm-286-51c-222 0-255 197-255 427 0 229 31 425 253 425 237 0 286-195 286-441 0-238-52-411-284-411" id="ak"/><path fill="#333" d="M891-1484c-201 251-362 514-362 954 0 441 161 704 362 955H701C500 176 342-90 342-532c0-440 159-704 359-952h190" id="al"/><path fill="#333" d="M528-1484c201 248 357 511 357 952 0 442-156 709-357 957H336C537 174 700-89 700-530c0-440-163-703-364-954h192" id="am"/><g id="a"><use transform="matrix(0.010850694444444444,0,0,0.010850694444444444,0,0)" xlink:href="#Y"/><use transform="matrix(0.010850694444444444,0,0,0.010850694444444444,13.335503472222221,0)" xlink:href="#Z"/><use transform="matrix(0.010850694444444444,0,0,0.010850694444444444,26.671006944444443,0)" xlink:href="#aa"/><use transform="matrix(0.010850694444444444,0,0,0.010850694444444444,40.006510416666664,0)" xlink:href="#ab"/><use transform="matrix(0.010850694444444444,0,0,0.010850694444444444,53.342013888888886,0)" xlink:href="#ac"/><use transform="matrix(0.010850694444444444,0,0,0.010850694444444444,66.67751736111111,0)" xlink:href="#ad"/><use transform="matrix(0.010850694444444444,0,0,0.010850694444444444,80.01302083333334,0)" xlink:href="#ae"/><use transform="matrix(0.010850694444444444,0,0,0.010850694444444444,93.34852430555557,0)" xlink:href="#af"/><use transform="matrix(0.010850694444444444,0,0,0.010850694444444444,106.6840277777778,0)" xlink:href="#ag"/><use transform="matrix(0.010850694444444444,0,0,0.010850694444444444,120.01953125000003,0)" xlink:href="#aa"/><use transform="matrix(0.010850694444444444,0,0,0.010850694444444444,133.35503472222226,0)" xlink:href="#aa"/><use transform="matrix(0.010850694444444444,0,0,0.010850694444444444,146.69053819444449,0)" xlink:href="#ah"/><use transform="matrix(0.010850694444444444,0,0,0.010850694444444444,160.0260416666667,0)" xlink:href="#ai"/><use transform="matrix(0.010850694444444444,0,0,0.010850694444444444,173.36154513888894,0)" xlink:href="#ah"/><use transform="matrix(0.010850694444444444,0,0,0.010850694444444444,186.69704861111117,0)" xlink:href="#aj"/><use transform="matrix(0.010850694444444444,0,0,0.010850694444444444,200.0325520833334,0)" xlink:href="#ag"/><use transform="matrix(0.010850694444444444,0,0,0.010850694444444444,213.36805555555563,0)" xlink:href="#ae"/><use transform="matrix(0.010850694444444444,0,0,0.010850694444444444,226.70355902777786,0)" xlink:href="#ad"/><use transform="matrix(0.010850694444444444,0,0,0.010850694444444444,240.03906250000006,0)" xlink:href="#ak"/><use transform="matrix(0.010850694444444444,0,0,0.010850694444444444,253.37456597222234,0)" xlink:href="#al"/><use transform="matrix(0.010850694444444444,0,0,0.010850694444444444,266.7100694444445,0)" xlink:href="#am"/></g><path fill="#333" d="M240-174c0 40-23 61-54 70L253 0h-59l-57-94H76V0H24v-248c93 4 217-23 216 74zM76-134c48-2 112 12 112-38 0-48-66-32-112-35v73" id="an"/><path fill="#333" d="M185-48c-13 30-37 53-82 52C43 2 14-33 14-96s30-98 90-98c62 0 83 45 84 108H66c0 31 8 55 39 56 18 0 30-7 34-22zm-45-69c5-46-57-63-70-21-2 6-4 13-4 21h74" id="ao"/><path fill="#333" d="M133-34C117-15 103 5 69 4 32 3 11-16 11-54c-1-60 55-63 116-61 1-26-3-47-28-47-18 1-26 9-28 27l-52-2c7-38 36-58 82-57s74 22 75 68l1 82c-1 14 12 18 25 15v27c-30 8-71 5-69-32zm-48 3c29 0 43-24 42-57-32 0-66-3-65 30 0 17 8 27 23 27" id="ap"/><path fill="#333" d="M88-194c31-1 46 15 58 34l-1-101h50l1 261h-48c-2-10 0-23-3-31C134-8 116 4 84 4 32 4 16-41 15-95c0-56 19-97 73-99zm17 164c33 0 40-30 41-66 1-37-9-64-41-64s-38 30-39 65c0 43 13 65 39 65" id="aq"/><path fill="#333" d="M110-194c64 0 96 36 96 99 0 64-35 99-97 99-61 0-95-36-95-99 0-62 34-99 96-99zm-1 164c35 0 45-28 45-65 0-40-10-65-43-65-34 0-45 26-45 65 0 36 10 65 43 65" id="ar"/><path fill="#333" d="M85 4C-2 5 27-109 22-190h50c7 57-23 150 33 157 60-5 35-97 40-157h50l1 190h-47c-2-12 1-28-3-38-12 25-28 42-61 42" id="as"/><path fill="#333" d="M115-3C79 11 28 4 28-45v-112H4v-33h27l15-45h31v45h36v33H77v99c-1 23 16 31 38 25v30" id="at"/><g id="b"><use transform="matrix(0.06172839506172839,0,0,0.06172839506172839,0,0)" xlink:href="#an"/><use transform="matrix(0.06172839506172839,0,0,0.06172839506172839,15.987654320987653,0)" xlink:href="#ao"/><use transform="matrix(0.06172839506172839,0,0,0.06172839506172839,28.333333333333332,0)" xlink:href="#ap"/><use transform="matrix(0.06172839506172839,0,0,0.06172839506172839,40.67901234567901,0)" xlink:href="#aq"/><use transform="matrix(0.06172839506172839,0,0,0.06172839506172839,54.19753086419753,0)" xlink:href="#ar"/><use transform="matrix(0.06172839506172839,0,0,0.06172839506172839,67.71604938271605,0)" xlink:href="#as"/><use transform="matrix(0.06172839506172839,0,0,0.06172839506172839,81.23456790123457,0)" xlink:href="#at"/></g><path fill="#333" d="M182-130c37 4 62 22 62 59C244 23 116-4 24 0v-248c84 5 203-23 205 63 0 31-19 50-47 55zM76-148c40-3 101 13 101-30 0-44-60-28-101-31v61zm0 110c48-3 116 14 116-37 0-48-69-32-116-35v72" id="au"/><path fill="#333" d="M25 0v-261h50V0H25" id="av"/><path fill="#333" d="M190-63c-7 42-38 67-86 67-59 0-84-38-90-98-12-110 154-137 174-36l-49 2c-2-19-15-32-35-32-30 0-35 28-38 64-6 74 65 87 74 30" id="aw"/><path fill="#333" d="M147 0L96-86 75-71V0H25v-261h50v150l67-79h53l-66 74L201 0h-54" id="ax"/><g id="c"><use transform="matrix(0.06172839506172839,0,0,0.06172839506172839,0,0)" xlink:href="#au"/><use transform="matrix(0.06172839506172839,0,0,0.06172839506172839,15.987654320987653,0)" xlink:href="#av"/><use transform="matrix(0.06172839506172839,0,0,0.06172839506172839,22.160493827160494,0)" xlink:href="#ar"/><use transform="matrix(0.06172839506172839,0,0,0.06172839506172839,35.67901234567901,0)" xlink:href="#aw"/><use transform="matrix(0.06172839506172839,0,0,0.06172839506172839,48.02469135802469,0)" xlink:href="#ax"/></g><path fill="#333" d="M222-170c0 37-18 56-47 65l63 87 25 5V0h-76l-66-100H92v82l30 5V0H8v-13l28-5v-200l-30-5v-13c89 5 214-24 216 66zM92-119c45 2 75-3 75-50s-30-49-75-47v97" id="ay"/><path fill="#333" d="M12-83c0-55 22-85 75-86 52-1 66 33 63 88H64c-1 37 6 64 44 63 14 0 28-4 39-6 3 28-28 25-55 27-57 4-80-31-80-86zm90-17c2-26 0-63-27-48-10 9-11 28-11 48h38" id="az"/><path fill="#333" d="M31-163c51-5 127-20 127 40v107l17 4V0h-61l-4-13C82 13 12 12 12-46c0-51 46-52 95-53 9-45-22-69-57-44l-7 20H31v-40zM62-47c0 30 26 34 45 23v-59c-28 0-45 6-45 36" id="aA"/><path fill="#333" d="M15-82c-4-69 47-101 113-83l-1-69-17-4v-12h68v234l18 4V0h-63l-4-9C77 23 5-9 15-82zm112-66c-43-16-64 17-61 65 2 33 3 67 32 67 12 0 22-3 29-8v-124" id="aB"/><path fill="#333" d="M90-170c54-1 76 32 76 87 1 56-23 87-77 87-53 0-75-32-75-87s23-86 76-87zM89-14c28-2 26-38 26-69s3-69-26-69c-27 0-24 39-24 69s-3 66 24 69" id="aC"/><path fill="#333" d="M73-51c-3 31 27 38 51 25v-123l-16-5v-11h66v149l17 4V0h-65l-2-14C94 9 22 18 22-44v-105l-17-5v-11h68v114" id="aD"/><path fill="#333" d="M78-41c-2 24 21 26 40 20C122 3 98 2 77 4 5 10 32-84 27-147H6v-11l25-7 21-38h26v38h35v18H78v106" id="aE"/><g id="d"><use transform="matrix(0.1172839506172839,0,0,0.1172839506172839,0,0)" xlink:href="#ay"/><use transform="matrix(0.1172839506172839,0,0,0.1172839506172839,30.37654320987653,0)" xlink:href="#az"/><use transform="matrix(0.1172839506172839,0,0,0.1172839506172839,49.02469135802467,0)" xlink:href="#aA"/><use transform="matrix(0.1172839506172839,0,0,0.1172839506172839,70.13580246913577,0)" xlink:href="#aB"/><use transform="matrix(0.1172839506172839,0,0,0.1172839506172839,93.59259259259255,0)" xlink:href="#aC"/><use transform="matrix(0.1172839506172839,0,0,0.1172839506172839,114.70370370370365,0)" xlink:href="#aD"/><use transform="matrix(0.1172839506172839,0,0,0.1172839506172839,138.16049382716042,0)" xlink:href="#aE"/></g><path fill="#333" d="M92-101v83l39 5V0H8v-13l28-5v-200l-30-5v-13h197v64h-17l-5-42c-27-3-59-2-89-2v96h57l6-30h15v80h-15l-6-31H92" id="aF"/><path fill="#333" d="M77-16l18 4V0H8v-12l18-4v-133l-17-5v-11h68v149zM51-196c-16 0-27-10-27-27s10-27 27-27 27 11 27 27c0 17-10 27-27 27" id="aG"/><path fill="#333" d="M132-132c-21 0-37 9-50 16v100l26 4V0H10v-12l21-4v-133l-21-5v-11h69l2 34c17-18 35-41 71-40v61c-17 3-14-14-20-22" id="aH"/><path fill="#333" d="M126-114c3-31-27-37-49-25v123l15 4V0H10v-12l16-4v-133l-16-5v-11h64l2 14c24-16 81-33 96 3 30-24 105-39 105 27v105l17 4V0h-82v-12l14-4v-98c4-33-27-37-51-24 5 35 0 82 2 122l17 4V0h-83v-12l15-4v-98" id="aI"/><path fill="#333" d="M154-149l38 94 32-94-20-5v-11h54v11l-13 4L190 4h-21l-38-93L93 4H72L13-149c-7-2-15-4-12-16h82v11l-20 5 36 94 38-94h17" id="aJ"/><g id="e"><use transform="matrix(0.1172839506172839,0,0,0.1172839506172839,0,0)" xlink:href="#aF"/><use transform="matrix(0.1172839506172839,0,0,0.1172839506172839,25.685185185185176,0)" xlink:href="#aG"/><use transform="matrix(0.1172839506172839,0,0,0.1172839506172839,37.41358024691357,0)" xlink:href="#aH"/><use transform="matrix(0.1172839506172839,0,0,0.1172839506172839,56.06172839506171,0)" xlink:href="#aI"/><use transform="matrix(0.1172839506172839,0,0,0.1172839506172839,91.12962962962959,0)" xlink:href="#aJ"/><use transform="matrix(0.1172839506172839,0,0,0.1172839506172839,121.50617283950612,0)" xlink:href="#aA"/><use transform="matrix(0.1172839506172839,0,0,0.1172839506172839,142.61728395061724,0)" xlink:href="#aH"/><use transform="matrix(0.1172839506172839,0,0,0.1172839506172839,160.4444444444444,0)" xlink:href="#az"/></g><path fill="#333" d="M92-134c39 3 62-4 62-44 0-37-25-40-62-38v82zm0 115c49 5 80-2 80-50 0-44-34-49-80-46v96zm138-50C230 26 101-4 6 0v-13l30-5v-200l-30-5v-13c79 7 206-26 206 54 0 33-22 49-49 56 39 3 67 18 67 57" id="aK"/><path fill="#333" d="M76-16l18 4V0H7v-12l18-4v-218l-17-4v-12h68v234" id="aL"/><path fill="#333" d="M109-18c15 0 31-2 42-6v14c-11 9-31 13-51 13-59 0-86-28-88-86-3-75 66-101 135-80v48h-13c-3-20-7-40-34-37-51 7-55 138 9 134" id="aM"/><path fill="#333" d="M77-79l64-71-17-4v-11h63v11c-32 3-40 30-59 46l57 92 15 4V0h-80c-2-11 3-15 10-16L97-74 77-60v44l16 4V0H10v-12l16-4v-218l-17-4v-12h68v171" id="aN"/><g id="f"><use transform="matrix(0.1172839506172839,0,0,0.1172839506172839,0,0)" xlink:href="#aK"/><use transform="matrix(0.1172839506172839,0,0,0.1172839506172839,28.148148148148138,0)" xlink:href="#aL"/><use transform="matrix(0.1172839506172839,0,0,0.1172839506172839,39.87654320987653,0)" xlink:href="#aC"/><use transform="matrix(0.1172839506172839,0,0,0.1172839506172839,60.98765432098763,0)" xlink:href="#aM"/><use transform="matrix(0.1172839506172839,0,0,0.1172839506172839,79.63580246913577,0)" xlink:href="#aN"/></g><path fill="#333" d="M92-20c74 11 92-29 92-98 0-66-23-103-92-98v196zm150-99C242 9 136 6 6 0v-13l31-5v-200l-31-5v-13h112c81 0 124 34 124 117" id="aO"/><path fill="#333" d="M9 41c2-18 18-26 32-33C29 1 16-9 16-28l29-33c-21-9-31-25-31-51-2-56 61-65 111-53l39-20c13 12-9 24-14 36 35 54-17 114-90 92-17 34 27 28 56 28 36-1 61 12 60 46-2 46-39 62-91 62-38 0-71-6-76-38zm35-3c6 35 97 29 94-9-2-28-50-14-78-17-8 7-15 14-16 26zm20-150c0 22 4 40 23 40 20 0 24-17 24-40 0-24-4-40-24-40-19 0-23 17-23 40" id="aP"/><g id="g"><use transform="matrix(0.1172839506172839,0,0,0.1172839506172839,0,0)" xlink:href="#aO"/><use transform="matrix(0.1172839506172839,0,0,0.1172839506172839,30.37654320987653,0)" xlink:href="#aG"/><use transform="matrix(0.1172839506172839,0,0,0.1172839506172839,42.10493827160492,0)" xlink:href="#aA"/><use transform="matrix(0.1172839506172839,0,0,0.1172839506172839,63.21604938271602,0)" xlink:href="#aP"/><use transform="matrix(0.1172839506172839,0,0,0.1172839506172839,84.32716049382712,0)" xlink:href="#aH"/><use transform="matrix(0.1172839506172839,0,0,0.1172839506172839,102.97530864197526,0)" xlink:href="#aA"/><use transform="matrix(0.1172839506172839,0,0,0.1172839506172839,124.08641975308637,0)" xlink:href="#aI"/></g><path fill="#333" d="M205 0l-28-72H64L36 0H1l101-248h38L239 0h-34zm-38-99l-47-123c-12 45-31 82-46 123h93" id="aQ"/><path fill="#333" d="M30-248c118-7 216 8 213 122C240-48 200 0 122 0H30v-248zM63-27c89 8 146-16 146-99s-60-101-146-95v194" id="aR"/><path fill="#333" d="M212-179c-10-28-35-45-73-45-59 0-87 40-87 99 0 60 29 101 89 101 43 0 62-24 78-52l27 14C228-24 195 4 139 4 59 4 22-46 18-125c-6-104 99-153 187-111 19 9 31 26 39 46" id="aS"/><g id="h"><use transform="matrix(0.06172839506172839,0,0,0.06172839506172839,0,0)" xlink:href="#aQ"/><use transform="matrix(0.06172839506172839,0,0,0.06172839506172839,14.814814814814813,0)" xlink:href="#aR"/><use transform="matrix(0.06172839506172839,0,0,0.06172839506172839,30.80246913580247,0)" xlink:href="#aS"/></g><path fill="#333" d="M80-196l47-18 7 23-49 13 32 44-20 13-27-46-27 45-21-12 33-44-49-13 8-23 47 19-2-53h23" id="aT"/><use transform="matrix(0.06172839506172839,0,0,0.06172839506172839,0,0)" xlink:href="#aT" id="i"/><path fill="#333" d="M185-189c-5-48-123-54-124 2 14 75 158 14 163 119 3 78-121 87-175 55-17-10-28-26-33-46l33-7c5 56 141 63 141-1 0-78-155-14-162-118-5-82 145-84 179-34 5 7 8 16 11 25" id="aU"/><g id="j"><use transform="matrix(0.06172839506172839,0,0,0.06172839506172839,0,0)" xlink:href="#aR"/><use transform="matrix(0.06172839506172839,0,0,0.06172839506172839,15.987654320987653,0)" xlink:href="#aR"/><use transform="matrix(0.06172839506172839,0,0,0.06172839506172839,31.975308641975307,0)" xlink:href="#aU"/></g><path fill="#333" d="M33 0v-248h34V0H33" id="aV"/><path fill="#333" d="M117-194c89-4 53 116 60 194h-32v-121c0-31-8-49-39-48C34-167 62-67 57 0H25l-1-190h30c1 10-1 24 2 32 11-22 29-35 61-36" id="aW"/><path fill="#333" d="M115-194c55 1 70 41 70 98S169 2 115 4C84 4 66-9 55-30l1 105H24l-1-265h31l2 30c10-21 28-34 59-34zm-8 174c40 0 45-34 45-75s-6-73-45-74c-42 0-51 32-51 76 0 43 10 73 51 73" id="aX"/><path fill="#333" d="M84 4C-5 8 30-112 23-190h32v120c0 31 7 50 39 49 72-2 45-101 50-169h31l1 190h-30c-1-10 1-25-2-33-11 22-28 36-60 37" id="aY"/><path fill="#333" d="M59-47c-2 24 18 29 38 22v24C64 9 27 4 27-40v-127H5v-23h24l9-43h21v43h35v23H59v120" id="aZ"/><g id="k"><use transform="matrix(0.06172839506172839,0,0,0.06172839506172839,0,0)" xlink:href="#aV"/><use transform="matrix(0.06172839506172839,0,0,0.06172839506172839,6.172839506172839,0)" xlink:href="#aW"/><use transform="matrix(0.06172839506172839,0,0,0.06172839506172839,18.51851851851852,0)" xlink:href="#aX"/><use transform="matrix(0.06172839506172839,0,0,0.06172839506172839,30.864197530864196,0)" xlink:href="#aY"/><use transform="matrix(0.06172839506172839,0,0,0.06172839506172839,43.20987654320987,0)" xlink:href="#aZ"/></g><path fill="#333" d="M240 0l2-218c-23 76-54 145-80 218h-23L58-218 59 0H30v-248h44l77 211c21-75 51-140 76-211h43V0h-30" id="ba"/><path fill="#333" d="M24 0v-261h32V0H24" id="bb"/><path fill="#333" d="M24-231v-30h32v30H24zM24 0v-190h32V0H24" id="bc"/><path fill="#333" d="M100-194c63 0 86 42 84 106H49c0 40 14 67 53 68 26 1 43-12 49-29l28 8c-11 28-37 45-77 45C44 4 14-33 15-96c1-61 26-98 85-98zm52 81c6-60-76-77-97-28-3 7-6 17-6 28h103" id="bd"/><path fill="#333" d="M141 0L90-78 38 0H4l68-98-65-92h35l48 74 47-74h35l-64 92 68 98h-35" id="be"/><path fill="#333" d="M114-163C36-179 61-72 57 0H25l-1-190h30c1 12-1 29 2 39 6-27 23-49 58-41v29" id="bf"/><g id="l"><use transform="matrix(0.06172839506172839,0,0,0.06172839506172839,0,0)" xlink:href="#ba"/><use transform="matrix(0.06172839506172839,0,0,0.06172839506172839,18.456790123456788,0)" xlink:href="#aY"/><use transform="matrix(0.06172839506172839,0,0,0.06172839506172839,30.80246913580247,0)" xlink:href="#bb"/><use transform="matrix(0.06172839506172839,0,0,0.06172839506172839,35.67901234567901,0)" xlink:href="#aZ"/><use transform="matrix(0.06172839506172839,0,0,0.06172839506172839,41.851851851851855,0)" xlink:href="#bc"/><use transform="matrix(0.06172839506172839,0,0,0.06172839506172839,46.7283950617284,0)" xlink:href="#aX"/><use transform="matrix(0.06172839506172839,0,0,0.06172839506172839,59.074074074074076,0)" xlink:href="#bb"/><use transform="matrix(0.06172839506172839,0,0,0.06172839506172839,63.95061728395061,0)" xlink:href="#bd"/><use transform="matrix(0.06172839506172839,0,0,0.06172839506172839,76.2962962962963,0)" xlink:href="#be"/><use transform="matrix(0.06172839506172839,0,0,0.06172839506172839,87.40740740740742,0)" xlink:href="#bd"/><use transform="matrix(0.06172839506172839,0,0,0.06172839506172839,99.7530864197531,0)" xlink:href="#bf"/></g><path fill="#333" d="M199 0l-22-63H83L61 0H9l90-248h61L250 0h-51zm-33-102l-36-108c-10 38-24 72-36 108h72" id="bg"/><path fill="#333" d="M128 0H69L1-190h53L99-40l48-150h52" id="bh"/><path fill="#333" d="M135-150c-39-12-60 13-60 57V0H25l-1-190h47c2 13-1 29 3 40 6-28 27-53 61-41v41" id="bi"/><path fill="#333" d="M195-6C206 82 75 100 31 46c-4-6-6-13-8-21l49-6c3 16 16 24 34 25 40 0 42-37 40-79-11 22-30 35-61 35-53 0-70-43-70-97 0-56 18-96 73-97 30 0 46 14 59 34l2-30h47zm-90-29c32 0 41-27 41-63 0-35-9-62-40-62-32 0-39 29-40 63 0 36 9 62 39 62" id="bj"/><g id="m"><use transform="matrix(0.06172839506172839,0,0,0.06172839506172839,0,0)" xlink:href="#bg"/><use transform="matrix(0.06172839506172839,0,0,0.06172839506172839,15.185185185185183,0)" xlink:href="#bh"/><use transform="matrix(0.06172839506172839,0,0,0.06172839506172839,27.53086419753086,0)" xlink:href="#ao"/><use transform="matrix(0.06172839506172839,0,0,0.06172839506172839,39.87654320987654,0)" xlink:href="#bi"/><use transform="matrix(0.06172839506172839,0,0,0.06172839506172839,48.51851851851851,0)" xlink:href="#ap"/><use transform="matrix(0.06172839506172839,0,0,0.06172839506172839,60.86419753086419,0)" xlink:href="#bj"/><use transform="matrix(0.06172839506172839,0,0,0.06172839506172839,74.38271604938271,0)" xlink:href="#ao"/></g><path fill="#333" d="M121-226c-27-7-43 5-38 36h38v33H83V0H34v-157H6v-33h28c-9-59 32-81 87-68v32" id="bk"/><g id="n"><use transform="matrix(0.06172839506172839,0,0,0.06172839506172839,0,0)" xlink:href="#au"/><use transform="matrix(0.06172839506172839,0,0,0.06172839506172839,15.987654320987653,0)" xlink:href="#as"/><use transform="matrix(0.06172839506172839,0,0,0.06172839506172839,29.50617283950617,0)" xlink:href="#bk"/><use transform="matrix(0.06172839506172839,0,0,0.06172839506172839,36.85185185185185,0)" xlink:href="#bk"/><use transform="matrix(0.06172839506172839,0,0,0.06172839506172839,44.197530864197525,0)" xlink:href="#ao"/><use transform="matrix(0.06172839506172839,0,0,0.06172839506172839,56.5432098765432,0)" xlink:href="#bi"/></g><g id="o"><use transform="matrix(0.06172839506172839,0,0,0.06172839506172839,0,0)" xlink:href="#aR"/><use transform="matrix(0.06172839506172839,0,0,0.06172839506172839,15.987654320987653,0)" xlink:href="#aR"/><use transform="matrix(0.06172839506172839,0,0,0.06172839506172839,31.975308641975307,0)" xlink:href="#aU"/></g><path fill="#333" d="M134-131c28 9 52 24 51 62-1 50-34 73-85 73S17-19 16-69c0-36 21-54 49-61-75-25-45-126 34-121 46 3 78 18 79 63 0 33-17 51-44 57zm-34-11c31 1 46-15 46-44 0-28-17-43-47-42-29 0-46 13-45 42 1 28 16 44 46 44zm1 122c35 0 51-18 51-52 0-30-18-46-53-46-33 0-51 17-51 47 0 34 19 51 53 51" id="bl"/><use transform="matrix(0.06172839506172839,0,0,0.06172839506172839,0,0)" xlink:href="#bl" id="p"/><g id="q"><use transform="matrix(0.06172839506172839,0,0,0.06172839506172839,0,0)" xlink:href="#aQ"/><use transform="matrix(0.06172839506172839,0,0,0.06172839506172839,14.814814814814813,0)" xlink:href="#aR"/><use transform="matrix(0.06172839506172839,0,0,0.06172839506172839,30.80246913580247,0)" xlink:href="#aS"/></g><path fill="#333" d="M210-169c-67 3-38 105-44 169h-31v-121c0-29-5-50-35-48C34-165 62-65 56 0H25l-1-190h30c1 10-1 24 2 32 10-44 99-50 107 0 11-21 27-35 58-36 85-2 47 119 55 194h-31v-121c0-29-5-49-35-48" id="bm"/><g id="r"><use transform="matrix(0.06172839506172839,0,0,0.06172839506172839,0,0)" xlink:href="#aU"/><use transform="matrix(0.06172839506172839,0,0,0.06172839506172839,14.814814814814813,0)" xlink:href="#aY"/><use transform="matrix(0.06172839506172839,0,0,0.06172839506172839,27.160493827160494,0)" xlink:href="#bm"/></g><path fill="#333" d="M160-131c35 5 61 23 61 61C221 17 115-2 30 0v-248c76 3 177-17 177 60 0 33-19 50-47 57zm-97-11c50-1 110 9 110-42 0-47-63-36-110-37v79zm0 115c55-2 124 14 124-45 0-56-70-42-124-44v89" id="bn"/><path fill="#333" d="M101-234c-31-9-42 10-38 44h38v23H63V0H32v-167H5v-23h27c-7-52 17-82 69-68v24" id="bo"/><g id="s"><use transform="matrix(0.06172839506172839,0,0,0.06172839506172839,0,0)" xlink:href="#bn"/><use transform="matrix(0.06172839506172839,0,0,0.06172839506172839,14.814814814814813,0)" xlink:href="#aY"/><use transform="matrix(0.06172839506172839,0,0,0.06172839506172839,27.160493827160494,0)" xlink:href="#bo"/><use transform="matrix(0.06172839506172839,0,0,0.06172839506172839,32.901234567901234,0)" xlink:href="#bo"/><use transform="matrix(0.06172839506172839,0,0,0.06172839506172839,39.074074074074076,0)" xlink:href="#bd"/><use transform="matrix(0.06172839506172839,0,0,0.06172839506172839,51.41975308641975,0)" xlink:href="#bf"/></g><path fill="#333" d="M141-36C126-15 110 5 73 4 37 3 15-17 15-53c-1-64 63-63 125-63 3-35-9-54-41-54-24 1-41 7-42 31l-33-3c5-37 33-52 76-52 45 0 72 20 72 64v82c-1 20 7 32 28 27v20c-31 9-61-2-59-35zM48-53c0 20 12 33 32 33 41-3 63-29 60-74-43 2-92-5-92 41" id="bp"/><g id="t"><use transform="matrix(0.06172839506172839,0,0,0.06172839506172839,0,0)" xlink:href="#aU"/><use transform="matrix(0.06172839506172839,0,0,0.06172839506172839,14.814814814814813,0)" xlink:href="#bp"/><use transform="matrix(0.06172839506172839,0,0,0.06172839506172839,27.160493827160494,0)" xlink:href="#bm"/><use transform="matrix(0.06172839506172839,0,0,0.06172839506172839,45.61728395061728,0)" xlink:href="#aX"/><use transform="matrix(0.06172839506172839,0,0,0.06172839506172839,57.962962962962955,0)" xlink:href="#bb"/><use transform="matrix(0.06172839506172839,0,0,0.06172839506172839,62.8395061728395,0)" xlink:href="#bd"/></g><path fill="#333" d="M27 0v-27h64v-190l-56 39v-29l58-41h29v221h61V0H27" id="bq"/><use transform="matrix(0.06172839506172839,0,0,0.06172839506172839,0,0)" xlink:href="#bq" id="u"/><path fill="#333" d="M140-251c81 0 123 46 123 126C263-46 219 4 140 4 59 4 17-45 17-125s42-126 123-126zm0 227c63 0 89-41 89-101s-29-99-89-99c-61 0-89 39-89 99S79-25 140-24" id="br"/><g id="v"><use transform="matrix(0.06172839506172839,0,0,0.06172839506172839,0,0)" xlink:href="#br"/><use transform="matrix(0.06172839506172839,0,0,0.06172839506172839,17.28395061728395,0)" xlink:href="#aY"/><use transform="matrix(0.06172839506172839,0,0,0.06172839506172839,29.629629629629626,0)" xlink:href="#aZ"/><use transform="matrix(0.06172839506172839,0,0,0.06172839506172839,35.80246913580247,0)" xlink:href="#aX"/><use transform="matrix(0.06172839506172839,0,0,0.06172839506172839,48.148148148148145,0)" xlink:href="#aY"/><use transform="matrix(0.06172839506172839,0,0,0.06172839506172839,60.49382716049382,0)" xlink:href="#aZ"/></g><path fill="#333" d="M96-169c-40 0-48 33-48 73s9 75 48 75c24 0 41-14 43-38l32 2c-6 37-31 61-74 61-59 0-76-41-82-99-10-93 101-131 147-64 4 7 5 14 7 22l-32 3c-4-21-16-35-41-35" id="bs"/><g id="w"><use transform="matrix(0.06172839506172839,0,0,0.06172839506172839,0,0)" xlink:href="#aU"/><use transform="matrix(0.06172839506172839,0,0,0.06172839506172839,14.814814814814813,0)" xlink:href="#bd"/><use transform="matrix(0.06172839506172839,0,0,0.06172839506172839,27.160493827160494,0)" xlink:href="#bb"/><use transform="matrix(0.06172839506172839,0,0,0.06172839506172839,32.03703703703704,0)" xlink:href="#bd"/><use transform="matrix(0.06172839506172839,0,0,0.06172839506172839,44.382716049382715,0)" xlink:href="#bs"/><use transform="matrix(0.06172839506172839,0,0,0.06172839506172839,55.49382716049382,0)" xlink:href="#aZ"/></g><path fill="#666" d="M496 0v-299h235V0H496" id="bt"/><path fill="#333" d="M839-1102c70 0 148 7 206 17v167c-112-18-268-36-363 15-129 69-208 203-208 395V0H294c-10-367 32-789-52-1082h171c21 75 41 161 48 250h5c67-152 152-270 373-270" id="bu"/><path fill="#333" d="M410 425v-1909h547v139H590V286h367v139H410" id="bv"/><path fill="#333" d="M270 425V286h367v-1631H270v-139h547V425H270" id="bw"/><path fill="#333" d="M698-1104c312 3 392 244 392 558 0 315-82 566-392 566-169 0-277-65-331-184h-5c8 188 2 394 4 589H185V-858c0-76-1-156-6-224h175c6 52 9 120 10 178h4c58-122 150-202 330-200zm-49 991c225 0 255-203 255-433 0-225-32-419-253-419-236 0-285 192-285 441 0 237 53 411 283 411" id="bx"/><path fill="#333" d="M709-1193V0H519v-1193H76v-156h1076v156H709" id="by"/><path fill="#333" d="M168 279c222 39 310-114 368-290L66-1082h192c120 299 249 590 362 896 115-301 235-597 351-896h190L705 0c-65 164-130 320-275 396-67 36-177 35-262 18V279" id="bz"/><g id="x"><use transform="matrix(0.009114583333333334,0,0,0.009114583333333334,0,0)" xlink:href="#Y"/><use transform="matrix(0.009114583333333334,0,0,0.009114583333333334,11.201822916666668,0)" xlink:href="#Z"/><use transform="matrix(0.009114583333333334,0,0,0.009114583333333334,22.403645833333336,0)" xlink:href="#aa"/><use transform="matrix(0.009114583333333334,0,0,0.009114583333333334,33.60546875,0)" xlink:href="#bt"/><use transform="matrix(0.009114583333333334,0,0,0.009114583333333334,44.80729166666667,0)" xlink:href="#bu"/><use transform="matrix(0.009114583333333334,0,0,0.009114583333333334,56.00911458333334,0)" xlink:href="#ad"/><use transform="matrix(0.009114583333333334,0,0,0.009114583333333334,67.21093750000001,0)" xlink:href="#ag"/><use transform="matrix(0.009114583333333334,0,0,0.009114583333333334,78.41276041666669,0)" xlink:href="#ak"/><use transform="matrix(0.009114583333333334,0,0,0.009114583333333334,89.61458333333336,0)" xlink:href="#Z"/><use transform="matrix(0.009114583333333334,0,0,0.009114583333333334,100.81640625000003,0)" xlink:href="#ah"/><use transform="matrix(0.009114583333333334,0,0,0.009114583333333334,112.01822916666671,0)" xlink:href="#ae"/><use transform="matrix(0.009114583333333334,0,0,0.009114583333333334,123.22005208333337,0)" xlink:href="#Y"/><use transform="matrix(0.009114583333333334,0,0,0.009114583333333334,134.42187500000003,0)" xlink:href="#bv"/><use transform="matrix(0.009114583333333334,0,0,0.009114583333333334,145.62369791666669,0)" xlink:href="#bw"/><use transform="matrix(0.009114583333333334,0,0,0.009114583333333334,156.82552083333334,0)" xlink:href="#bt"/><use transform="matrix(0.009114583333333334,0,0,0.009114583333333334,168.02734375,0)" xlink:href="#Y"/><use transform="matrix(0.009114583333333334,0,0,0.009114583333333334,179.22916666666666,0)" xlink:href="#ad"/><use transform="matrix(0.009114583333333334,0,0,0.009114583333333334,190.43098958333331,0)" xlink:href="#ae"/><use transform="matrix(0.009114583333333334,0,0,0.009114583333333334,201.63281249999997,0)" xlink:href="#af"/><use transform="matrix(0.009114583333333334,0,0,0.009114583333333334,212.8346354166666,0)" xlink:href="#Z"/><use transform="matrix(0.009114583333333334,0,0,0.009114583333333334,224.0364583333333,0)" xlink:href="#ah"/><use transform="matrix(0.009114583333333334,0,0,0.009114583333333334,235.23828124999994,0)" xlink:href="#ae"/><use transform="matrix(0.009114583333333334,0,0,0.009114583333333334,246.44010416666663,0)" xlink:href="#al"/><use transform="matrix(0.009114583333333334,0,0,0.009114583333333334,257.64192708333326,0)" xlink:href="#Z"/><use transform="matrix(0.009114583333333334,0,0,0.009114583333333334,268.84374999999994,0)" xlink:href="#ah"/><use transform="matrix(0.009114583333333334,0,0,0.009114583333333334,280.04557291666663,0)" xlink:href="#ae"/><use transform="matrix(0.009114583333333334,0,0,0.009114583333333334,291.2473958333333,0)" xlink:href="#bx"/><use transform="matrix(0.009114583333333334,0,0,0.009114583333333334,302.44921875,0)" xlink:href="#ah"/><use transform="matrix(0.009114583333333334,0,0,0.009114583333333334,313.6510416666667,0)" xlink:href="#ae"/><use transform="matrix(0.009114583333333334,0,0,0.009114583333333334,324.85286458333337,0)" xlink:href="#by"/><use transform="matrix(0.009114583333333334,0,0,0.009114583333333334,336.0546875000001,0)" xlink:href="#bz"/><use transform="matrix(0.009114583333333334,0,0,0.009114583333333334,347.25651041666674,0)" xlink:href="#bx"/><use transform="matrix(0.009114583333333334,0,0,0.009114583333333334,358.4583333333334,0)" xlink:href="#ad"/><use transform="matrix(0.009114583333333334,0,0,0.009114583333333334,369.6601562500001,0)" xlink:href="#am"/></g><g id="y"><use transform="matrix(0.009114583333333334,0,0,0.009114583333333334,0,0)" xlink:href="#Z"/><use transform="matrix(0.009114583333333334,0,0,0.009114583333333334,11.201822916666668,0)" xlink:href="#ah"/><use transform="matrix(0.009114583333333334,0,0,0.009114583333333334,22.403645833333336,0)" xlink:href="#ae"/><use transform="matrix(0.009114583333333334,0,0,0.009114583333333334,33.60546875,0)" xlink:href="#bx"/><use transform="matrix(0.009114583333333334,0,0,0.009114583333333334,44.80729166666667,0)" xlink:href="#ah"/><use transform="matrix(0.009114583333333334,0,0,0.009114583333333334,56.00911458333334,0)" xlink:href="#ae"/><use transform="matrix(0.009114583333333334,0,0,0.009114583333333334,67.21093750000001,0)" xlink:href="#by"/><use transform="matrix(0.009114583333333334,0,0,0.009114583333333334,78.41276041666669,0)" xlink:href="#bz"/><use transform="matrix(0.009114583333333334,0,0,0.009114583333333334,89.61458333333336,0)" xlink:href="#bx"/><use transform="matrix(0.009114583333333334,0,0,0.009114583333333334,100.81640625000003,0)" xlink:href="#ad"/></g><path fill="#333" d="M116-856v-148h995v148H116zm0 512v-148h995v148H116" id="bA"/><use transform="matrix(0.009114583333333334,0,0,0.009114583333333334,0,0)" xlink:href="#bA" id="z"/><path fill="#333" d="M908-845H766l-40-639h224zm-449 0H318l-41-639h224" id="bB"/><path fill="#333" d="M745-142h380V0H143v-142h422v-798H246v-142h499v940zM545-1292v-192h200v192H545" id="bC"/><path fill="#333" d="M706-1102c241 0 344 136 343 381V0H868v-695c1-168-57-273-220-268-190 6-283 138-283 336V0H185c-3-360 6-732-6-1082h170c4 54 7 126 8 185h3c63-121 164-204 346-205" id="bD"/><path fill="#333" d="M259 363l169-662h265L382 363H259" id="bE"/><g id="A"><use transform="matrix(0.009114583333333334,0,0,0.009114583333333334,0,0)" xlink:href="#bB"/><use transform="matrix(0.009114583333333334,0,0,0.009114583333333334,11.201822916666668,0)" xlink:href="#bC"/><use transform="matrix(0.009114583333333334,0,0,0.009114583333333334,22.403645833333336,0)" xlink:href="#bD"/><use transform="matrix(0.009114583333333334,0,0,0.009114583333333334,33.60546875,0)" xlink:href="#bx"/><use transform="matrix(0.009114583333333334,0,0,0.009114583333333334,44.80729166666667,0)" xlink:href="#ah"/><use transform="matrix(0.009114583333333334,0,0,0.009114583333333334,56.00911458333334,0)" xlink:href="#ae"/><use transform="matrix(0.009114583333333334,0,0,0.009114583333333334,67.21093750000001,0)" xlink:href="#bB"/><use transform="matrix(0.009114583333333334,0,0,0.009114583333333334,78.41276041666669,0)" xlink:href="#bE"/></g><g id="B"><use transform="matrix(0.009114583333333334,0,0,0.009114583333333334,0,0)" xlink:href="#bB"/><use transform="matrix(0.009114583333333334,0,0,0.009114583333333334,11.201822916666668,0)" xlink:href="#bx"/><use transform="matrix(0.009114583333333334,0,0,0.009114583333333334,22.403645833333336,0)" xlink:href="#bu"/><use transform="matrix(0.009114583333333334,0,0,0.009114583333333334,33.60546875,0)" xlink:href="#Z"/><use transform="matrix(0.009114583333333334,0,0,0.009114583333333334,44.80729166666667,0)" xlink:href="#ak"/><use transform="matrix(0.009114583333333334,0,0,0.009114583333333334,56.00911458333334,0)" xlink:href="#ah"/><use transform="matrix(0.009114583333333334,0,0,0.009114583333333334,67.21093750000001,0)" xlink:href="#aa"/><use transform="matrix(0.009114583333333334,0,0,0.009114583333333334,78.41276041666669,0)" xlink:href="#ae"/><use transform="matrix(0.009114583333333334,0,0,0.009114583333333334,89.61458333333336,0)" xlink:href="#bB"/><use transform="matrix(0.009114583333333334,0,0,0.009114583333333334,100.81640625000003,0)" xlink:href="#bE"/></g><g id="C"><use transform="matrix(0.009114583333333334,0,0,0.009114583333333334,0,0)" xlink:href="#Z"/><use transform="matrix(0.009114583333333334,0,0,0.009114583333333334,11.201822916666668,0)" xlink:href="#bu"/></g><g id="D"><use transform="matrix(0.009114583333333334,0,0,0.009114583333333334,0,0)" xlink:href="#bB"/><use transform="matrix(0.009114583333333334,0,0,0.009114583333333334,11.201822916666668,0)" xlink:href="#ak"/><use transform="matrix(0.009114583333333334,0,0,0.009114583333333334,22.403645833333336,0)" xlink:href="#ak"/><use transform="matrix(0.009114583333333334,0,0,0.009114583333333334,33.60546875,0)" xlink:href="#Y"/><use transform="matrix(0.009114583333333334,0,0,0.009114583333333334,44.80729166666667,0)" xlink:href="#bB"/></g><path fill="#333" d="M190 0L58-211 59 0H30v-248h39L202-35l-2-213h31V0h-41" id="bF"/><path fill="#333" d="M115-194c53 0 69 39 70 98 0 66-23 100-70 100C84 3 66-7 56-30L54 0H23l1-261h32v101c10-23 28-34 59-34zm-8 174c40 0 45-34 45-75 0-40-5-75-45-74-42 0-51 32-51 76 0 43 10 73 51 73" id="bG"/><g id="E"><use transform="matrix(0.06172839506172839,0,0,0.06172839506172839,0,0)" xlink:href="#bF"/><use transform="matrix(0.06172839506172839,0,0,0.06172839506172839,15.987654320987653,0)" xlink:href="#aY"/><use transform="matrix(0.06172839506172839,0,0,0.06172839506172839,28.333333333333332,0)" xlink:href="#bm"/><use transform="matrix(0.06172839506172839,0,0,0.06172839506172839,46.79012345679012,0)" xlink:href="#bG"/><use transform="matrix(0.06172839506172839,0,0,0.06172839506172839,59.1358024691358,0)" xlink:href="#bd"/><use transform="matrix(0.06172839506172839,0,0,0.06172839506172839,71.48148148148148,0)" xlink:href="#bf"/></g><path fill="#333" d="M100-194c62-1 85 37 85 99 1 63-27 99-86 99S16-35 15-95c0-66 28-99 85-99zM99-20c44 1 53-31 53-75 0-43-8-75-51-75s-53 32-53 75 10 74 51 75" id="bH"/><g id="F"><use transform="matrix(0.06172839506172839,0,0,0.06172839506172839,0,0)" xlink:href="#bH"/><use transform="matrix(0.06172839506172839,0,0,0.06172839506172839,12.345679012345679,0)" xlink:href="#bo"/></g><path fill="#333" d="M135-143c-3-34-86-38-87 0 15 53 115 12 119 90S17 21 10-45l28-5c4 36 97 45 98 0-10-56-113-15-118-90-4-57 82-63 122-42 12 7 21 19 24 35" id="bI"/><g id="G"><use transform="matrix(0.06172839506172839,0,0,0.06172839506172839,0,0)" xlink:href="#aU"/><use transform="matrix(0.06172839506172839,0,0,0.06172839506172839,14.814814814814813,0)" xlink:href="#bp"/><use transform="matrix(0.06172839506172839,0,0,0.06172839506172839,27.160493827160494,0)" xlink:href="#bm"/><use transform="matrix(0.06172839506172839,0,0,0.06172839506172839,45.61728395061728,0)" xlink:href="#aX"/><use transform="matrix(0.06172839506172839,0,0,0.06172839506172839,57.962962962962955,0)" xlink:href="#bb"/><use transform="matrix(0.06172839506172839,0,0,0.06172839506172839,62.8395061728395,0)" xlink:href="#bd"/><use transform="matrix(0.06172839506172839,0,0,0.06172839506172839,75.18518518518518,0)" xlink:href="#bI"/></g><path fill="#333" d="M715 0H502L69-1082h202c94 253 197 500 285 758 19 57 36 126 52 183 96-335 234-626 350-941h201" id="bJ"/><path fill="#333" d="M365-904c58-129 161-200 334-200 130 0 228 46 293 138s98 233 98 420c0 189-34 331-102 425S824 20 698 20c-170 0-275-64-336-184 0 55-3 116-9 164H179c5-68 6-147 6-223v-1261h180c-2 193 4 394-4 580h4zm283 791c221 0 256-197 256-427 0-229-34-425-254-425-236 0-285 195-285 441 0 237 53 411 283 411" id="bK"/><path fill="#333" d="M839-1335c-182-6-269 67-259 253h491v142H580V0H400v-940H138v-142h262c-15-293 132-408 418-402 94 2 200 7 281 21v145c-75-10-177-14-260-17" id="bL"/><path fill="#333" d="M648-963c-190 6-283 138-283 336V0H185v-1484h181c-2 197 6 404-9 587h3c62-120 159-205 339-205 242 0 351 135 350 381V0H868v-695c1-168-57-273-220-268" id="bM"/><path fill="#666" d="M116-856v-148h995v148H116zm0 512v-148h995v148H116" id="bN"/><path fill="#333" d="M116-571v-205l995-418v154L253-674l858 367v153" id="bO"/><path fill="#333" d="M116-154v-153l858-367-858-366v-154l995 418v205" id="bP"/><g id="H"><use transform="matrix(0.009114583333333334,0,0,0.009114583333333334,0,0)" xlink:href="#Y"/><use transform="matrix(0.009114583333333334,0,0,0.009114583333333334,11.201822916666668,0)" xlink:href="#Z"/><use transform="matrix(0.009114583333333334,0,0,0.009114583333333334,22.403645833333336,0)" xlink:href="#aa"/><use transform="matrix(0.009114583333333334,0,0,0.009114583333333334,33.60546875,0)" xlink:href="#bt"/><use transform="matrix(0.009114583333333334,0,0,0.009114583333333334,44.80729166666667,0)" xlink:href="#ag"/><use transform="matrix(0.009114583333333334,0,0,0.009114583333333334,56.00911458333334,0)" xlink:href="#bJ"/><use transform="matrix(0.009114583333333334,0,0,0.009114583333333334,67.21093750000001,0)" xlink:href="#ac"/><use transform="matrix(0.009114583333333334,0,0,0.009114583333333334,78.41276041666669,0)" xlink:href="#af"/><use transform="matrix(0.009114583333333334,0,0,0.009114583333333334,89.61458333333336,0)" xlink:href="#bK"/><use transform="matrix(0.009114583333333334,0,0,0.009114583333333334,100.81640625000003,0)" xlink:href="#ah"/><use transform="matrix(0.009114583333333334,0,0,0.009114583333333334,112.01822916666671,0)" xlink:href="#bL"/><use transform="matrix(0.009114583333333334,0,0,0.009114583333333334,123.22005208333337,0)" xlink:href="#Y"/><use transform="matrix(0.009114583333333334,0,0,0.009114583333333334,134.42187500000003,0)" xlink:href="#bv"/><use transform="matrix(0.009114583333333334,0,0,0.009114583333333334,145.62369791666669,0)" xlink:href="#bw"/><use transform="matrix(0.009114583333333334,0,0,0.009114583333333334,156.82552083333334,0)" xlink:href="#bt"/><use transform="matrix(0.009114583333333334,0,0,0.009114583333333334,168.02734375,0)" xlink:href="#aa"/><use transform="matrix(0.009114583333333334,0,0,0.009114583333333334,179.22916666666666,0)" xlink:href="#Z"/><use transform="matrix(0.009114583333333334,0,0,0.009114583333333334,190.43098958333331,0)" xlink:href="#bD"/><use transform="matrix(0.009114583333333334,0,0,0.009114583333333334,201.63281249999997,0)" xlink:href="#bL"/><use transform="matrix(0.009114583333333334,0,0,0.009114583333333334,212.8346354166666,0)" xlink:href="#bC"/><use transform="matrix(0.009114583333333334,0,0,0.009114583333333334,224.0364583333333,0)" xlink:href="#ac"/><use transform="matrix(0.009114583333333334,0,0,0.009114583333333334,235.23828124999994,0)" xlink:href="#al"/><use transform="matrix(0.009114583333333334,0,0,0.009114583333333334,246.44010416666663,0)" xlink:href="#aj"/><use transform="matrix(0.009114583333333334,0,0,0.009114583333333334,257.64192708333326,0)" xlink:href="#ad"/><use transform="matrix(0.009114583333333334,0,0,0.009114583333333334,268.84374999999994,0)" xlink:href="#bD"/><use transform="matrix(0.009114583333333334,0,0,0.009114583333333334,280.04557291666663,0)" xlink:href="#ac"/><use transform="matrix(0.009114583333333334,0,0,0.009114583333333334,291.2473958333333,0)" xlink:href="#ae"/><use transform="matrix(0.009114583333333334,0,0,0.009114583333333334,302.44921875,0)" xlink:href="#bM"/><use transform="matrix(0.009114583333333334,0,0,0.009114583333333334,313.6510416666667,0)" xlink:href="#bN"/><use transform="matrix(0.009114583333333334,0,0,0.009114583333333334,324.85286458333337,0)" xlink:href="#bO"/><use transform="matrix(0.009114583333333334,0,0,0.009114583333333334,336.0546875000001,0)" xlink:href="#bK"/><use transform="matrix(0.009114583333333334,0,0,0.009114583333333334,347.25651041666674,0)" xlink:href="#ah"/><use transform="matrix(0.009114583333333334,0,0,0.009114583333333334,358.4583333333334,0)" xlink:href="#bL"/><use transform="matrix(0.009114583333333334,0,0,0.009114583333333334,369.6601562500001,0)" xlink:href="#af"/><use transform="matrix(0.009114583333333334,0,0,0.009114583333333334,380.8619791666668,0)" xlink:href="#aj"/><use transform="matrix(0.009114583333333334,0,0,0.009114583333333334,392.0638020833335,0)" xlink:href="#ad"/><use transform="matrix(0.009114583333333334,0,0,0.009114583333333334,403.26562500000017,0)" xlink:href="#bD"/><use transform="matrix(0.009114583333333334,0,0,0.009114583333333334,414.4674479166668,0)" xlink:href="#bP"/><use transform="matrix(0.009114583333333334,0,0,0.009114583333333334,425.66927083333354,0)" xlink:href="#am"/></g><path fill="#333" d="M63-220v92h138v28H63V0H30v-248h175v28H63" id="bQ"/><path fill="#333" d="M233-177c-1 41-23 64-60 70L243 0h-38l-65-103H63V0H30v-248c88 3 205-21 203 71zM63-129c60-2 137 13 137-47 0-61-80-42-137-45v92" id="bR"/><g id="I"><use transform="matrix(0.06172839506172839,0,0,0.06172839506172839,0,0)" xlink:href="#bQ"/><use transform="matrix(0.06172839506172839,0,0,0.06172839506172839,13.518518518518517,0)" xlink:href="#aV"/><use transform="matrix(0.06172839506172839,0,0,0.06172839506172839,19.691358024691358,0)" xlink:href="#bR"/></g><g id="J"><use transform="matrix(0.06172839506172839,0,0,0.06172839506172839,0,0)" xlink:href="#bQ"/><use transform="matrix(0.06172839506172839,0,0,0.06172839506172839,13.518518518518517,0)" xlink:href="#bc"/><use transform="matrix(0.06172839506172839,0,0,0.06172839506172839,18.39506172839506,0)" xlink:href="#bb"/><use transform="matrix(0.06172839506172839,0,0,0.06172839506172839,23.2716049382716,0)" xlink:href="#aZ"/><use transform="matrix(0.06172839506172839,0,0,0.06172839506172839,29.44444444444444,0)" xlink:href="#bd"/><use transform="matrix(0.06172839506172839,0,0,0.06172839506172839,41.79012345679012,0)" xlink:href="#bf"/></g><path fill="#333" d="M206 0h-36l-40-164L89 0H53L-1-190h32L70-26l43-164h34l41 164 42-164h31" id="bS"/><g id="K"><use transform="matrix(0.06172839506172839,0,0,0.06172839506172839,0,0)" xlink:href="#aR"/><use transform="matrix(0.06172839506172839,0,0,0.06172839506172839,15.987654320987653,0)" xlink:href="#bH"/><use transform="matrix(0.06172839506172839,0,0,0.06172839506172839,28.333333333333332,0)" xlink:href="#bS"/><use transform="matrix(0.06172839506172839,0,0,0.06172839506172839,44.32098765432099,0)" xlink:href="#aW"/><use transform="matrix(0.06172839506172839,0,0,0.06172839506172839,56.666666666666664,0)" xlink:href="#bI"/><use transform="matrix(0.06172839506172839,0,0,0.06172839506172839,67.77777777777777,0)" xlink:href="#bp"/><use transform="matrix(0.06172839506172839,0,0,0.06172839506172839,80.12345679012346,0)" xlink:href="#bm"/><use transform="matrix(0.06172839506172839,0,0,0.06172839506172839,98.58024691358024,0)" xlink:href="#aX"/><use transform="matrix(0.06172839506172839,0,0,0.06172839506172839,110.92592592592592,0)" xlink:href="#bb"/><use transform="matrix(0.06172839506172839,0,0,0.06172839506172839,115.80246913580247,0)" xlink:href="#bd"/><use transform="matrix(0.06172839506172839,0,0,0.06172839506172839,128.14814814814815,0)" xlink:href="#bf"/></g><path fill="#333" d="M16-82v-28h88v28H16" id="bT"/><path fill="#333" d="M18-27v-27l151-64-151-65v-27l175 74v36" id="bU"/><g id="L"><use transform="matrix(0.06172839506172839,0,0,0.06172839506172839,0,0)" xlink:href="#bl"/><use transform="matrix(0.06172839506172839,0,0,0.06172839506172839,12.345679012345679,0)" xlink:href="#bT"/><use transform="matrix(0.06172839506172839,0,0,0.06172839506172839,19.691358024691358,0)" xlink:href="#bU"/><use transform="matrix(0.06172839506172839,0,0,0.06172839506172839,32.654320987654316,0)" xlink:href="#bq"/></g><g id="M"><use transform="matrix(0.06172839506172839,0,0,0.06172839506172839,0,0)" xlink:href="#aR"/><use transform="matrix(0.06172839506172839,0,0,0.06172839506172839,15.987654320987653,0)" xlink:href="#aR"/><use transform="matrix(0.06172839506172839,0,0,0.06172839506172839,31.975308641975307,0)" xlink:href="#aU"/></g><path fill="#333" d="M145-31C134-9 116 4 85 4 32 4 16-35 15-94c0-59 17-99 70-100 32-1 48 14 60 33 0-11-1-24 2-32h30l-1 268h-32zM93-21c41 0 51-33 51-76s-8-73-50-73c-40 0-46 35-46 75s5 74 45 74" id="bV"/><path fill="#333" d="M179-190L93 31C79 59 56 82 12 73V49c39 6 53-20 64-50L1-190h34L92-34l54-156h33" id="bW"/><g id="N"><use transform="matrix(0.06172839506172839,0,0,0.06172839506172839,0,0)" xlink:href="#bo"/><use transform="matrix(0.06172839506172839,0,0,0.06172839506172839,6.172839506172839,0)" xlink:href="#bf"/><use transform="matrix(0.06172839506172839,0,0,0.06172839506172839,13.518518518518519,0)" xlink:href="#bd"/><use transform="matrix(0.06172839506172839,0,0,0.06172839506172839,25.864197530864196,0)" xlink:href="#bV"/><use transform="matrix(0.06172839506172839,0,0,0.06172839506172839,38.20987654320987,0)" xlink:href="#aY"/><use transform="matrix(0.06172839506172839,0,0,0.06172839506172839,50.55555555555555,0)" xlink:href="#bd"/><use transform="matrix(0.06172839506172839,0,0,0.06172839506172839,62.90123456790123,0)" xlink:href="#aW"/><use transform="matrix(0.06172839506172839,0,0,0.06172839506172839,75.24691358024691,0)" xlink:href="#bs"/><use transform="matrix(0.06172839506172839,0,0,0.06172839506172839,86.35802469135803,0)" xlink:href="#bW"/></g><g id="O"><use transform="matrix(0.06172839506172839,0,0,0.06172839506172839,0,0)" xlink:href="#bc"/><use transform="matrix(0.06172839506172839,0,0,0.06172839506172839,4.876543209876543,0)" xlink:href="#bI"/></g><path fill="#333" d="M106-169C34-169 62-67 57 0H25v-261h32l-1 103c12-21 28-36 61-36 89 0 53 116 60 194h-32v-121c2-32-8-49-39-48" id="bX"/><g id="P"><use transform="matrix(0.06172839506172839,0,0,0.06172839506172839,0,0)" xlink:href="#aZ"/><use transform="matrix(0.06172839506172839,0,0,0.06172839506172839,6.172839506172839,0)" xlink:href="#bX"/><use transform="matrix(0.06172839506172839,0,0,0.06172839506172839,18.51851851851852,0)" xlink:href="#bd"/></g><g id="Q"><use transform="matrix(0.06172839506172839,0,0,0.06172839506172839,0,0)" xlink:href="#bI"/><use transform="matrix(0.06172839506172839,0,0,0.06172839506172839,11.11111111111111,0)" xlink:href="#bp"/><use transform="matrix(0.06172839506172839,0,0,0.06172839506172839,23.45679012345679,0)" xlink:href="#bm"/><use transform="matrix(0.06172839506172839,0,0,0.06172839506172839,41.91358024691358,0)" xlink:href="#bd"/></g><g id="R"><use transform="matrix(0.06172839506172839,0,0,0.06172839506172839,0,0)" xlink:href="#bp"/><use transform="matrix(0.06172839506172839,0,0,0.06172839506172839,12.345679012345679,0)" xlink:href="#bI"/></g><g id="S"><use transform="matrix(0.06172839506172839,0,0,0.06172839506172839,0,0)" xlink:href="#aR"/><use transform="matrix(0.06172839506172839,0,0,0.06172839506172839,15.987654320987653,0)" xlink:href="#aR"/><use transform="matrix(0.06172839506172839,0,0,0.06172839506172839,31.975308641975307,0)" xlink:href="#aU"/></g><g id="T"><use transform="matrix(0.06172839506172839,0,0,0.06172839506172839,0,0)" xlink:href="#bH"/><use transform="matrix(0.06172839506172839,0,0,0.06172839506172839,12.345679012345679,0)" xlink:href="#aW"/></g><g id="U"><use transform="matrix(0.06172839506172839,0,0,0.06172839506172839,0,0)" xlink:href="#aZ"/><use transform="matrix(0.06172839506172839,0,0,0.06172839506172839,6.172839506172839,0)" xlink:href="#bX"/><use transform="matrix(0.06172839506172839,0,0,0.06172839506172839,18.51851851851852,0)" xlink:href="#bd"/></g><g id="V"><use transform="matrix(0.06172839506172839,0,0,0.06172839506172839,0,0)" xlink:href="#bH"/><use transform="matrix(0.06172839506172839,0,0,0.06172839506172839,12.345679012345679,0)" xlink:href="#aY"/><use transform="matrix(0.06172839506172839,0,0,0.06172839506172839,24.691358024691358,0)" xlink:href="#aZ"/><use transform="matrix(0.06172839506172839,0,0,0.06172839506172839,30.864197530864196,0)" xlink:href="#aX"/><use transform="matrix(0.06172839506172839,0,0,0.06172839506172839,43.20987654320987,0)" xlink:href="#aY"/><use transform="matrix(0.06172839506172839,0,0,0.06172839506172839,55.55555555555555,0)" xlink:href="#aZ"/></g><g id="W"><use transform="matrix(0.06172839506172839,0,0,0.06172839506172839,0,0)" xlink:href="#bs"/><use transform="matrix(0.06172839506172839,0,0,0.06172839506172839,11.11111111111111,0)" xlink:href="#bX"/><use transform="matrix(0.06172839506172839,0,0,0.06172839506172839,23.45679012345679,0)" xlink:href="#bp"/><use transform="matrix(0.06172839506172839,0,0,0.06172839506172839,35.80246913580247,0)" xlink:href="#aW"/><use transform="matrix(0.06172839506172839,0,0,0.06172839506172839,48.148148148148145,0)" xlink:href="#aW"/><use transform="matrix(0.06172839506172839,0,0,0.06172839506172839,60.49382716049382,0)" xlink:href="#bd"/><use transform="matrix(0.06172839506172839,0,0,0.06172839506172839,72.8395061728395,0)" xlink:href="#bb"/></g><g id="X"><use transform="matrix(0.010850694444444444,0,0,0.010850694444444444,0,0)" xlink:href="#Y"/><use transform="matrix(0.010850694444444444,0,0,0.010850694444444444,13.335503472222221,0)" xlink:href="#Z"/><use transform="matrix(0.010850694444444444,0,0,0.010850694444444444,26.671006944444443,0)" xlink:href="#aa"/><use transform="matrix(0.010850694444444444,0,0,0.010850694444444444,40.006510416666664,0)" xlink:href="#ab"/><use transform="matrix(0.010850694444444444,0,0,0.010850694444444444,53.342013888888886,0)" xlink:href="#ac"/><use transform="matrix(0.010850694444444444,0,0,0.010850694444444444,66.67751736111111,0)" xlink:href="#ad"/><use transform="matrix(0.010850694444444444,0,0,0.010850694444444444,80.01302083333334,0)" xlink:href="#ae"/><use transform="matrix(0.010850694444444444,0,0,0.010850694444444444,93.34852430555557,0)" xlink:href="#af"/><use transform="matrix(0.010850694444444444,0,0,0.010850694444444444,106.6840277777778,0)" xlink:href="#ak"/><use transform="matrix(0.010850694444444444,0,0,0.010850694444444444,120.01953125000003,0)" xlink:href="#ad"/><use transform="matrix(0.010850694444444444,0,0,0.010850694444444444,133.35503472222226,0)" xlink:href="#aa"/><use transform="matrix(0.010850694444444444,0,0,0.010850694444444444,146.69053819444449,0)" xlink:href="#bC"/><use transform="matrix(0.010850694444444444,0,0,0.010850694444444444,160.0260416666667,0)" xlink:href="#ai"/><use transform="matrix(0.010850694444444444,0,0,0.010850694444444444,173.36154513888894,0)" xlink:href="#ag"/><use transform="matrix(0.010850694444444444,0,0,0.010850694444444444,186.69704861111117,0)" xlink:href="#ae"/><use transform="matrix(0.010850694444444444,0,0,0.010850694444444444,200.0325520833334,0)" xlink:href="#ad"/><use transform="matrix(0.010850694444444444,0,0,0.010850694444444444,213.36805555555563,0)" xlink:href="#ak"/><use transform="matrix(0.010850694444444444,0,0,0.010850694444444444,226.70355902777786,0)" xlink:href="#al"/><use transform="matrix(0.010850694444444444,0,0,0.010850694444444444,240.03906250000006,0)" xlink:href="#am"/></g></defs></g></svg>